<svg xmlns="http://www.w3.org/2000/svg" width="35" height="35" viewBox="0 0 35 35">
  <g id="Group_128" data-name="Group 128" transform="translate(-415 -127)">
    <path id="Icon_awesome-anchor" data-name="Icon awesome-anchor" d="M.419,11.576h.95c.64,3.379,4.006,5.262,7.116,5.262s6.478-1.887,7.116-5.262h.95A.4.4,0,0,0,16.8,10.9L14.835,8.7a.326.326,0,0,0-.5,0l-1.966,2.2a.4.4,0,0,0,.249.674h1.031a5.127,5.127,0,0,1-4.227,3.092V8.419h1.525a.375.375,0,0,0,.352-.395V6.709a.375.375,0,0,0-.352-.395H9.424v-.18A3.156,3.156,0,0,0,11.3,3.158,3.017,3.017,0,0,0,8.526,0,3,3,0,0,0,5.67,3.157,3.156,3.156,0,0,0,7.547,6.135v.18H6.022a.375.375,0,0,0-.352.395V8.025a.375.375,0,0,0,.352.395H7.547v6.249A5.133,5.133,0,0,1,3.32,11.576H4.351A.4.4,0,0,0,4.6,10.9L2.634,8.7a.326.326,0,0,0-.5,0L.17,10.9A.4.4,0,0,0,.419,11.576ZM8.486,2.1a1,1,0,0,1,.939,1.052A1,1,0,0,1,8.486,4.21a1,1,0,0,1-.939-1.052A1,1,0,0,1,8.486,2.1Z" transform="translate(424.014 136.081)" fill="#010d26"/>
    <g id="Ellipse_46" data-name="Ellipse 46" transform="translate(415 127)" fill="none" stroke="#010d26" stroke-width="1">
      <circle cx="17.5" cy="17.5" r="17.5" stroke="none"/>
      <circle cx="17.5" cy="17.5" r="17" fill="none"/>
    </g>
  </g>
</svg>
