<svg xmlns="http://www.w3.org/2000/svg" width="142" height="142" viewBox="0 0 142 142"><g transform="translate(-271 -39)"><g transform="translate(271 39)" fill="#010d26" stroke="#6a8fd4" stroke-width="3"><circle cx="71" cy="71" r="71" stroke="none"/><circle cx="71" cy="71" r="69.5" fill="none"/></g><g transform="translate(1.496 9.005)"><text transform="matrix(0.996, 0.087, -0.087, 0.996, 286.701, 122.365)" fill="#779fe8" font-size="16" font-family="Roboto-Medium, Roboto" font-weight="500"><tspan x="0" y="0">BATTL</tspan></text><text transform="matrix(0.996, -0.087, 0.087, 0.996, 346.482, 126.548)" fill="#779fe8" font-size="16" font-family="Roboto-Medium, Roboto" font-weight="500" letter-spacing="0.01em"><tspan x="0" y="0">SHIPS</tspan></text><text transform="translate(336 126.533)" fill="#779fe8" font-size="16" font-family="Roboto-Medium, Roboto" font-weight="500"><tspan x="0" y="0">E</tspan></text></g><line x2="92" transform="translate(295.5 109.5)" fill="none" stroke="#779fe8" stroke-width="1"/><g transform="translate(242.539 389.962)"><path d="M109.633-319.044c0,.843-.084.956-.618.815-.365-.084-.534-.028-.365.112.309.253,1.18,3.232,1.63,5.565a10.156,10.156,0,0,0,.618,2.108,5.924,5.924,0,0,1,.478,1.686c.084.871,0,.984-.618,1.068a3,3,0,0,0-2.5,1.349,6.306,6.306,0,0,0-.309.787,4.2,4.2,0,0,0,1.265-.112l1.293-.2-.225,1.293a23.676,23.676,0,0,0,.422,8.544c.422,1.265.45,1.6.141,1.6a.379.379,0,0,0-.365.393c0,.225-.281.45-.618.506-.45.056-.7.337-.815.927-.112.7-.253.422-.731-1.686-.45-1.939-.534-2.557-.253-2.81.225-.169.281-.674.141-1.405l-.169-1.124-.056,1.04c-.028.984-.59,1.574-.59.646,0-.337-.365-.422-1.658-.422-1.6,0-1.686.028-1.8.759l-.112.787-.056-.787c-.028-.674-.141-.759-.984-.759s-.984.112-1.152.843c-.112.45-.281.843-.365.843a14.591,14.591,0,0,1-1.742-1.265,6.388,6.388,0,0,0-1.658-1.124c-.056.084.253.422.7.759.45.365,1.1.927,1.461,1.265a2.329,2.329,0,0,0,.9.646c.393,0,.365.506-.141,2.726-.253,1.04-.506,2.192-.562,2.529-.141.534-.337.646-1.265.646-.984,0-1.18.112-1.518.9l-.393.927-.028-1.771c-.028-1.349-.112-1.742-.45-1.742s-.422.393-.422,1.967c0,1.518-.084,1.967-.393,1.967-.59,0-.618-.056-1.461-4.075a13.138,13.138,0,0,1-.506-4.047,20.68,20.68,0,0,0,.084-4.244l-.141-3.794-.056,3.71c-.028,2.276-.169,3.738-.337,3.738-.141,0-.281-.309-.281-.7,0-.674-.084-.7-1.686-.7-1.63,0-1.686.028-1.686.731,0,.422-.112.646-.281.534a.713.713,0,0,1-.225-.646c.056-.337-.141-.506-.787-.562-.815-.084-.9,0-1.237,1.18-.309,1.152-.45,1.293-1.18,1.293-.7,0-.815-.112-.759-.646.141-1.152-.281-1.883-1.1-1.883-.562,0-.646.084-.393.337a1.34,1.34,0,0,1,.337.871c0,.281.112.45.253.337.478-.281.674.506.225.843a1.9,1.9,0,0,0-.618,1.068c-.2.731-1.012,1.237-1.518.927a3.138,3.138,0,0,1-.393-1.321c-.2-1.405-.225-1.461-1.068-1.124-.365.141-.506.281-.281.281.225.028.309.225.225.59s0,.562.253.562a.408.408,0,0,1,.393.422.432.432,0,0,1-.422.422c-.225,0-.478.309-.59.7a1.457,1.457,0,0,1-1.124.984c-1.293.45-1.8.2-1.8-.815,0-.984-.478-1.405-.759-.675a1.714,1.714,0,0,1-.478.7c-.2.141-.2.225.056.225a.406.406,0,0,1,.337.422.408.408,0,0,1-.393.422c-.253,0-.45.506-.59,1.6-.225,1.827-.393,2.333-.731,2.333-.141,0-.253-.562-.253-1.265,0-1.068-.084-1.265-.534-1.265s-.562.225-.646,1.18c-.112,1.658-.787,1.771-.787.112,0-1.1-.084-1.293-.562-1.293s-.562.2-.562,1.18c-.028,1.04-.056,1.152-.365.731a1.122,1.122,0,0,0-1.152-.309,2.492,2.492,0,0,1-1.433-.2,3.251,3.251,0,0,0-1.714-.2c-2.923.45-3.372.562-3.682.956-.337.422-.927.281-.927-.225a1.665,1.665,0,0,0-1.068-1.1c-.169,0-.45.365-.675.843-.337.787-.45.843-1.967.843h-1.63L57.022-291l-.028-2.726-.2,3.091a20.079,20.079,0,0,1-.422,3.569c-.169.422-.59.506-2.839.506-2.445,0-2.642-.028-2.642-.562s-.2-.562-6.6-.562h-6.6l-.815-1.63c-.478-.871-.843-1.433-.871-1.237a11.217,11.217,0,0,0,.956,2.248,21.659,21.659,0,0,1,1.293,3.344l.337,1.49H154.571l.478-.927a28.827,28.827,0,0,1,3.176-3.569l2.7-2.67-2.81-.028a11.306,11.306,0,0,0-2.951.169,36.986,36.986,0,0,1-5.34.534c-2.867.169-6.1.393-7.195.506l-2,.141.141-.843c.084-.646.309-.9.984-1.124l.9-.309-1.012.141c-.759.112-1.068.056-1.18-.281-.141-.337-.562-.45-1.6-.45-1.349,0-1.405.028-1.405.787a2.93,2.93,0,0,0,.422,1.377c.225.337.337.674.225.731-.141.084-2.586.225-5.48.337l-5.284.2v-.7c0-.393-.112-.759-.253-.815-.534-.169-.646-1.546-.2-2,.562-.534.562-.759.056-.759-.478,0-.871-.927-.478-1.068.337-.112-.45-1.461-.843-1.461-.141,0-.253.45-.253.984,0,.956-.028.984-1.124.984-.815,0-1.18-.141-1.405-.534-.365-.731-.365-2.276.028-2.276.169,0,.225-.253.112-.59-.169-.478.2-.956,1.883-2.5a9.724,9.724,0,0,0,1.827-1.967,14.082,14.082,0,0,0-2.22,1.883l-1.939,1.911-.534-.7c-.309-.393-1.546-2.108-2.754-3.794-2.248-3.148-2.895-4.469-2.22-4.721.169-.084.056-.169-.281-.169-.337-.028-.674-.2-.731-.393-.084-.2-.169-.141-.169.141-.028.281.112.506.309.506s.225.084.084.253a2.8,2.8,0,0,1-1.546.056c-1.124-.141-1.265-.253-1.349-.956-.084-.646,0-.759.618-.759.534,0,.731-.141.731-.562,0-.45-.2-.562-.984-.562-.674,0-.984-.141-.984-.422v-.646c0-.112.169-.2.365-.2.169,0,.365-.281.422-.646.084-.506-.028-.618-.646-.618-.506,0-.815-.169-.9-.562-.169-.618-.815-.759-.984-.253-.056.2-.393-.674-.7-1.911a9.948,9.948,0,0,1-.45-3.85c.084-.871.084-1.574-.028-1.574C109.717-320,109.633-319.578,109.633-319.044Zm7.251,14.417a55.179,55.179,0,0,1,5.2,7.307.346.346,0,0,0,.281.365c.169,0,.225.056.141.141-.365.365-1.012-.225-.871-.787.112-.562.084-.59-.281-.141a1.237,1.237,0,0,1-.731.506.289.289,0,0,0-.309.281c0,.141-.281.281-.618.281a1.8,1.8,0,0,1-1.265-1.012c-.759-1.152-.815-1.518-.225-1.518.506,0,.534-.393.084-1.208-.309-.59-.309-.59-.534-.056a5.324,5.324,0,0,0-.225,1.461c-.028.843-.112.927-.871.927-.7,0-.871-.141-1.152-1.1-.281-.984-.253-1.18.281-1.883.393-.506.506-.843.309-.956a.529.529,0,0,1-.112-.646c.141-.365.028-.478-.45-.478-.506,0-.562.084-.309.393s.253.45,0,.59a.433.433,0,0,1-.562-.169c-.309-.478-.337-1.1-.028-1.1a3.864,3.864,0,0,0,1.04-.731l.843-.731-1.012.59c-1.265.731-1.293.731-1.433-.112-.141-.646-.084-.7,1.04-.7A3.089,3.089,0,0,1,116.883-304.627Z" fill="#6a8fd4"/></g></g></svg>