<svg xmlns="http://www.w3.org/2000/svg" width="51" height="51" viewBox="0 0 51 51">
  <path id="iconmonstr-airport-20" d="M0,27.625c0-2.9,1.315-6.226,4.409-7.482-1.543-3.049-3.723-5.5-.695-8.245C8.929,7.168,18.148,0,25.5,0S42.288,7.291,47.2,11.836c3.394,3.141,1.29,4.834-.608,8.307C49.831,21.409,51,24.616,51,27.625c0,4.743-2.325,9.242-6.67,11.088C39.946,45.715,33.732,51,25.5,51c-7.952,0-14.548-5.446-18.832-12.287C2.346,36.877-.006,32.519,0,27.625ZM30.6,38.25H20.4c.011.032,1.453,4,5.1,4C29.285,42.251,30.589,38.282,30.6,38.25ZM46.735,26.868a4.42,4.42,0,0,1-3.776.487c-3.273-.944-7.48-3.211-17.459-3.183-9.977-.028-14.191,2.227-17.459,3.183a4.49,4.49,0,0,1-3.77-.423c-.323,2.79.884,6.815,4.511,8.043a2.134,2.134,0,0,1,1.139.914,31,31,0,0,0,4.431,5.784c1.961,1.345,2.244-3.984,3.545-5.782,1.458-2.017,5.215-2.393,7.6-.684,2.386-1.708,6.146-1.332,7.6.684,1.3,1.8,1.583,7.127,3.542,5.78a30.916,30.916,0,0,0,4.433-5.782,2.126,2.126,0,0,1,1.139-.914c3.617-1.226,4.885-5.3,4.518-8.107ZM18.594,25.5a2.958,2.958,0,0,0-2.656,3.188,2.96,2.96,0,0,0,2.656,3.188,2.96,2.96,0,0,0,2.656-3.187A2.958,2.958,0,0,0,18.594,25.5Zm16.469,3.188a2.96,2.96,0,0,1-2.656,3.188,2.96,2.96,0,0,1-2.656-3.187A2.958,2.958,0,0,1,32.406,25.5,2.958,2.958,0,0,1,35.063,28.688Zm8.485-10.7a52.643,52.643,0,0,0-35.953,0L9.206,21.25a56.921,56.921,0,0,1,32.5,0l1.84-3.266Zm-15-11.609a3.718,3.718,0,0,0-6.1,0H15.906l3.219,4.25h3.323a3.718,3.718,0,0,0,6.1,0h3.336l3.185-4.25H28.552Z" fill="#6a8fd4" fill-rule="evenodd"/>
</svg>
