<svg width="441" height="222" viewBox="0 0 441 222" fill="none" xmlns="http://www.w3.org/2000/svg">
<path d="M416 0H25C11.1929 0 0 11.1929 0 25V197C0 210.807 11.1929 222 25 222H416C429.807 222 441 210.807 441 197V25C441 11.1929 429.807 0 416 0Z" fill="#010D26"/>
<path d="M289 90H153C147.477 90 143 94.4772 143 100V121C143 126.523 147.477 131 153 131H289C294.523 131 299 126.523 299 121V100C299 94.4772 294.523 90 289 90Z" fill="#010D26"/>
<path d="M289 91H153C148.029 91 144 95.0294 144 100V121C144 125.971 148.029 130 153 130H289C293.971 130 298 125.971 298 121V100C298 95.0294 293.971 91 289 91Z" stroke="#4775DA" stroke-width="3"/>
<path d="M164.88 118V104H170.64C171.88 104 172.94 104.2 173.82 104.6C174.713 105 175.4 105.573 175.88 106.32C176.36 107.067 176.6 107.953 176.6 108.98C176.6 110.007 176.36 110.893 175.88 111.64C175.4 112.373 174.713 112.94 173.82 113.34C172.94 113.727 171.88 113.92 170.64 113.92H166.32L167.48 112.74V118H164.88ZM174.04 118L170.5 112.92H173.28L176.84 118H174.04ZM167.48 113.02L166.32 111.78H170.52C171.667 111.78 172.527 111.533 173.1 111.04C173.687 110.547 173.98 109.86 173.98 108.98C173.98 108.087 173.687 107.4 173.1 106.92C172.527 106.44 171.667 106.2 170.52 106.2H166.32L167.48 104.92V113.02ZM185.751 118V115.84L185.611 115.38V111.6C185.611 110.867 185.391 110.3 184.951 109.9C184.511 109.487 183.845 109.28 182.951 109.28C182.351 109.28 181.758 109.373 181.171 109.56C180.598 109.747 180.111 110.007 179.711 110.34L178.731 108.52C179.305 108.08 179.985 107.753 180.771 107.54C181.571 107.313 182.398 107.2 183.251 107.2C184.798 107.2 185.991 107.573 186.831 108.32C187.685 109.053 188.111 110.193 188.111 111.74V118H185.751ZM182.391 118.14C181.591 118.14 180.891 118.007 180.291 117.74C179.691 117.46 179.225 117.08 178.891 116.6C178.571 116.107 178.411 115.553 178.411 114.94C178.411 114.34 178.551 113.8 178.831 113.32C179.125 112.84 179.598 112.46 180.251 112.18C180.905 111.9 181.771 111.76 182.851 111.76H185.951V113.42H183.031C182.178 113.42 181.605 113.56 181.311 113.84C181.018 114.107 180.871 114.44 180.871 114.84C180.871 115.293 181.051 115.653 181.411 115.92C181.771 116.187 182.271 116.32 182.911 116.32C183.525 116.32 184.071 116.18 184.551 115.9C185.045 115.62 185.398 115.207 185.611 114.66L186.031 116.16C185.791 116.787 185.358 117.273 184.731 117.62C184.118 117.967 183.338 118.14 182.391 118.14ZM197.38 107.2C198.233 107.2 198.993 107.367 199.66 107.7C200.34 108.033 200.873 108.547 201.26 109.24C201.646 109.92 201.84 110.8 201.84 111.88V118H199.34V112.2C199.34 111.253 199.113 110.547 198.66 110.08C198.22 109.613 197.6 109.38 196.8 109.38C196.213 109.38 195.693 109.5 195.24 109.74C194.786 109.98 194.433 110.34 194.18 110.82C193.94 111.287 193.82 111.88 193.82 112.6V118H191.32V107.32H193.7V110.2L193.28 109.32C193.653 108.64 194.193 108.12 194.9 107.76C195.62 107.387 196.446 107.2 197.38 107.2ZM209.551 118.14C208.524 118.14 207.597 117.913 206.771 117.46C205.957 116.993 205.317 116.353 204.851 115.54C204.384 114.727 204.151 113.767 204.151 112.66C204.151 111.553 204.384 110.593 204.851 109.78C205.317 108.967 205.957 108.333 206.771 107.88C207.597 107.427 208.524 107.2 209.551 107.2C210.444 107.2 211.244 107.4 211.951 107.8C212.657 108.187 213.217 108.78 213.631 109.58C214.044 110.38 214.251 111.407 214.251 112.66C214.251 113.9 214.051 114.927 213.651 115.74C213.251 116.54 212.697 117.14 211.991 117.54C211.284 117.94 210.471 118.14 209.551 118.14ZM209.851 116C210.451 116 210.984 115.867 211.451 115.6C211.931 115.333 212.311 114.947 212.591 114.44C212.884 113.933 213.031 113.34 213.031 112.66C213.031 111.967 212.884 111.373 212.591 110.88C212.311 110.373 211.931 109.987 211.451 109.72C210.984 109.453 210.451 109.32 209.851 109.32C209.251 109.32 208.711 109.453 208.231 109.72C207.764 109.987 207.384 110.373 207.091 110.88C206.811 111.373 206.671 111.967 206.671 112.66C206.671 113.34 206.811 113.933 207.091 114.44C207.384 114.947 207.764 115.333 208.231 115.6C208.711 115.867 209.251 116 209.851 116ZM213.091 118V115.48L213.191 112.64L212.991 109.8V103.16H215.471V118H213.091ZM223.561 118.14C222.468 118.14 221.494 117.907 220.641 117.44C219.788 116.96 219.114 116.307 218.621 115.48C218.128 114.653 217.881 113.713 217.881 112.66C217.881 111.593 218.128 110.653 218.621 109.84C219.114 109.013 219.788 108.367 220.641 107.9C221.494 107.433 222.468 107.2 223.561 107.2C224.668 107.2 225.648 107.433 226.501 107.9C227.368 108.367 228.041 109.007 228.521 109.82C229.014 110.633 229.261 111.58 229.261 112.66C229.261 113.713 229.014 114.653 228.521 115.48C228.041 116.307 227.368 116.96 226.501 117.44C225.648 117.907 224.668 118.14 223.561 118.14ZM223.561 116C224.174 116 224.721 115.867 225.201 115.6C225.681 115.333 226.054 114.947 226.321 114.44C226.601 113.933 226.741 113.34 226.741 112.66C226.741 111.967 226.601 111.373 226.321 110.88C226.054 110.373 225.681 109.987 225.201 109.72C224.721 109.453 224.181 109.32 223.581 109.32C222.968 109.32 222.421 109.453 221.941 109.72C221.474 109.987 221.101 110.373 220.821 110.88C220.541 111.373 220.401 111.967 220.401 112.66C220.401 113.34 220.541 113.933 220.821 114.44C221.101 114.947 221.474 115.333 221.941 115.6C222.421 115.867 222.961 116 223.561 116ZM245.132 107.2C245.985 107.2 246.738 107.367 247.392 107.7C248.058 108.033 248.578 108.547 248.952 109.24C249.325 109.92 249.512 110.8 249.512 111.88V118H247.012V112.2C247.012 111.253 246.805 110.547 246.392 110.08C245.978 109.613 245.385 109.38 244.612 109.38C244.065 109.38 243.578 109.5 243.152 109.74C242.738 109.98 242.412 110.333 242.172 110.8C241.945 111.267 241.832 111.86 241.832 112.58V118H239.332V112.2C239.332 111.253 239.125 110.547 238.712 110.08C238.298 109.613 237.705 109.38 236.932 109.38C236.385 109.38 235.898 109.5 235.472 109.74C235.058 109.98 234.732 110.333 234.492 110.8C234.265 111.267 234.152 111.86 234.152 112.58V118H231.652V107.32H234.032V110.16L233.612 109.32C233.972 108.627 234.492 108.1 235.172 107.74C235.865 107.38 236.652 107.2 237.532 107.2C238.532 107.2 239.398 107.447 240.132 107.94C240.878 108.433 241.372 109.18 241.612 110.18L240.632 109.84C240.978 109.04 241.552 108.4 242.352 107.92C243.152 107.44 244.078 107.2 245.132 107.2ZM252.706 118V107.32H255.206V118H252.706ZM253.966 105.56C253.5 105.56 253.113 105.413 252.806 105.12C252.513 104.827 252.366 104.473 252.366 104.06C252.366 103.633 252.513 103.28 252.806 103C253.113 102.707 253.5 102.56 253.966 102.56C254.433 102.56 254.813 102.7 255.106 102.98C255.413 103.247 255.566 103.587 255.566 104C255.566 104.44 255.42 104.813 255.126 105.12C254.833 105.413 254.446 105.56 253.966 105.56ZM257.608 118V116.42L264.188 108.46L264.648 109.32H257.728V107.32H266.648V108.9L260.068 116.86L259.568 116H266.828V118H257.608ZM273.996 118.14C272.809 118.14 271.769 117.907 270.876 117.44C269.996 116.96 269.309 116.307 268.816 115.48C268.336 114.653 268.096 113.713 268.096 112.66C268.096 111.593 268.329 110.653 268.796 109.84C269.276 109.013 269.929 108.367 270.756 107.9C271.596 107.433 272.549 107.2 273.616 107.2C274.656 107.2 275.583 107.427 276.396 107.88C277.209 108.333 277.849 108.973 278.316 109.8C278.783 110.627 279.016 111.6 279.016 112.72C279.016 112.827 279.009 112.947 278.996 113.08C278.996 113.213 278.989 113.34 278.976 113.46H270.076V111.8H277.656L276.676 112.32C276.689 111.707 276.563 111.167 276.296 110.7C276.029 110.233 275.663 109.867 275.196 109.6C274.743 109.333 274.216 109.2 273.616 109.2C273.003 109.2 272.463 109.333 271.996 109.6C271.543 109.867 271.183 110.24 270.916 110.72C270.663 111.187 270.536 111.74 270.536 112.38V112.78C270.536 113.42 270.683 113.987 270.976 114.48C271.269 114.973 271.683 115.353 272.216 115.62C272.749 115.887 273.363 116.02 274.056 116.02C274.656 116.02 275.196 115.927 275.676 115.74C276.156 115.553 276.583 115.26 276.956 114.86L278.296 116.4C277.816 116.96 277.209 117.393 276.476 117.7C275.756 117.993 274.929 118.14 273.996 118.14Z" fill="#4775DA"/>
<path d="M316 105.5C316 118.034 305.813 129.65 288.728 138.193C271.702 146.706 248.112 152 222 152C195.888 152 172.298 146.706 155.272 138.193C138.187 129.65 128 118.034 128 105.5C128 92.9661 138.187 81.3495 155.272 72.8069C172.298 64.2941 195.888 59 222 59C248.112 59 271.702 64.2941 288.728 72.8069C305.813 81.3495 316 92.9661 316 105.5Z" stroke="#D31424" stroke-width="2"/>
</svg>
