<svg width="441" height="222" viewBox="0 0 441 222" fill="none" xmlns="http://www.w3.org/2000/svg">
<path d="M416 0H25C11.1929 0 0 11.1929 0 25V197C0 210.807 11.1929 222 25 222H416C429.807 222 441 210.807 441 197V25C441 11.1929 429.807 0 416 0Z" fill="#010D26"/>
<path d="M385 31H56C47.7157 31 41 37.7157 41 46V175C41 183.284 47.7157 190 56 190H385C393.284 190 400 183.284 400 175V46C400 37.7157 393.284 31 385 31Z" fill="#010D26"/>
<path d="M385 32.5H56C48.5442 32.5 42.5 38.5442 42.5 46V175C42.5 182.456 48.5442 188.5 56 188.5H385C392.456 188.5 398.5 182.456 398.5 175V46C398.5 38.5442 392.456 32.5 385 32.5Z" stroke="#83B33B" stroke-width="3"/>
<path d="M96.0176 81.7812L99.1426 88.4121L102.287 81.7812H105.236L100.51 90.7949V96H97.7852V90.7949L93.0488 81.7812H96.0176ZM105.363 90.8242V90.6191C105.363 89.8444 105.474 89.1315 105.695 88.4805C105.917 87.8229 106.239 87.2533 106.662 86.7715C107.085 86.2897 107.603 85.9154 108.215 85.6484C108.827 85.375 109.523 85.2383 110.305 85.2383C111.099 85.2383 111.802 85.375 112.414 85.6484C113.033 85.9154 113.553 86.2897 113.977 86.7715C114.4 87.2533 114.722 87.8229 114.943 88.4805C115.165 89.1315 115.275 89.8444 115.275 90.6191V90.8242C115.275 91.5924 115.165 92.3053 114.943 92.9629C114.722 93.6139 114.4 94.1836 113.977 94.6719C113.553 95.1536 113.036 95.528 112.424 95.7949C111.812 96.0618 111.112 96.1953 110.324 96.1953C109.543 96.1953 108.843 96.0618 108.225 95.7949C107.606 95.528 107.085 95.1536 106.662 94.6719C106.239 94.1836 105.917 93.6139 105.695 92.9629C105.474 92.3053 105.363 91.5924 105.363 90.8242ZM107.941 90.6191V90.8242C107.941 91.2865 107.987 91.7194 108.078 92.123C108.169 92.5267 108.309 92.8815 108.498 93.1875C108.687 93.4935 108.931 93.7344 109.23 93.9102C109.536 94.0794 109.901 94.1641 110.324 94.1641C110.741 94.1641 111.099 94.0794 111.398 93.9102C111.698 93.7344 111.942 93.4935 112.131 93.1875C112.326 92.8815 112.469 92.5267 112.561 92.123C112.652 91.7194 112.697 91.2865 112.697 90.8242V90.6191C112.697 90.1634 112.652 89.737 112.561 89.3398C112.469 88.9362 112.326 88.5814 112.131 88.2754C111.942 87.9629 111.695 87.7188 111.389 87.543C111.089 87.3607 110.728 87.2695 110.305 87.2695C109.888 87.2695 109.53 87.3607 109.23 87.543C108.931 87.7188 108.687 87.9629 108.498 88.2754C108.309 88.5814 108.169 88.9362 108.078 89.3398C107.987 89.737 107.941 90.1634 107.941 90.6191ZM123.439 93.4902V85.4336H126.037V96H123.596L123.439 93.4902ZM123.771 91.3027L124.572 91.2832C124.572 91.9928 124.494 92.6471 124.338 93.2461C124.182 93.8451 123.938 94.3659 123.605 94.8086C123.28 95.2448 122.867 95.5866 122.365 95.834C121.864 96.0749 121.271 96.1953 120.588 96.1953C120.067 96.1953 119.592 96.1237 119.162 95.9805C118.732 95.8307 118.361 95.5996 118.049 95.2871C117.743 94.9681 117.505 94.5612 117.336 94.0664C117.167 93.5651 117.082 92.9629 117.082 92.2598V85.4336H119.66V92.2793C119.66 92.6309 119.699 92.9238 119.777 93.1582C119.862 93.3926 119.976 93.5846 120.119 93.7344C120.269 93.8776 120.441 93.9818 120.637 94.0469C120.839 94.1055 121.053 94.1348 121.281 94.1348C121.906 94.1348 122.398 94.0111 122.756 93.7637C123.12 93.5098 123.381 93.1712 123.537 92.748C123.693 92.3184 123.771 91.8366 123.771 91.3027ZM130.9 87.5918V96H128.322V85.4336H130.764L130.9 87.5918ZM134.113 85.3652L134.074 87.7676C133.931 87.7415 133.768 87.722 133.586 87.709C133.41 87.696 133.244 87.6895 133.088 87.6895C132.691 87.6895 132.342 87.7448 132.043 87.8555C131.743 87.9596 131.493 88.1126 131.291 88.3145C131.096 88.5163 130.946 88.7637 130.842 89.0566C130.738 89.3431 130.679 89.6686 130.666 90.0332L130.109 89.9648C130.109 89.2943 130.178 88.6725 130.314 88.0996C130.451 87.5267 130.65 87.0254 130.91 86.5957C131.171 86.166 131.496 85.834 131.887 85.5996C132.284 85.3587 132.74 85.2383 133.254 85.2383C133.397 85.2383 133.55 85.2513 133.713 85.2773C133.882 85.2969 134.016 85.3262 134.113 85.3652ZM146.32 93.1094C146.32 92.888 146.262 92.6895 146.145 92.5137C146.027 92.3379 145.806 92.1784 145.48 92.0352C145.161 91.8854 144.693 91.7454 144.074 91.6152C143.527 91.498 143.023 91.3516 142.561 91.1758C142.098 91 141.701 90.7884 141.369 90.541C141.037 90.2871 140.777 89.9909 140.588 89.6523C140.406 89.3073 140.314 88.9102 140.314 88.4609C140.314 88.0247 140.409 87.6146 140.598 87.2305C140.786 86.8398 141.06 86.498 141.418 86.2051C141.776 85.9056 142.212 85.6712 142.727 85.502C143.241 85.3262 143.82 85.2383 144.465 85.2383C145.363 85.2383 146.135 85.3848 146.779 85.6777C147.43 85.9707 147.928 86.3743 148.273 86.8887C148.618 87.3965 148.791 87.9694 148.791 88.6074H146.213C146.213 88.3275 146.148 88.0736 146.018 87.8457C145.894 87.6178 145.702 87.4355 145.441 87.2988C145.181 87.1556 144.852 87.084 144.455 87.084C144.097 87.084 143.794 87.1426 143.547 87.2598C143.306 87.377 143.124 87.5299 143 87.7188C142.876 87.9076 142.814 88.1159 142.814 88.3438C142.814 88.513 142.847 88.666 142.912 88.8027C142.984 88.9329 143.098 89.0534 143.254 89.1641C143.41 89.2747 143.622 89.3757 143.889 89.4668C144.162 89.5579 144.497 89.6458 144.895 89.7305C145.682 89.8867 146.369 90.0951 146.955 90.3555C147.548 90.6094 148.01 90.9479 148.342 91.3711C148.674 91.7943 148.84 92.3346 148.84 92.9922C148.84 93.4609 148.739 93.8906 148.537 94.2812C148.335 94.6654 148.042 95.0007 147.658 95.2871C147.274 95.5736 146.815 95.7982 146.281 95.9609C145.747 96.1172 145.145 96.1953 144.475 96.1953C143.505 96.1953 142.684 96.0228 142.014 95.6777C141.343 95.3262 140.835 94.8835 140.49 94.3496C140.145 93.8092 139.973 93.2493 139.973 92.6699H142.443C142.463 93.0801 142.574 93.4089 142.775 93.6562C142.977 93.9036 143.231 94.0827 143.537 94.1934C143.85 94.2975 144.178 94.3496 144.523 94.3496C144.914 94.3496 145.243 94.2975 145.51 94.1934C145.777 94.0827 145.979 93.9362 146.115 93.7539C146.252 93.5651 146.32 93.3503 146.32 93.1094ZM155.803 85.4336V87.2891H149.748V85.4336H155.803ZM151.369 82.8359H153.957V92.9531C153.957 93.2656 153.999 93.5065 154.084 93.6758C154.169 93.8451 154.296 93.959 154.465 94.0176C154.634 94.0762 154.836 94.1055 155.07 94.1055C155.24 94.1055 155.396 94.0957 155.539 94.0762C155.682 94.0566 155.803 94.0371 155.9 94.0176L155.91 95.9512C155.695 96.0228 155.451 96.0814 155.178 96.127C154.911 96.1725 154.608 96.1953 154.27 96.1953C153.69 96.1953 153.182 96.0977 152.746 95.9023C152.31 95.7005 151.971 95.3783 151.73 94.9355C151.49 94.4863 151.369 93.8939 151.369 93.1582V82.8359ZM163.342 93.7539V88.8809C163.342 88.5228 163.28 88.2135 163.156 87.9531C163.033 87.6927 162.844 87.4909 162.59 87.3477C162.336 87.2044 162.014 87.1328 161.623 87.1328C161.278 87.1328 160.975 87.1914 160.715 87.3086C160.461 87.4258 160.266 87.5918 160.129 87.8066C159.992 88.015 159.924 88.2559 159.924 88.5293H157.336C157.336 88.0931 157.44 87.6797 157.648 87.2891C157.857 86.8919 158.153 86.5404 158.537 86.2344C158.928 85.9219 159.393 85.6777 159.934 85.502C160.48 85.3262 161.092 85.2383 161.77 85.2383C162.57 85.2383 163.283 85.375 163.908 85.6484C164.54 85.9154 165.035 86.319 165.393 86.8594C165.757 87.3997 165.939 88.0801 165.939 88.9004V93.5098C165.939 94.0371 165.972 94.4896 166.037 94.8672C166.109 95.2383 166.213 95.5605 166.35 95.834V96H163.723C163.599 95.7331 163.505 95.3945 163.439 94.9844C163.374 94.5677 163.342 94.1576 163.342 93.7539ZM163.703 89.5645L163.723 91.0977H162.092C161.688 91.0977 161.333 91.14 161.027 91.2246C160.721 91.3027 160.471 91.4199 160.275 91.5762C160.08 91.7259 159.934 91.9082 159.836 92.123C159.738 92.3314 159.689 92.569 159.689 92.8359C159.689 93.0964 159.748 93.3307 159.865 93.5391C159.989 93.7474 160.165 93.9134 160.393 94.0371C160.627 94.1543 160.9 94.2129 161.213 94.2129C161.669 94.2129 162.066 94.1217 162.404 93.9395C162.743 93.7507 163.007 93.5228 163.195 93.2559C163.384 92.9889 163.485 92.735 163.498 92.4941L164.24 93.6074C164.149 93.8743 164.012 94.1576 163.83 94.457C163.648 94.7565 163.413 95.0365 163.127 95.2969C162.84 95.5573 162.495 95.7721 162.092 95.9414C161.688 96.1107 161.219 96.1953 160.686 96.1953C160.002 96.1953 159.39 96.0586 158.85 95.7852C158.309 95.5117 157.883 95.1374 157.57 94.6621C157.258 94.1868 157.102 93.6465 157.102 93.041C157.102 92.4811 157.206 91.9863 157.414 91.5566C157.622 91.127 157.932 90.7656 158.342 90.4727C158.752 90.1732 159.26 89.9486 159.865 89.7988C160.477 89.6426 161.177 89.5645 161.965 89.5645H163.703ZM173.264 85.4336V87.2891H167.209V85.4336H173.264ZM168.83 82.8359H171.418V92.9531C171.418 93.2656 171.46 93.5065 171.545 93.6758C171.63 93.8451 171.757 93.959 171.926 94.0176C172.095 94.0762 172.297 94.1055 172.531 94.1055C172.701 94.1055 172.857 94.0957 173 94.0762C173.143 94.0566 173.264 94.0371 173.361 94.0176L173.371 95.9512C173.156 96.0228 172.912 96.0814 172.639 96.127C172.372 96.1725 172.069 96.1953 171.73 96.1953C171.151 96.1953 170.643 96.0977 170.207 95.9023C169.771 95.7005 169.432 95.3783 169.191 94.9355C168.951 94.4863 168.83 93.8939 168.83 93.1582V82.8359ZM181.271 93.4902V85.4336H183.869V96H181.428L181.271 93.4902ZM181.604 91.3027L182.404 91.2832C182.404 91.9928 182.326 92.6471 182.17 93.2461C182.014 93.8451 181.77 94.3659 181.438 94.8086C181.112 95.2448 180.699 95.5866 180.197 95.834C179.696 96.0749 179.104 96.1953 178.42 96.1953C177.899 96.1953 177.424 96.1237 176.994 95.9805C176.564 95.8307 176.193 95.5996 175.881 95.2871C175.575 94.9681 175.337 94.5612 175.168 94.0664C174.999 93.5651 174.914 92.9629 174.914 92.2598V85.4336H177.492V92.2793C177.492 92.6309 177.531 92.9238 177.609 93.1582C177.694 93.3926 177.808 93.5846 177.951 93.7344C178.101 93.8776 178.273 93.9818 178.469 94.0469C178.671 94.1055 178.885 94.1348 179.113 94.1348C179.738 94.1348 180.23 94.0111 180.588 93.7637C180.952 93.5098 181.213 93.1712 181.369 92.748C181.525 92.3184 181.604 91.8366 181.604 91.3027ZM191.965 93.1094C191.965 92.888 191.906 92.6895 191.789 92.5137C191.672 92.3379 191.451 92.1784 191.125 92.0352C190.806 91.8854 190.337 91.7454 189.719 91.6152C189.172 91.498 188.667 91.3516 188.205 91.1758C187.743 91 187.346 90.7884 187.014 90.541C186.682 90.2871 186.421 89.9909 186.232 89.6523C186.05 89.3073 185.959 88.9102 185.959 88.4609C185.959 88.0247 186.053 87.6146 186.242 87.2305C186.431 86.8398 186.704 86.498 187.062 86.2051C187.421 85.9056 187.857 85.6712 188.371 85.502C188.885 85.3262 189.465 85.2383 190.109 85.2383C191.008 85.2383 191.779 85.3848 192.424 85.6777C193.075 85.9707 193.573 86.3743 193.918 86.8887C194.263 87.3965 194.436 87.9694 194.436 88.6074H191.857C191.857 88.3275 191.792 88.0736 191.662 87.8457C191.538 87.6178 191.346 87.4355 191.086 87.2988C190.826 87.1556 190.497 87.084 190.1 87.084C189.742 87.084 189.439 87.1426 189.191 87.2598C188.951 87.377 188.768 87.5299 188.645 87.7188C188.521 87.9076 188.459 88.1159 188.459 88.3438C188.459 88.513 188.492 88.666 188.557 88.8027C188.628 88.9329 188.742 89.0534 188.898 89.1641C189.055 89.2747 189.266 89.3757 189.533 89.4668C189.807 89.5579 190.142 89.6458 190.539 89.7305C191.327 89.8867 192.014 90.0951 192.6 90.3555C193.192 90.6094 193.654 90.9479 193.986 91.3711C194.318 91.7943 194.484 92.3346 194.484 92.9922C194.484 93.4609 194.383 93.8906 194.182 94.2812C193.98 94.6654 193.687 95.0007 193.303 95.2871C192.919 95.5736 192.46 95.7982 191.926 95.9609C191.392 96.1172 190.79 96.1953 190.119 96.1953C189.149 96.1953 188.329 96.0228 187.658 95.6777C186.988 95.3262 186.48 94.8835 186.135 94.3496C185.79 93.8092 185.617 93.2493 185.617 92.6699H188.088C188.107 93.0801 188.218 93.4089 188.42 93.6562C188.622 93.9036 188.876 94.0827 189.182 94.1934C189.494 94.2975 189.823 94.3496 190.168 94.3496C190.559 94.3496 190.887 94.2975 191.154 94.1934C191.421 94.0827 191.623 93.9362 191.76 93.7539C191.896 93.5651 191.965 93.3503 191.965 93.1094ZM196.506 94.7402C196.506 94.3496 196.639 94.0208 196.906 93.7539C197.173 93.487 197.535 93.3535 197.99 93.3535C198.446 93.3535 198.807 93.487 199.074 93.7539C199.341 94.0208 199.475 94.3496 199.475 94.7402C199.475 95.1243 199.341 95.4499 199.074 95.7168C198.807 95.9772 198.446 96.1074 197.99 96.1074C197.535 96.1074 197.173 95.9772 196.906 95.7168C196.639 95.4499 196.506 95.1243 196.506 94.7402ZM196.516 86.5469C196.516 86.1562 196.649 85.8275 196.916 85.5605C197.183 85.2936 197.544 85.1602 198 85.1602C198.456 85.1602 198.817 85.2936 199.084 85.5605C199.351 85.8275 199.484 86.1562 199.484 86.5469C199.484 86.931 199.351 87.2565 199.084 87.5234C198.817 87.7839 198.456 87.9141 198 87.9141C197.544 87.9141 197.183 87.7839 196.916 87.5234C196.649 87.2565 196.516 86.931 196.516 86.5469ZM207.072 81.7812H212.238C213.319 81.7812 214.247 81.944 215.021 82.2695C215.796 82.5951 216.392 83.0768 216.809 83.7148C217.225 84.3529 217.434 85.1374 217.434 86.0684C217.434 86.804 217.303 87.4421 217.043 87.9824C216.783 88.5228 216.415 88.9753 215.939 89.3398C215.471 89.7044 214.917 89.9909 214.279 90.1992L213.439 90.6289H208.879L208.859 88.5098H212.268C212.821 88.5098 213.28 88.4121 213.645 88.2168C214.009 88.0215 214.283 87.7513 214.465 87.4062C214.654 87.0612 214.748 86.6673 214.748 86.2246C214.748 85.7493 214.657 85.3392 214.475 84.9941C214.292 84.6426 214.016 84.3724 213.645 84.1836C213.273 83.9948 212.805 83.9004 212.238 83.9004H209.758V96H207.072V81.7812ZM215.1 96L211.809 89.6328L214.65 89.623L217.98 95.8633V96H215.1ZM229.211 93.8906V96H221.652V93.8906H229.211ZM222.473 81.7812V96H219.787V81.7812H222.473ZM228.225 87.6504V89.7109H221.652V87.6504H228.225ZM229.182 81.7812V83.9004H221.652V81.7812H229.182ZM236.73 83.9395L232.678 96H229.836L235.148 81.7812H236.965L236.73 83.9395ZM240.119 96L236.047 83.9395L235.803 81.7812H237.629L242.971 96H240.119ZM239.934 90.7168V92.8359H232.307V90.7168H239.934ZM248.684 96H245.617L245.637 93.8906H248.684C249.51 93.8906 250.204 93.7083 250.764 93.3438C251.324 92.9727 251.747 92.4421 252.033 91.752C252.32 91.0553 252.463 90.222 252.463 89.252V88.5195C252.463 87.7708 252.382 87.11 252.219 86.5371C252.056 85.9642 251.815 85.4824 251.496 85.0918C251.184 84.7012 250.796 84.4049 250.334 84.2031C249.872 84.0013 249.341 83.9004 248.742 83.9004H245.559V81.7812H248.742C249.693 81.7812 250.559 81.9408 251.34 82.2598C252.128 82.5788 252.808 83.0378 253.381 83.6367C253.96 84.2292 254.403 84.9388 254.709 85.7656C255.021 86.5924 255.178 87.5169 255.178 88.5391V89.252C255.178 90.2676 255.021 91.1921 254.709 92.0254C254.403 92.8522 253.96 93.5618 253.381 94.1543C252.808 94.7467 252.124 95.2025 251.33 95.5215C250.536 95.8405 249.654 96 248.684 96ZM247.121 81.7812V96H244.436V81.7812H247.121ZM258.693 81.7812L261.818 88.4121L264.963 81.7812H267.912L263.186 90.7949V96H260.461V90.7949L255.725 81.7812H258.693Z" fill="#00B35B"/>
<path d="M105.871 127.529V128.262C105.871 129.336 105.728 130.303 105.441 131.162C105.155 132.015 104.748 132.741 104.221 133.34C103.693 133.939 103.065 134.398 102.336 134.717C101.607 135.036 100.796 135.195 99.9043 135.195C99.0254 135.195 98.2181 135.036 97.4824 134.717C96.7533 134.398 96.1217 133.939 95.5879 133.34C95.054 132.741 94.6406 132.015 94.3477 131.162C94.0547 130.303 93.9082 129.336 93.9082 128.262V127.529C93.9082 126.449 94.0547 125.482 94.3477 124.629C94.6406 123.776 95.0508 123.05 95.5781 122.451C96.1055 121.846 96.7337 121.383 97.4629 121.064C98.1986 120.745 99.0059 120.586 99.8848 120.586C100.777 120.586 101.587 120.745 102.316 121.064C103.046 121.383 103.674 121.846 104.201 122.451C104.735 123.05 105.145 123.776 105.432 124.629C105.725 125.482 105.871 126.449 105.871 127.529ZM103.156 128.262V127.51C103.156 126.735 103.085 126.055 102.941 125.469C102.798 124.876 102.587 124.378 102.307 123.975C102.027 123.571 101.682 123.268 101.271 123.066C100.861 122.858 100.399 122.754 99.8848 122.754C99.3639 122.754 98.9017 122.858 98.498 123.066C98.1009 123.268 97.7624 123.571 97.4824 123.975C97.2025 124.378 96.9876 124.876 96.8379 125.469C96.6947 126.055 96.623 126.735 96.623 127.51V128.262C96.623 129.03 96.6947 129.71 96.8379 130.303C96.9876 130.895 97.2025 131.396 97.4824 131.807C97.7689 132.21 98.1139 132.516 98.5176 132.725C98.9212 132.933 99.3835 133.037 99.9043 133.037C100.425 133.037 100.887 132.933 101.291 132.725C101.695 132.516 102.033 132.21 102.307 131.807C102.587 131.396 102.798 130.895 102.941 130.303C103.085 129.71 103.156 129.03 103.156 128.262ZM110.529 126.465V139.062H107.941V124.434H110.334L110.529 126.465ZM117.316 129.609V129.814C117.316 130.583 117.225 131.296 117.043 131.953C116.867 132.604 116.607 133.174 116.262 133.662C115.917 134.144 115.487 134.521 114.973 134.795C114.465 135.062 113.879 135.195 113.215 135.195C112.564 135.195 111.997 135.072 111.516 134.824C111.034 134.57 110.627 134.212 110.295 133.75C109.963 133.288 109.696 132.751 109.494 132.139C109.299 131.52 109.152 130.846 109.055 130.117V129.463C109.152 128.688 109.299 127.985 109.494 127.354C109.696 126.715 109.963 126.165 110.295 125.703C110.627 125.234 111.031 124.873 111.506 124.619C111.988 124.365 112.551 124.238 113.195 124.238C113.866 124.238 114.455 124.365 114.963 124.619C115.477 124.873 115.91 125.238 116.262 125.713C116.613 126.188 116.877 126.755 117.053 127.412C117.229 128.07 117.316 128.802 117.316 129.609ZM114.729 129.814V129.609C114.729 129.141 114.686 128.708 114.602 128.311C114.517 127.907 114.387 127.555 114.211 127.256C114.035 126.95 113.807 126.712 113.527 126.543C113.247 126.374 112.909 126.289 112.512 126.289C112.115 126.289 111.773 126.354 111.486 126.484C111.2 126.615 110.965 126.8 110.783 127.041C110.601 127.282 110.458 127.568 110.354 127.9C110.256 128.226 110.191 128.587 110.158 128.984V130.605C110.217 131.087 110.331 131.52 110.5 131.904C110.669 132.288 110.917 132.594 111.242 132.822C111.574 133.05 112.004 133.164 112.531 133.164C112.928 133.164 113.267 133.076 113.547 132.9C113.827 132.725 114.055 132.484 114.23 132.178C114.406 131.865 114.533 131.507 114.611 131.104C114.689 130.7 114.729 130.27 114.729 129.814ZM118.742 129.824V129.619C118.742 128.844 118.853 128.132 119.074 127.48C119.296 126.823 119.618 126.253 120.041 125.771C120.464 125.29 120.982 124.915 121.594 124.648C122.206 124.375 122.902 124.238 123.684 124.238C124.478 124.238 125.181 124.375 125.793 124.648C126.411 124.915 126.932 125.29 127.355 125.771C127.779 126.253 128.101 126.823 128.322 127.48C128.544 128.132 128.654 128.844 128.654 129.619V129.824C128.654 130.592 128.544 131.305 128.322 131.963C128.101 132.614 127.779 133.184 127.355 133.672C126.932 134.154 126.415 134.528 125.803 134.795C125.191 135.062 124.491 135.195 123.703 135.195C122.922 135.195 122.222 135.062 121.604 134.795C120.985 134.528 120.464 134.154 120.041 133.672C119.618 133.184 119.296 132.614 119.074 131.963C118.853 131.305 118.742 130.592 118.742 129.824ZM121.32 129.619V129.824C121.32 130.286 121.366 130.719 121.457 131.123C121.548 131.527 121.688 131.882 121.877 132.188C122.066 132.493 122.31 132.734 122.609 132.91C122.915 133.079 123.28 133.164 123.703 133.164C124.12 133.164 124.478 133.079 124.777 132.91C125.077 132.734 125.321 132.493 125.51 132.188C125.705 131.882 125.848 131.527 125.939 131.123C126.031 130.719 126.076 130.286 126.076 129.824V129.619C126.076 129.163 126.031 128.737 125.939 128.34C125.848 127.936 125.705 127.581 125.51 127.275C125.321 126.963 125.074 126.719 124.768 126.543C124.468 126.361 124.107 126.27 123.684 126.27C123.267 126.27 122.909 126.361 122.609 126.543C122.31 126.719 122.066 126.963 121.877 127.275C121.688 127.581 121.548 127.936 121.457 128.34C121.366 128.737 121.32 129.163 121.32 129.619ZM133.059 126.689V135H130.48V124.434H132.902L133.059 126.689ZM132.648 129.336H131.887C131.893 128.568 131.997 127.871 132.199 127.246C132.401 126.621 132.684 126.084 133.049 125.635C133.42 125.186 133.859 124.84 134.367 124.6C134.875 124.359 135.441 124.238 136.066 124.238C136.574 124.238 137.033 124.31 137.443 124.453C137.854 124.596 138.205 124.824 138.498 125.137C138.798 125.449 139.025 125.859 139.182 126.367C139.344 126.868 139.426 127.487 139.426 128.223V135H136.828V128.203C136.828 127.721 136.757 127.34 136.613 127.061C136.477 126.781 136.275 126.582 136.008 126.465C135.747 126.348 135.425 126.289 135.041 126.289C134.644 126.289 134.296 126.37 133.996 126.533C133.703 126.689 133.456 126.908 133.254 127.188C133.059 127.467 132.909 127.79 132.805 128.154C132.701 128.519 132.648 128.913 132.648 129.336ZM146.447 135.195C145.646 135.195 144.927 135.065 144.289 134.805C143.651 134.544 143.107 134.183 142.658 133.721C142.215 133.252 141.874 132.708 141.633 132.09C141.398 131.465 141.281 130.794 141.281 130.078V129.688C141.281 128.874 141.398 128.135 141.633 127.471C141.867 126.8 142.199 126.224 142.629 125.742C143.059 125.26 143.573 124.889 144.172 124.629C144.771 124.368 145.432 124.238 146.154 124.238C146.903 124.238 147.564 124.365 148.137 124.619C148.71 124.867 149.188 125.218 149.572 125.674C149.956 126.13 150.246 126.676 150.441 127.314C150.637 127.946 150.734 128.646 150.734 129.414V130.498H142.453V128.721H148.195V128.525C148.182 128.115 148.104 127.741 147.961 127.402C147.818 127.057 147.596 126.784 147.297 126.582C146.997 126.374 146.61 126.27 146.135 126.27C145.751 126.27 145.415 126.354 145.129 126.523C144.849 126.686 144.615 126.921 144.426 127.227C144.243 127.526 144.107 127.884 144.016 128.301C143.924 128.717 143.879 129.18 143.879 129.688V130.078C143.879 130.521 143.938 130.931 144.055 131.309C144.178 131.686 144.357 132.015 144.592 132.295C144.833 132.568 145.119 132.783 145.451 132.939C145.79 133.089 146.174 133.164 146.604 133.164C147.144 133.164 147.632 133.06 148.068 132.852C148.511 132.637 148.895 132.321 149.221 131.904L150.52 133.252C150.298 133.577 149.999 133.89 149.621 134.189C149.25 134.489 148.801 134.733 148.273 134.922C147.746 135.104 147.137 135.195 146.447 135.195ZM154.992 126.689V135H152.414V124.434H154.836L154.992 126.689ZM154.582 129.336H153.82C153.827 128.568 153.931 127.871 154.133 127.246C154.335 126.621 154.618 126.084 154.982 125.635C155.354 125.186 155.793 124.84 156.301 124.6C156.809 124.359 157.375 124.238 158 124.238C158.508 124.238 158.967 124.31 159.377 124.453C159.787 124.596 160.139 124.824 160.432 125.137C160.731 125.449 160.959 125.859 161.115 126.367C161.278 126.868 161.359 127.487 161.359 128.223V135H158.762V128.203C158.762 127.721 158.69 127.34 158.547 127.061C158.41 126.781 158.208 126.582 157.941 126.465C157.681 126.348 157.359 126.289 156.975 126.289C156.577 126.289 156.229 126.37 155.93 126.533C155.637 126.689 155.389 126.908 155.188 127.188C154.992 127.467 154.842 127.79 154.738 128.154C154.634 128.519 154.582 128.913 154.582 129.336ZM168.635 124.434V126.289H162.58V124.434H168.635ZM164.201 121.836H166.789V131.953C166.789 132.266 166.831 132.507 166.916 132.676C167.001 132.845 167.128 132.959 167.297 133.018C167.466 133.076 167.668 133.105 167.902 133.105C168.072 133.105 168.228 133.096 168.371 133.076C168.514 133.057 168.635 133.037 168.732 133.018L168.742 134.951C168.527 135.023 168.283 135.081 168.01 135.127C167.743 135.173 167.44 135.195 167.102 135.195C166.522 135.195 166.014 135.098 165.578 134.902C165.142 134.701 164.803 134.378 164.562 133.936C164.322 133.486 164.201 132.894 164.201 132.158V121.836ZM181.145 132.109C181.145 131.888 181.086 131.689 180.969 131.514C180.852 131.338 180.63 131.178 180.305 131.035C179.986 130.885 179.517 130.745 178.898 130.615C178.352 130.498 177.847 130.352 177.385 130.176C176.923 130 176.525 129.788 176.193 129.541C175.861 129.287 175.601 128.991 175.412 128.652C175.23 128.307 175.139 127.91 175.139 127.461C175.139 127.025 175.233 126.615 175.422 126.23C175.611 125.84 175.884 125.498 176.242 125.205C176.6 124.906 177.036 124.671 177.551 124.502C178.065 124.326 178.645 124.238 179.289 124.238C180.188 124.238 180.959 124.385 181.604 124.678C182.255 124.971 182.753 125.374 183.098 125.889C183.443 126.396 183.615 126.969 183.615 127.607H181.037C181.037 127.327 180.972 127.074 180.842 126.846C180.718 126.618 180.526 126.436 180.266 126.299C180.005 126.156 179.676 126.084 179.279 126.084C178.921 126.084 178.618 126.143 178.371 126.26C178.13 126.377 177.948 126.53 177.824 126.719C177.701 126.908 177.639 127.116 177.639 127.344C177.639 127.513 177.671 127.666 177.736 127.803C177.808 127.933 177.922 128.053 178.078 128.164C178.234 128.275 178.446 128.376 178.713 128.467C178.986 128.558 179.322 128.646 179.719 128.73C180.507 128.887 181.193 129.095 181.779 129.355C182.372 129.609 182.834 129.948 183.166 130.371C183.498 130.794 183.664 131.335 183.664 131.992C183.664 132.461 183.563 132.891 183.361 133.281C183.16 133.665 182.867 134.001 182.482 134.287C182.098 134.574 181.639 134.798 181.105 134.961C180.572 135.117 179.969 135.195 179.299 135.195C178.329 135.195 177.508 135.023 176.838 134.678C176.167 134.326 175.66 133.883 175.314 133.35C174.969 132.809 174.797 132.249 174.797 131.67H177.268C177.287 132.08 177.398 132.409 177.6 132.656C177.801 132.904 178.055 133.083 178.361 133.193C178.674 133.298 179.003 133.35 179.348 133.35C179.738 133.35 180.067 133.298 180.334 133.193C180.601 133.083 180.803 132.936 180.939 132.754C181.076 132.565 181.145 132.35 181.145 132.109ZM190.627 124.434V126.289H184.572V124.434H190.627ZM186.193 121.836H188.781V131.953C188.781 132.266 188.824 132.507 188.908 132.676C188.993 132.845 189.12 132.959 189.289 133.018C189.458 133.076 189.66 133.105 189.895 133.105C190.064 133.105 190.22 133.096 190.363 133.076C190.507 133.057 190.627 133.037 190.725 133.018L190.734 134.951C190.52 135.023 190.275 135.081 190.002 135.127C189.735 135.173 189.432 135.195 189.094 135.195C188.514 135.195 188.007 135.098 187.57 134.902C187.134 134.701 186.796 134.378 186.555 133.936C186.314 133.486 186.193 132.894 186.193 132.158V121.836ZM198.166 132.754V127.881C198.166 127.523 198.104 127.214 197.98 126.953C197.857 126.693 197.668 126.491 197.414 126.348C197.16 126.204 196.838 126.133 196.447 126.133C196.102 126.133 195.799 126.191 195.539 126.309C195.285 126.426 195.09 126.592 194.953 126.807C194.816 127.015 194.748 127.256 194.748 127.529H192.16C192.16 127.093 192.264 126.68 192.473 126.289C192.681 125.892 192.977 125.54 193.361 125.234C193.752 124.922 194.217 124.678 194.758 124.502C195.305 124.326 195.917 124.238 196.594 124.238C197.395 124.238 198.107 124.375 198.732 124.648C199.364 124.915 199.859 125.319 200.217 125.859C200.581 126.4 200.764 127.08 200.764 127.9V132.51C200.764 133.037 200.796 133.49 200.861 133.867C200.933 134.238 201.037 134.561 201.174 134.834V135H198.547C198.423 134.733 198.329 134.395 198.264 133.984C198.199 133.568 198.166 133.158 198.166 132.754ZM198.527 128.564L198.547 130.098H196.916C196.512 130.098 196.158 130.14 195.852 130.225C195.546 130.303 195.295 130.42 195.1 130.576C194.904 130.726 194.758 130.908 194.66 131.123C194.562 131.331 194.514 131.569 194.514 131.836C194.514 132.096 194.572 132.331 194.689 132.539C194.813 132.747 194.989 132.913 195.217 133.037C195.451 133.154 195.725 133.213 196.037 133.213C196.493 133.213 196.89 133.122 197.229 132.939C197.567 132.751 197.831 132.523 198.02 132.256C198.208 131.989 198.309 131.735 198.322 131.494L199.064 132.607C198.973 132.874 198.837 133.158 198.654 133.457C198.472 133.757 198.238 134.036 197.951 134.297C197.665 134.557 197.32 134.772 196.916 134.941C196.512 135.111 196.044 135.195 195.51 135.195C194.826 135.195 194.214 135.059 193.674 134.785C193.133 134.512 192.707 134.137 192.395 133.662C192.082 133.187 191.926 132.646 191.926 132.041C191.926 131.481 192.03 130.986 192.238 130.557C192.447 130.127 192.756 129.766 193.166 129.473C193.576 129.173 194.084 128.949 194.689 128.799C195.301 128.643 196.001 128.564 196.789 128.564H198.527ZM208.088 124.434V126.289H202.033V124.434H208.088ZM203.654 121.836H206.242V131.953C206.242 132.266 206.285 132.507 206.369 132.676C206.454 132.845 206.581 132.959 206.75 133.018C206.919 133.076 207.121 133.105 207.355 133.105C207.525 133.105 207.681 133.096 207.824 133.076C207.967 133.057 208.088 133.037 208.186 133.018L208.195 134.951C207.98 135.023 207.736 135.081 207.463 135.127C207.196 135.173 206.893 135.195 206.555 135.195C205.975 135.195 205.467 135.098 205.031 134.902C204.595 134.701 204.257 134.378 204.016 133.936C203.775 133.486 203.654 132.894 203.654 132.158V121.836ZM216.096 132.49V124.434H218.693V135H216.252L216.096 132.49ZM216.428 130.303L217.229 130.283C217.229 130.993 217.15 131.647 216.994 132.246C216.838 132.845 216.594 133.366 216.262 133.809C215.936 134.245 215.523 134.587 215.021 134.834C214.52 135.075 213.928 135.195 213.244 135.195C212.723 135.195 212.248 135.124 211.818 134.98C211.389 134.831 211.018 134.6 210.705 134.287C210.399 133.968 210.161 133.561 209.992 133.066C209.823 132.565 209.738 131.963 209.738 131.26V124.434H212.316V131.279C212.316 131.631 212.355 131.924 212.434 132.158C212.518 132.393 212.632 132.585 212.775 132.734C212.925 132.878 213.098 132.982 213.293 133.047C213.495 133.105 213.71 133.135 213.938 133.135C214.562 133.135 215.054 133.011 215.412 132.764C215.777 132.51 216.037 132.171 216.193 131.748C216.35 131.318 216.428 130.837 216.428 130.303ZM226.789 132.109C226.789 131.888 226.73 131.689 226.613 131.514C226.496 131.338 226.275 131.178 225.949 131.035C225.63 130.885 225.161 130.745 224.543 130.615C223.996 130.498 223.492 130.352 223.029 130.176C222.567 130 222.17 129.788 221.838 129.541C221.506 129.287 221.245 128.991 221.057 128.652C220.874 128.307 220.783 127.91 220.783 127.461C220.783 127.025 220.878 126.615 221.066 126.23C221.255 125.84 221.529 125.498 221.887 125.205C222.245 124.906 222.681 124.671 223.195 124.502C223.71 124.326 224.289 124.238 224.934 124.238C225.832 124.238 226.604 124.385 227.248 124.678C227.899 124.971 228.397 125.374 228.742 125.889C229.087 126.396 229.26 126.969 229.26 127.607H226.682C226.682 127.327 226.617 127.074 226.486 126.846C226.363 126.618 226.171 126.436 225.91 126.299C225.65 126.156 225.321 126.084 224.924 126.084C224.566 126.084 224.263 126.143 224.016 126.26C223.775 126.377 223.592 126.53 223.469 126.719C223.345 126.908 223.283 127.116 223.283 127.344C223.283 127.513 223.316 127.666 223.381 127.803C223.452 127.933 223.566 128.053 223.723 128.164C223.879 128.275 224.09 128.376 224.357 128.467C224.631 128.558 224.966 128.646 225.363 128.73C226.151 128.887 226.838 129.095 227.424 129.355C228.016 129.609 228.479 129.948 228.811 130.371C229.143 130.794 229.309 131.335 229.309 131.992C229.309 132.461 229.208 132.891 229.006 133.281C228.804 133.665 228.511 134.001 228.127 134.287C227.743 134.574 227.284 134.798 226.75 134.961C226.216 135.117 225.614 135.195 224.943 135.195C223.973 135.195 223.153 135.023 222.482 134.678C221.812 134.326 221.304 133.883 220.959 133.35C220.614 132.809 220.441 132.249 220.441 131.67H222.912C222.932 132.08 223.042 132.409 223.244 132.656C223.446 132.904 223.7 133.083 224.006 133.193C224.318 133.298 224.647 133.35 224.992 133.35C225.383 133.35 225.712 133.298 225.979 133.193C226.245 133.083 226.447 132.936 226.584 132.754C226.721 132.565 226.789 132.35 226.789 132.109ZM231.33 133.74C231.33 133.35 231.464 133.021 231.73 132.754C231.997 132.487 232.359 132.354 232.814 132.354C233.27 132.354 233.632 132.487 233.898 132.754C234.165 133.021 234.299 133.35 234.299 133.74C234.299 134.124 234.165 134.45 233.898 134.717C233.632 134.977 233.27 135.107 232.814 135.107C232.359 135.107 231.997 134.977 231.73 134.717C231.464 134.45 231.33 134.124 231.33 133.74ZM231.34 125.547C231.34 125.156 231.473 124.827 231.74 124.561C232.007 124.294 232.368 124.16 232.824 124.16C233.28 124.16 233.641 124.294 233.908 124.561C234.175 124.827 234.309 125.156 234.309 125.547C234.309 125.931 234.175 126.257 233.908 126.523C233.641 126.784 233.28 126.914 232.824 126.914C232.368 126.914 232.007 126.784 231.74 126.523C231.473 126.257 231.34 125.931 231.34 125.547ZM241.896 120.781H247.062C248.143 120.781 249.071 120.944 249.846 121.27C250.62 121.595 251.216 122.077 251.633 122.715C252.049 123.353 252.258 124.137 252.258 125.068C252.258 125.804 252.128 126.442 251.867 126.982C251.607 127.523 251.239 127.975 250.764 128.34C250.295 128.704 249.742 128.991 249.104 129.199L248.264 129.629H243.703L243.684 127.51H247.092C247.645 127.51 248.104 127.412 248.469 127.217C248.833 127.021 249.107 126.751 249.289 126.406C249.478 126.061 249.572 125.667 249.572 125.225C249.572 124.749 249.481 124.339 249.299 123.994C249.117 123.643 248.84 123.372 248.469 123.184C248.098 122.995 247.629 122.9 247.062 122.9H244.582V135H241.896V120.781ZM249.924 135L246.633 128.633L249.475 128.623L252.805 134.863V135H249.924ZM264.035 132.891V135H256.477V132.891H264.035ZM257.297 120.781V135H254.611V120.781H257.297ZM263.049 126.65V128.711H256.477V126.65H263.049ZM264.006 120.781V122.9H256.477V120.781H264.006ZM271.555 122.939L267.502 135H264.66L269.973 120.781H271.789L271.555 122.939ZM274.943 135L270.871 122.939L270.627 120.781H272.453L277.795 135H274.943ZM274.758 129.717V131.836H267.131V129.717H274.758ZM283.508 135H280.441L280.461 132.891H283.508C284.335 132.891 285.028 132.708 285.588 132.344C286.148 131.973 286.571 131.442 286.857 130.752C287.144 130.055 287.287 129.222 287.287 128.252V127.52C287.287 126.771 287.206 126.11 287.043 125.537C286.88 124.964 286.639 124.482 286.32 124.092C286.008 123.701 285.62 123.405 285.158 123.203C284.696 123.001 284.165 122.9 283.566 122.9H280.383V120.781H283.566C284.517 120.781 285.383 120.941 286.164 121.26C286.952 121.579 287.632 122.038 288.205 122.637C288.785 123.229 289.227 123.939 289.533 124.766C289.846 125.592 290.002 126.517 290.002 127.539V128.252C290.002 129.268 289.846 130.192 289.533 131.025C289.227 131.852 288.785 132.562 288.205 133.154C287.632 133.747 286.949 134.202 286.154 134.521C285.36 134.84 284.478 135 283.508 135ZM281.945 120.781V135H279.26V120.781H281.945ZM293.518 120.781L296.643 127.412L299.787 120.781H302.736L298.01 129.795V135H295.285V129.795L290.549 120.781H293.518Z" fill="#00B45C"/>
</svg>
