<svg width="441" height="222" viewBox="0 0 441 222" fill="none" xmlns="http://www.w3.org/2000/svg">
<path d="M416 0H25C11.1929 0 0 11.1929 0 25V197C0 210.807 11.1929 222 25 222H416C429.807 222 441 210.807 441 197V25C441 11.1929 429.807 0 416 0Z" fill="#010D26"/>
<path d="M289 90H153C147.477 90 143 94.4772 143 100V121C143 126.523 147.477 131 153 131H289C294.523 131 299 126.523 299 121V100C299 94.4772 294.523 90 289 90Z" fill="#010D26"/>
<path d="M289 91H153C148.029 91 144 95.0294 144 100V121C144 125.971 148.029 130 153 130H289C293.971 130 298 125.971 298 121V100C298 95.0294 293.971 91 289 91Z" stroke="#FFD21E" stroke-width="2"/>
<path d="M197.1 118V104H202.56C203.787 104 204.833 104.193 205.7 104.58C206.567 104.967 207.233 105.527 207.7 106.26C208.167 106.993 208.4 107.867 208.4 108.88C208.4 109.893 208.167 110.767 207.7 111.5C207.233 112.22 206.567 112.773 205.7 113.16C204.833 113.547 203.787 113.74 202.56 113.74H198.2L199.1 112.82V118H197.1ZM206.46 118L202.9 112.92H205.04L208.64 118H206.46ZM199.1 113.02L198.2 112.04H202.5C203.78 112.04 204.747 111.767 205.4 111.22C206.067 110.66 206.4 109.88 206.4 108.88C206.4 107.88 206.067 107.107 205.4 106.56C204.747 106.013 203.78 105.74 202.5 105.74H198.2L199.1 104.74V113.02ZM216.071 118.12C214.938 118.12 213.938 117.887 213.071 117.42C212.218 116.953 211.551 116.313 211.071 115.5C210.605 114.687 210.371 113.753 210.371 112.7C210.371 111.647 210.598 110.713 211.051 109.9C211.518 109.087 212.151 108.453 212.951 108C213.765 107.533 214.678 107.3 215.691 107.3C216.718 107.3 217.625 107.527 218.411 107.98C219.198 108.433 219.811 109.073 220.251 109.9C220.705 110.713 220.931 111.667 220.931 112.76C220.931 112.84 220.925 112.933 220.911 113.04C220.911 113.147 220.905 113.247 220.891 113.34H211.871V111.96H219.891L219.111 112.44C219.125 111.76 218.985 111.153 218.691 110.62C218.398 110.087 217.991 109.673 217.471 109.38C216.965 109.073 216.371 108.92 215.691 108.92C215.025 108.92 214.431 109.073 213.911 109.38C213.391 109.673 212.985 110.093 212.691 110.64C212.398 111.173 212.251 111.787 212.251 112.48V112.8C212.251 113.507 212.411 114.14 212.731 114.7C213.065 115.247 213.525 115.673 214.111 115.98C214.698 116.287 215.371 116.44 216.131 116.44C216.758 116.44 217.325 116.333 217.831 116.12C218.351 115.907 218.805 115.587 219.191 115.16L220.251 116.4C219.771 116.96 219.171 117.387 218.451 117.68C217.745 117.973 216.951 118.12 216.071 118.12ZM229.884 118V115.76L229.784 115.34V111.52C229.784 110.707 229.544 110.08 229.064 109.64C228.598 109.187 227.891 108.96 226.944 108.96C226.318 108.96 225.704 109.067 225.104 109.28C224.504 109.48 223.998 109.753 223.584 110.1L222.784 108.66C223.331 108.22 223.984 107.887 224.744 107.66C225.518 107.42 226.324 107.3 227.164 107.3C228.618 107.3 229.738 107.653 230.524 108.36C231.311 109.067 231.704 110.147 231.704 111.6V118H229.884ZM226.404 118.12C225.618 118.12 224.924 117.987 224.324 117.72C223.738 117.453 223.284 117.087 222.964 116.62C222.644 116.14 222.484 115.6 222.484 115C222.484 114.427 222.618 113.907 222.884 113.44C223.164 112.973 223.611 112.6 224.224 112.32C224.851 112.04 225.691 111.9 226.744 111.9H230.104V113.28H226.824C225.864 113.28 225.218 113.44 224.884 113.76C224.551 114.08 224.384 114.467 224.384 114.92C224.384 115.44 224.591 115.86 225.004 116.18C225.418 116.487 225.991 116.64 226.724 116.64C227.444 116.64 228.071 116.48 228.604 116.16C229.151 115.84 229.544 115.373 229.784 114.76L230.164 116.08C229.911 116.707 229.464 117.207 228.824 117.58C228.184 117.94 227.378 118.12 226.404 118.12ZM239.638 118.12C238.611 118.12 237.691 117.893 236.878 117.44C236.078 116.987 235.444 116.353 234.978 115.54C234.511 114.727 234.278 113.78 234.278 112.7C234.278 111.62 234.511 110.68 234.978 109.88C235.444 109.067 236.078 108.433 236.878 107.98C237.691 107.527 238.611 107.3 239.638 107.3C240.531 107.3 241.338 107.5 242.058 107.9C242.778 108.3 243.351 108.9 243.778 109.7C244.218 110.5 244.438 111.5 244.438 112.7C244.438 113.9 244.224 114.9 243.798 115.7C243.384 116.5 242.818 117.107 242.098 117.52C241.378 117.92 240.558 118.12 239.638 118.12ZM239.798 116.44C240.464 116.44 241.064 116.287 241.598 115.98C242.144 115.673 242.571 115.24 242.878 114.68C243.198 114.107 243.358 113.447 243.358 112.7C243.358 111.94 243.198 111.287 242.878 110.74C242.571 110.18 242.144 109.747 241.598 109.44C241.064 109.133 240.464 108.98 239.798 108.98C239.118 108.98 238.511 109.133 237.978 109.44C237.444 109.747 237.018 110.18 236.698 110.74C236.378 111.287 236.218 111.94 236.218 112.7C236.218 113.447 236.378 114.107 236.698 114.68C237.018 115.24 237.444 115.673 237.978 115.98C238.511 116.287 239.118 116.44 239.798 116.44ZM243.418 118V115.14L243.537 112.68L243.338 110.22V103.16H245.258V118H243.418ZM249.35 122C248.844 122 248.35 121.913 247.87 121.74C247.39 121.58 246.977 121.34 246.63 121.02L247.45 119.58C247.717 119.833 248.01 120.027 248.33 120.16C248.65 120.293 248.99 120.36 249.35 120.36C249.817 120.36 250.204 120.24 250.51 120C250.817 119.76 251.104 119.333 251.37 118.72L252.03 117.26L252.23 117.02L256.39 107.4H258.27L253.13 119.06C252.824 119.807 252.477 120.393 252.09 120.82C251.717 121.247 251.304 121.547 250.85 121.72C250.397 121.907 249.897 122 249.35 122ZM251.87 118.34L247.03 107.4H249.03L253.15 116.84L251.87 118.34Z" fill="#FFD21E"/>
<path d="M315 110.5C315 123.034 304.813 134.65 287.728 143.193C270.702 151.706 247.112 157 221 157C194.888 157 171.298 151.706 154.272 143.193C137.187 134.65 127 123.034 127 110.5C127 97.9661 137.187 86.3495 154.272 77.8069C171.298 69.2941 194.888 64 221 64C247.112 64 270.702 69.2941 287.728 77.8069C304.813 86.3495 315 97.9661 315 110.5Z" stroke="#D31424" stroke-width="2"/>
</svg>
