<svg width="441" height="222" viewBox="0 0 441 222" fill="none" xmlns="http://www.w3.org/2000/svg">
<path d="M416 0H25C11.1929 0 0 11.1929 0 25V197C0 210.807 11.1929 222 25 222H416C429.807 222 441 210.807 441 197V25C441 11.1929 429.807 0 416 0Z" fill="#010D26"/>
<path d="M416 1H25C11.7452 1 1 11.7452 1 25V197C1 210.255 11.7452 221 25 221H416C429.255 221 440 210.255 440 197V25C440 11.7452 429.255 1 416 1Z" stroke="#13B3F2" stroke-width="2"/>
<path d="M152.896 54V32.1818H161.504C163.152 32.1818 164.558 32.4766 165.723 33.0661C166.895 33.6484 167.786 34.4759 168.397 35.5483C169.015 36.6136 169.324 37.8672 169.324 39.3089C169.324 40.7578 169.011 42.0043 168.386 43.0483C167.761 44.0852 166.856 44.8807 165.67 45.4347C164.491 45.9886 163.063 46.2656 161.387 46.2656H155.624V42.5582H160.641C161.522 42.5582 162.254 42.4375 162.836 42.196C163.418 41.9545 163.852 41.5923 164.136 41.1094C164.427 40.6264 164.572 40.0263 164.572 39.3089C164.572 38.5845 164.427 37.9737 164.136 37.4766C163.852 36.9794 163.415 36.603 162.825 36.3473C162.243 36.0845 161.508 35.9531 160.62 35.9531H157.509V54H152.896ZM164.679 44.071L170.102 54H165.009L159.704 44.071H164.679ZM179.628 54.3196C177.974 54.3196 176.542 53.968 175.335 53.2649C174.135 52.5547 173.208 51.5675 172.555 50.3033C171.901 49.032 171.574 47.5582 171.574 45.8821C171.574 44.1918 171.901 42.7145 172.555 41.4503C173.208 40.179 174.135 39.1918 175.335 38.4886C176.542 37.7784 177.974 37.4233 179.628 37.4233C181.283 37.4233 182.711 37.7784 183.911 38.4886C185.118 39.1918 186.049 40.179 186.702 41.4503C187.356 42.7145 187.682 44.1918 187.682 45.8821C187.682 47.5582 187.356 49.032 186.702 50.3033C186.049 51.5675 185.118 52.5547 183.911 53.2649C182.711 53.968 181.283 54.3196 179.628 54.3196ZM179.65 50.804C180.403 50.804 181.031 50.5909 181.535 50.1648C182.04 49.7315 182.42 49.142 182.675 48.3963C182.938 47.6506 183.069 46.8018 183.069 45.8501C183.069 44.8984 182.938 44.0497 182.675 43.304C182.42 42.5582 182.04 41.9687 181.535 41.5355C181.031 41.1023 180.403 40.8857 179.65 40.8857C178.89 40.8857 178.251 41.1023 177.732 41.5355C177.221 41.9687 176.834 42.5582 176.571 43.304C176.315 44.0497 176.187 44.8984 176.187 45.8501C176.187 46.8018 176.315 47.6506 176.571 48.3963C176.834 49.142 177.221 49.7315 177.732 50.1648C178.251 50.5909 178.89 50.804 179.65 50.804ZM198.027 54.3196C196.372 54.3196 194.941 53.968 193.733 53.2649C192.533 52.5547 191.606 51.5675 190.953 50.3033C190.3 49.032 189.973 47.5582 189.973 45.8821C189.973 44.1918 190.3 42.7145 190.953 41.4503C191.606 40.179 192.533 39.1918 193.733 38.4886C194.941 37.7784 196.372 37.4233 198.027 37.4233C199.682 37.4233 201.109 37.7784 202.309 38.4886C203.517 39.1918 204.447 40.179 205.101 41.4503C205.754 42.7145 206.081 44.1918 206.081 45.8821C206.081 47.5582 205.754 49.032 205.101 50.3033C204.447 51.5675 203.517 52.5547 202.309 53.2649C201.109 53.968 199.682 54.3196 198.027 54.3196ZM198.048 50.804C198.801 50.804 199.43 50.5909 199.934 50.1648C200.438 49.7315 200.818 49.142 201.074 48.3963C201.336 47.6506 201.468 46.8018 201.468 45.8501C201.468 44.8984 201.336 44.0497 201.074 43.304C200.818 42.5582 200.438 41.9687 199.934 41.5355C199.43 41.1023 198.801 40.8857 198.048 40.8857C197.288 40.8857 196.649 41.1023 196.131 41.5355C195.619 41.9687 195.232 42.5582 194.969 43.304C194.714 44.0497 194.586 44.8984 194.586 45.8501C194.586 46.8018 194.714 47.6506 194.969 48.3963C195.232 49.142 195.619 49.7315 196.131 50.1648C196.649 50.5909 197.288 50.804 198.048 50.804ZM209.032 54V37.6364H213.357V40.5234H213.549C213.89 39.5646 214.458 38.8082 215.253 38.2543C216.049 37.7003 217.001 37.4233 218.108 37.4233C219.231 37.4233 220.186 37.7038 220.974 38.2649C221.763 38.8189 222.288 39.5717 222.551 40.5234H222.721C223.055 39.5859 223.659 38.8366 224.532 38.2756C225.413 37.7074 226.454 37.4233 227.654 37.4233C229.181 37.4233 230.42 37.9098 231.372 38.8828C232.331 39.8487 232.81 41.2195 232.81 42.995V54H228.282V43.8899C228.282 42.9808 228.041 42.299 227.558 41.8445C227.075 41.3899 226.471 41.1626 225.747 41.1626C224.923 41.1626 224.28 41.4254 223.819 41.951C223.357 42.4695 223.126 43.1548 223.126 44.0071V54H218.726V43.794C218.726 42.9915 218.496 42.3523 218.034 41.8764C217.579 41.4006 216.979 41.1626 216.233 41.1626C215.729 41.1626 215.275 41.2905 214.87 41.5462C214.472 41.7947 214.156 42.1463 213.922 42.6009C213.687 43.0483 213.57 43.5739 213.57 44.1776V54H209.032ZM248.892 54V57.4411H234.563V54H248.892ZM258.959 54L262.539 32.1818H265.948L262.368 54H258.959ZM249.19 48.5881L249.754 45.179H266.8L266.235 48.5881H249.19ZM251.289 54L254.868 32.1818H258.277L254.698 54H251.289ZM250.436 41.0028L251.012 37.5938H268.057L267.482 41.0028H250.436ZM270.132 54V50.6761L277.898 43.4851C278.559 42.8459 279.113 42.2706 279.56 41.7592C280.015 41.2479 280.359 40.7472 280.593 40.2571C280.828 39.7599 280.945 39.2237 280.945 38.6484C280.945 38.0092 280.799 37.4588 280.508 36.9972C280.217 36.5284 279.819 36.1697 279.315 35.9212C278.811 35.6655 278.239 35.5376 277.6 35.5376C276.932 35.5376 276.35 35.6726 275.853 35.9425C275.355 36.2124 274.972 36.5994 274.702 37.1037C274.432 37.608 274.297 38.2081 274.297 38.9041H269.919C269.919 37.4766 270.242 36.2372 270.888 35.1861C271.534 34.1349 272.44 33.3217 273.605 32.7464C274.77 32.1712 276.112 31.8835 277.632 31.8835C279.194 31.8835 280.554 32.1605 281.712 32.7145C282.877 33.2614 283.782 34.0213 284.429 34.9943C285.075 35.9673 285.398 37.0824 285.398 38.3395C285.398 39.1634 285.235 39.9766 284.908 40.7791C284.588 41.5817 284.017 42.473 283.193 43.4531C282.369 44.4261 281.208 45.5945 279.709 46.9581L276.524 50.0795V50.2287H285.686V54H270.132Z" fill="#83B33B"/>
<path d="M179 85H35C29.4772 85 25 89.4772 25 95V115C25 120.523 29.4772 125 35 125H179C184.523 125 189 120.523 189 115V95C189 89.4772 184.523 85 179 85Z" fill="#010D26"/>
<path d="M179 85.5H35C29.7533 85.5 25.5 89.7533 25.5 95V115C25.5 120.247 29.7533 124.5 35 124.5H179C184.247 124.5 188.5 120.247 188.5 115V95C188.5 89.7533 184.247 85.5 179 85.5Z" stroke="#13B3F2"/>
<path d="M79.0114 111V99.3636H86.8523V101.392H81.4716V104.165H86.4489V106.193H81.4716V108.972H86.875V111H79.0114ZM88.8082 99.3636H91.8423L95.0469 107.182H95.1832L98.3878 99.3636H101.422V111H99.0355V103.426H98.9389L95.9276 110.943H94.3026L91.2912 103.398H91.1946V111H88.8082V99.3636ZM103.449 111V99.3636H108.04C108.922 99.3636 109.674 99.5322 110.295 99.8693C110.917 100.203 111.39 100.667 111.716 101.261C112.045 101.852 112.21 102.534 112.21 103.307C112.21 104.08 112.044 104.761 111.71 105.352C111.377 105.943 110.894 106.403 110.261 106.733C109.633 107.062 108.871 107.227 107.977 107.227H105.051V105.256H107.58C108.053 105.256 108.443 105.174 108.75 105.011C109.061 104.845 109.292 104.616 109.443 104.324C109.598 104.028 109.676 103.689 109.676 103.307C109.676 102.92 109.598 102.583 109.443 102.295C109.292 102.004 109.061 101.778 108.75 101.619C108.439 101.456 108.045 101.375 107.568 101.375H105.909V111H103.449ZM113.365 101.392V99.3636H122.922V101.392H119.359V111H116.928V101.392H113.365ZM123.814 99.3636H126.57L129.223 104.375H129.337L131.99 99.3636H134.746L130.501 106.886V111H128.058V106.886L123.814 99.3636Z" fill="#13B3F2"/>
<path d="M400 85H256C250.477 85 246 89.4772 246 95V115C246 120.523 250.477 125 256 125H400C405.523 125 410 120.523 410 115V95C410 89.4772 405.523 85 400 85Z" fill="#010D26"/>
<path d="M400 85.5H256C250.753 85.5 246.5 89.7533 246.5 95V115C246.5 120.247 250.753 124.5 256 124.5H400C405.247 124.5 409.5 120.247 409.5 115V95C409.5 89.7533 405.247 85.5 400 85.5Z" stroke="#13B3F2"/>
<path d="M300.011 111V99.3636H307.852V101.392H302.472V104.165H307.449V106.193H302.472V108.972H307.875V111H300.011ZM309.808 99.3636H312.842L316.047 107.182H316.183L319.388 99.3636H322.422V111H320.036V103.426H319.939L316.928 110.943H315.303L312.291 103.398H312.195V111H309.808V99.3636ZM324.449 111V99.3636H329.04C329.922 99.3636 330.674 99.5322 331.295 99.8693C331.917 100.203 332.39 100.667 332.716 101.261C333.045 101.852 333.21 102.534 333.21 103.307C333.21 104.08 333.044 104.761 332.71 105.352C332.377 105.943 331.894 106.403 331.261 106.733C330.633 107.062 329.871 107.227 328.977 107.227H326.051V105.256H328.58C329.053 105.256 329.443 105.174 329.75 105.011C330.061 104.845 330.292 104.616 330.443 104.324C330.598 104.028 330.676 103.689 330.676 103.307C330.676 102.92 330.598 102.583 330.443 102.295C330.292 102.004 330.061 101.778 329.75 101.619C329.439 101.456 329.045 101.375 328.568 101.375H326.909V111H324.449ZM334.365 101.392V99.3636H343.922V101.392H340.359V111H337.928V101.392H334.365ZM344.814 99.3636H347.57L350.223 104.375H350.337L352.99 99.3636H355.746L351.501 106.886V111H349.058V106.886L344.814 99.3636Z" fill="#13B3F2"/>
<path d="M278 157H142C136.477 157 132 161.477 132 167V188C132 193.523 136.477 198 142 198H278C283.523 198 288 193.523 288 188V167C288 161.477 283.523 157 278 157Z" fill="#010D26"/>
<path d="M278 158H142C137.029 158 133 162.029 133 167V188C133 192.971 137.029 197 142 197H278C282.971 197 287 192.971 287 188V167C287 162.029 282.971 158 278 158Z" stroke="#FFD21E" stroke-width="2"/>
<path d="M167.9 185.16C167.073 185.16 166.3 184.987 165.58 184.64C164.86 184.293 164.273 183.793 163.82 183.14L164.98 181.78C165.367 182.313 165.8 182.727 166.28 183.02C166.773 183.3 167.313 183.44 167.9 183.44C169.5 183.44 170.3 182.493 170.3 180.6V172.74H165.24V171H172.28V180.5C172.28 182.06 171.907 183.227 171.16 184C170.427 184.773 169.34 185.16 167.9 185.16ZM180.614 185.12C179.547 185.12 178.601 184.887 177.774 184.42C176.947 183.953 176.294 183.313 175.814 182.5C175.334 181.673 175.094 180.74 175.094 179.7C175.094 178.647 175.334 177.713 175.814 176.9C176.294 176.087 176.947 175.453 177.774 175C178.601 174.533 179.547 174.3 180.614 174.3C181.667 174.3 182.607 174.533 183.434 175C184.274 175.453 184.927 176.087 185.394 176.9C185.874 177.7 186.114 178.633 186.114 179.7C186.114 180.753 185.874 181.687 185.394 182.5C184.927 183.313 184.274 183.953 183.434 184.42C182.607 184.887 181.667 185.12 180.614 185.12ZM180.614 183.44C181.294 183.44 181.901 183.287 182.434 182.98C182.981 182.673 183.407 182.24 183.714 181.68C184.021 181.107 184.174 180.447 184.174 179.7C184.174 178.94 184.021 178.287 183.714 177.74C183.407 177.18 182.981 176.747 182.434 176.44C181.901 176.133 181.294 175.98 180.614 175.98C179.934 175.98 179.327 176.133 178.794 176.44C178.261 176.747 177.834 177.18 177.514 177.74C177.194 178.287 177.034 178.94 177.034 179.7C177.034 180.447 177.194 181.107 177.514 181.68C177.834 182.24 178.261 182.673 178.794 182.98C179.327 183.287 179.934 183.44 180.614 183.44ZM188.769 185V174.4H190.689V185H188.769ZM189.729 172.36C189.356 172.36 189.043 172.24 188.789 172C188.549 171.76 188.429 171.467 188.429 171.12C188.429 170.76 188.549 170.46 188.789 170.22C189.043 169.98 189.356 169.86 189.729 169.86C190.103 169.86 190.409 169.98 190.649 170.22C190.903 170.447 191.029 170.733 191.029 171.08C191.029 171.44 190.909 171.747 190.669 172C190.429 172.24 190.116 172.36 189.729 172.36ZM200.015 174.3C200.882 174.3 201.642 174.467 202.295 174.8C202.962 175.133 203.482 175.64 203.855 176.32C204.228 177 204.415 177.86 204.415 178.9V185H202.495V179.12C202.495 178.093 202.242 177.32 201.735 176.8C201.242 176.28 200.542 176.02 199.635 176.02C198.955 176.02 198.362 176.153 197.855 176.42C197.348 176.687 196.955 177.08 196.675 177.6C196.408 178.12 196.275 178.767 196.275 179.54V185H194.355V174.4H196.195V177.26L195.895 176.5C196.242 175.807 196.775 175.267 197.495 174.88C198.215 174.493 199.055 174.3 200.015 174.3ZM213.34 185V174.4H215.18V177.28L215 176.56C215.293 175.827 215.786 175.267 216.48 174.88C217.173 174.493 218.026 174.3 219.04 174.3V176.16C218.96 176.147 218.88 176.14 218.8 176.14C218.733 176.14 218.666 176.14 218.6 176.14C217.573 176.14 216.76 176.447 216.16 177.06C215.56 177.673 215.26 178.56 215.26 179.72V185H213.34ZM225.848 185.12C224.782 185.12 223.835 184.887 223.008 184.42C222.182 183.953 221.528 183.313 221.048 182.5C220.568 181.673 220.328 180.74 220.328 179.7C220.328 178.647 220.568 177.713 221.048 176.9C221.528 176.087 222.182 175.453 223.008 175C223.835 174.533 224.782 174.3 225.848 174.3C226.902 174.3 227.842 174.533 228.668 175C229.508 175.453 230.162 176.087 230.628 176.9C231.108 177.7 231.348 178.633 231.348 179.7C231.348 180.753 231.108 181.687 230.628 182.5C230.162 183.313 229.508 183.953 228.668 184.42C227.842 184.887 226.902 185.12 225.848 185.12ZM225.848 183.44C226.528 183.44 227.135 183.287 227.668 182.98C228.215 182.673 228.642 182.24 228.948 181.68C229.255 181.107 229.408 180.447 229.408 179.7C229.408 178.94 229.255 178.287 228.948 177.74C228.642 177.18 228.215 176.747 227.668 176.44C227.135 176.133 226.528 175.98 225.848 175.98C225.168 175.98 224.562 176.133 224.028 176.44C223.495 176.747 223.068 177.18 222.748 177.74C222.428 178.287 222.268 178.94 222.268 179.7C222.268 180.447 222.428 181.107 222.748 181.68C223.068 182.24 223.495 182.673 224.028 182.98C224.562 183.287 225.168 183.44 225.848 183.44ZM238.544 185.12C237.477 185.12 236.53 184.887 235.704 184.42C234.877 183.953 234.224 183.313 233.744 182.5C233.264 181.673 233.024 180.74 233.024 179.7C233.024 178.647 233.264 177.713 233.744 176.9C234.224 176.087 234.877 175.453 235.704 175C236.53 174.533 237.477 174.3 238.544 174.3C239.597 174.3 240.537 174.533 241.364 175C242.204 175.453 242.857 176.087 243.324 176.9C243.804 177.7 244.044 178.633 244.044 179.7C244.044 180.753 243.804 181.687 243.324 182.5C242.857 183.313 242.204 183.953 241.364 184.42C240.537 184.887 239.597 185.12 238.544 185.12ZM238.544 183.44C239.224 183.44 239.83 183.287 240.364 182.98C240.91 182.673 241.337 182.24 241.644 181.68C241.95 181.107 242.104 180.447 242.104 179.7C242.104 178.94 241.95 178.287 241.644 177.74C241.337 177.18 240.91 176.747 240.364 176.44C239.83 176.133 239.224 175.98 238.544 175.98C237.864 175.98 237.257 176.133 236.724 176.44C236.19 176.747 235.764 177.18 235.444 177.74C235.124 178.287 234.964 178.94 234.964 179.7C234.964 180.447 235.124 181.107 235.444 181.68C235.764 182.24 236.19 182.673 236.724 182.98C237.257 183.287 237.864 183.44 238.544 183.44ZM259.959 174.3C260.812 174.3 261.566 174.467 262.219 174.8C262.872 175.133 263.379 175.64 263.739 176.32C264.112 177 264.299 177.86 264.299 178.9V185H262.379V179.12C262.379 178.093 262.139 177.32 261.659 176.8C261.179 176.28 260.506 176.02 259.639 176.02C258.999 176.02 258.439 176.153 257.959 176.42C257.479 176.687 257.106 177.08 256.839 177.6C256.586 178.12 256.459 178.767 256.459 179.54V185H254.539V179.12C254.539 178.093 254.299 177.32 253.819 176.8C253.352 176.28 252.679 176.02 251.799 176.02C251.172 176.02 250.619 176.153 250.139 176.42C249.659 176.687 249.286 177.08 249.019 177.6C248.752 178.12 248.619 178.767 248.619 179.54V185H246.699V174.4H248.539V177.22L248.239 176.5C248.572 175.807 249.086 175.267 249.779 174.88C250.472 174.493 251.279 174.3 252.199 174.3C253.212 174.3 254.086 174.553 254.819 175.06C255.552 175.553 256.032 176.307 256.259 177.32L255.479 177C255.799 176.187 256.359 175.533 257.159 175.04C257.959 174.547 258.892 174.3 259.959 174.3Z" fill="#FFD21E"/>
<path d="M44 94C41.8244 94 39.6977 94.6451 37.8887 95.8538C36.0798 97.0625 34.6699 98.7805 33.8373 100.79C33.0048 102.8 32.7869 105.012 33.2114 107.146C33.6358 109.28 34.6835 111.24 36.2218 112.778C37.7602 114.317 39.7202 115.364 41.854 115.789C43.9878 116.213 46.1995 115.995 48.2095 115.163C50.2195 114.33 51.9375 112.92 53.1462 111.111C54.3549 109.302 55 107.176 55 105C54.9916 102.085 53.8299 99.2922 51.7689 97.2312C49.7078 95.1701 46.9148 94.0084 44 94ZM35.2 105C35.2069 102.668 36.1362 100.434 37.785 98.785C39.4339 97.1362 41.6682 96.2069 44 96.2C45.9562 96.1973 47.8558 96.8564 49.39 98.07L37.07 110.39C35.8564 108.856 35.1973 106.956 35.2 105ZM44 113.8C42.0438 113.803 40.1442 113.144 38.61 111.93L50.93 99.61C52.1436 101.144 52.8027 103.044 52.8 105C52.7931 107.332 51.8638 109.566 50.215 111.215C48.5661 112.864 46.3318 113.793 44 113.8Z" fill="#D91424"/>
<path d="M436 106C436 110.382 433.259 114.727 427.905 118.83C422.565 122.921 414.775 126.649 405.059 129.797C385.639 136.091 358.748 140 329 140C299.252 140 272.361 136.091 252.941 129.797C243.225 126.649 235.435 122.921 230.095 118.83C224.741 114.727 222 110.382 222 106C222 101.618 224.741 97.2729 230.095 93.1702C235.435 89.0788 243.225 85.3511 252.941 82.2026C272.361 75.909 299.252 72 329 72C358.748 72 385.639 75.909 405.059 82.2026C414.775 85.3511 422.565 89.0788 427.905 93.1702C433.259 97.2729 436 101.618 436 106Z" stroke="#D31424" stroke-width="2"/>
<path d="M267 95C264.824 95 262.698 95.6451 260.889 96.8538C259.08 98.0625 257.67 99.7805 256.837 101.79C256.005 103.8 255.787 106.012 256.211 108.146C256.636 110.28 257.683 112.24 259.222 113.778C260.76 115.317 262.72 116.364 264.854 116.789C266.988 117.213 269.2 116.995 271.21 116.163C273.22 115.33 274.937 113.92 276.146 112.111C277.355 110.302 278 108.176 278 106C277.992 103.085 276.83 100.292 274.769 98.2312C272.708 96.1701 269.915 95.0084 267 95V95ZM258.2 106C258.207 103.668 259.136 101.434 260.785 99.785C262.434 98.1362 264.668 97.2069 267 97.2C268.956 97.1973 270.856 97.8564 272.39 99.07L260.07 111.39C258.856 109.856 258.197 107.956 258.2 106V106ZM267 114.8C265.044 114.803 263.144 114.144 261.61 112.93L273.93 100.61C275.144 102.144 275.803 104.044 275.8 106C275.793 108.332 274.864 110.566 273.215 112.215C271.566 113.864 269.332 114.793 267 114.8V114.8Z" fill="#D91424"/>
<path d="M215 106C215 110.382 212.259 114.727 206.905 118.83C201.565 122.921 193.775 126.649 184.059 129.797C164.639 136.091 137.748 140 108 140C78.2519 140 51.3607 136.091 31.9408 129.797C22.2252 126.649 14.4353 122.921 9.09537 118.83C3.7408 114.727 1 110.382 1 106C1 101.618 3.7408 97.2729 9.09537 93.1702C14.4353 89.0788 22.2252 85.3511 31.9408 82.2026C51.3607 75.909 78.2519 72 108 72C137.748 72 164.639 75.909 184.059 82.2026C193.775 85.3511 201.565 89.0788 206.905 93.1702C212.259 97.2729 215 101.618 215 106Z" stroke="#D31424" stroke-width="2"/>
</svg>
