<svg width="441" height="222" viewBox="0 0 441 222" fill="none" xmlns="http://www.w3.org/2000/svg">
<path d="M416 0H25C11.1929 0 0 11.1929 0 25V197C0 210.807 11.1929 222 25 222H416C429.807 222 441 210.807 441 197V25C441 11.1929 429.807 0 416 0Z" fill="#010D26"/>
<path d="M416 1H25C11.7452 1 1 11.7452 1 25V197C1 210.255 11.7452 221 25 221H416C429.255 221 440 210.255 440 197V25C440 11.7452 429.255 1 416 1Z" stroke="#13B3F2" stroke-width="2"/>
<path d="M152.896 54V32.1818H161.504C163.152 32.1818 164.558 32.4766 165.723 33.0661C166.895 33.6484 167.786 34.4759 168.397 35.5483C169.015 36.6136 169.324 37.8672 169.324 39.3089C169.324 40.7578 169.011 42.0043 168.386 43.0483C167.761 44.0852 166.856 44.8807 165.67 45.4347C164.491 45.9886 163.063 46.2656 161.387 46.2656H155.624V42.5582H160.641C161.522 42.5582 162.254 42.4375 162.836 42.196C163.418 41.9545 163.852 41.5923 164.136 41.1094C164.427 40.6264 164.572 40.0263 164.572 39.3089C164.572 38.5845 164.427 37.9737 164.136 37.4766C163.852 36.9794 163.415 36.603 162.825 36.3473C162.243 36.0845 161.508 35.9531 160.62 35.9531H157.509V54H152.896ZM164.679 44.071L170.102 54H165.009L159.704 44.071H164.679ZM179.628 54.3196C177.974 54.3196 176.542 53.968 175.335 53.2649C174.135 52.5547 173.208 51.5675 172.555 50.3033C171.901 49.032 171.574 47.5582 171.574 45.8821C171.574 44.1918 171.901 42.7145 172.555 41.4503C173.208 40.179 174.135 39.1918 175.335 38.4886C176.542 37.7784 177.974 37.4233 179.628 37.4233C181.283 37.4233 182.711 37.7784 183.911 38.4886C185.118 39.1918 186.049 40.179 186.702 41.4503C187.356 42.7145 187.682 44.1918 187.682 45.8821C187.682 47.5582 187.356 49.032 186.702 50.3033C186.049 51.5675 185.118 52.5547 183.911 53.2649C182.711 53.968 181.283 54.3196 179.628 54.3196ZM179.65 50.804C180.403 50.804 181.031 50.5909 181.535 50.1648C182.04 49.7315 182.42 49.142 182.675 48.3963C182.938 47.6506 183.069 46.8018 183.069 45.8501C183.069 44.8984 182.938 44.0497 182.675 43.304C182.42 42.5582 182.04 41.9687 181.535 41.5355C181.031 41.1023 180.403 40.8857 179.65 40.8857C178.89 40.8857 178.251 41.1023 177.732 41.5355C177.221 41.9687 176.834 42.5582 176.571 43.304C176.315 44.0497 176.187 44.8984 176.187 45.8501C176.187 46.8018 176.315 47.6506 176.571 48.3963C176.834 49.142 177.221 49.7315 177.732 50.1648C178.251 50.5909 178.89 50.804 179.65 50.804ZM198.027 54.3196C196.372 54.3196 194.941 53.968 193.733 53.2649C192.533 52.5547 191.606 51.5675 190.953 50.3033C190.3 49.032 189.973 47.5582 189.973 45.8821C189.973 44.1918 190.3 42.7145 190.953 41.4503C191.606 40.179 192.533 39.1918 193.733 38.4886C194.941 37.7784 196.372 37.4233 198.027 37.4233C199.682 37.4233 201.109 37.7784 202.309 38.4886C203.517 39.1918 204.447 40.179 205.101 41.4503C205.754 42.7145 206.081 44.1918 206.081 45.8821C206.081 47.5582 205.754 49.032 205.101 50.3033C204.447 51.5675 203.517 52.5547 202.309 53.2649C201.109 53.968 199.682 54.3196 198.027 54.3196ZM198.048 50.804C198.801 50.804 199.43 50.5909 199.934 50.1648C200.438 49.7315 200.818 49.142 201.074 48.3963C201.336 47.6506 201.468 46.8018 201.468 45.8501C201.468 44.8984 201.336 44.0497 201.074 43.304C200.818 42.5582 200.438 41.9687 199.934 41.5355C199.43 41.1023 198.801 40.8857 198.048 40.8857C197.288 40.8857 196.649 41.1023 196.131 41.5355C195.619 41.9687 195.232 42.5582 194.969 43.304C194.714 44.0497 194.586 44.8984 194.586 45.8501C194.586 46.8018 194.714 47.6506 194.969 48.3963C195.232 49.142 195.619 49.7315 196.131 50.1648C196.649 50.5909 197.288 50.804 198.048 50.804ZM209.032 54V37.6364H213.357V40.5234H213.549C213.89 39.5646 214.458 38.8082 215.253 38.2543C216.049 37.7003 217.001 37.4233 218.108 37.4233C219.231 37.4233 220.186 37.7038 220.974 38.2649C221.763 38.8189 222.288 39.5717 222.551 40.5234H222.721C223.055 39.5859 223.659 38.8366 224.532 38.2756C225.413 37.7074 226.454 37.4233 227.654 37.4233C229.181 37.4233 230.42 37.9098 231.372 38.8828C232.331 39.8487 232.81 41.2195 232.81 42.995V54H228.282V43.8899C228.282 42.9808 228.041 42.299 227.558 41.8445C227.075 41.3899 226.471 41.1626 225.747 41.1626C224.923 41.1626 224.28 41.4254 223.819 41.951C223.357 42.4695 223.126 43.1548 223.126 44.0071V54H218.726V43.794C218.726 42.9915 218.496 42.3523 218.034 41.8764C217.579 41.4006 216.979 41.1626 216.233 41.1626C215.729 41.1626 215.275 41.2905 214.87 41.5462C214.472 41.7947 214.156 42.1463 213.922 42.6009C213.687 43.0483 213.57 43.5739 213.57 44.1776V54H209.032ZM248.892 54V57.4411H234.563V54H248.892ZM258.959 54L262.539 32.1818H265.948L262.368 54H258.959ZM249.19 48.5881L249.754 45.179H266.8L266.235 48.5881H249.19ZM251.289 54L254.868 32.1818H258.277L254.698 54H251.289ZM250.436 41.0028L251.012 37.5938H268.057L267.482 41.0028H250.436ZM269.801 50.1648V46.532L278.91 32.1818H282.042V37.2102H280.189L274.446 46.2976V46.468H287.39V50.1648H269.801ZM280.274 54V49.0568L280.359 47.4482V32.1818H284.684V54H280.274Z" fill="#83B33B"/>
<path d="M179 85H35C29.4772 85 25 89.4772 25 95V115C25 120.523 29.4772 125 35 125H179C184.523 125 189 120.523 189 115V95C189 89.4772 184.523 85 179 85Z" fill="#010D26"/>
<path d="M179 85.5H35C29.7533 85.5 25.5 89.7533 25.5 95V115C25.5 120.247 29.7533 124.5 35 124.5H179C184.247 124.5 188.5 120.247 188.5 115V95C188.5 89.7533 184.247 85.5 179 85.5Z" stroke="#13B3F2"/>
<path d="M66.0114 110V98.3636H68.4716V103.494H68.625L72.8125 98.3636H75.7614L71.4432 103.574L75.8125 110H72.8693L69.6818 105.216L68.4716 106.693V110H66.0114ZM76.9972 110V101.273H79.3438V102.795H79.4347C79.5938 102.254 79.8608 101.845 80.2358 101.568C80.6108 101.288 81.0426 101.148 81.5312 101.148C81.6525 101.148 81.7831 101.155 81.9233 101.17C82.0634 101.186 82.1866 101.206 82.2926 101.233V103.381C82.179 103.347 82.0218 103.316 81.821 103.29C81.6203 103.263 81.4366 103.25 81.2699 103.25C80.9138 103.25 80.5956 103.328 80.3153 103.483C80.0388 103.634 79.8191 103.847 79.6562 104.119C79.4972 104.392 79.4176 104.706 79.4176 105.062V110H76.9972ZM83.4986 110V108.557L87.7713 103.267V103.205H83.6463V101.273H90.6861V102.847L86.6747 108.006V108.068H90.8338V110H83.4986ZM94.179 113.273C93.8722 113.273 93.5843 113.248 93.3153 113.199C93.0502 113.153 92.8305 113.095 92.6562 113.023L93.2017 111.216C93.4858 111.303 93.7415 111.35 93.9688 111.358C94.1998 111.366 94.3987 111.313 94.5653 111.199C94.7358 111.085 94.8741 110.892 94.9801 110.619L95.1222 110.25L91.9915 101.273H94.5369L96.3438 107.682H96.4347L98.2585 101.273H100.821L97.429 110.943C97.2661 111.413 97.0445 111.822 96.7642 112.17C96.4877 112.523 96.1373 112.794 95.7131 112.983C95.2888 113.176 94.7775 113.273 94.179 113.273ZM109.321 103.761L107.105 103.898C107.067 103.708 106.986 103.538 106.861 103.386C106.736 103.231 106.571 103.108 106.366 103.017C106.166 102.922 105.925 102.875 105.645 102.875C105.27 102.875 104.954 102.955 104.696 103.114C104.438 103.269 104.31 103.477 104.31 103.739C104.31 103.947 104.393 104.123 104.56 104.267C104.726 104.411 105.012 104.527 105.418 104.614L106.997 104.932C107.846 105.106 108.478 105.386 108.895 105.773C109.312 106.159 109.52 106.667 109.52 107.295C109.52 107.867 109.351 108.369 109.014 108.801C108.681 109.233 108.223 109.57 107.639 109.812C107.06 110.051 106.391 110.17 105.634 110.17C104.478 110.17 103.558 109.93 102.872 109.449C102.19 108.964 101.791 108.305 101.673 107.472L104.054 107.347C104.126 107.699 104.3 107.968 104.577 108.153C104.853 108.335 105.207 108.426 105.639 108.426C106.063 108.426 106.404 108.345 106.662 108.182C106.923 108.015 107.056 107.801 107.06 107.54C107.056 107.32 106.963 107.14 106.781 107C106.599 106.856 106.319 106.746 105.94 106.67L104.429 106.369C103.577 106.199 102.942 105.903 102.526 105.483C102.113 105.062 101.906 104.527 101.906 103.875C101.906 103.314 102.058 102.831 102.361 102.426C102.668 102.021 103.098 101.708 103.651 101.489C104.207 101.269 104.859 101.159 105.605 101.159C106.707 101.159 107.575 101.392 108.207 101.858C108.844 102.324 109.215 102.958 109.321 103.761ZM111.044 110V101.273H113.464V110H111.044ZM112.26 100.148C111.9 100.148 111.591 100.028 111.334 99.7898C111.08 99.5473 110.953 99.2576 110.953 98.9205C110.953 98.5871 111.08 98.3011 111.334 98.0625C111.591 97.8201 111.9 97.6989 112.26 97.6989C112.62 97.6989 112.927 97.8201 113.18 98.0625C113.438 98.3011 113.567 98.5871 113.567 98.9205C113.567 99.2576 113.438 99.5473 113.18 99.7898C112.927 100.028 112.62 100.148 112.26 100.148ZM119.381 110.17C118.483 110.17 117.71 109.989 117.062 109.625C116.419 109.258 115.922 108.739 115.574 108.068C115.225 107.394 115.051 106.597 115.051 105.676C115.051 104.778 115.225 103.991 115.574 103.312C115.922 102.634 116.413 102.106 117.045 101.727C117.682 101.348 118.428 101.159 119.284 101.159C119.86 101.159 120.396 101.252 120.892 101.438C121.392 101.619 121.828 101.894 122.199 102.261C122.574 102.629 122.866 103.091 123.074 103.648C123.282 104.201 123.386 104.848 123.386 105.591V106.256H116.017V104.756H121.108C121.108 104.407 121.032 104.098 120.881 103.83C120.729 103.561 120.519 103.35 120.25 103.199C119.985 103.044 119.676 102.966 119.324 102.966C118.956 102.966 118.631 103.051 118.347 103.222C118.066 103.388 117.847 103.614 117.688 103.898C117.528 104.178 117.447 104.491 117.443 104.835V106.261C117.443 106.693 117.523 107.066 117.682 107.381C117.845 107.695 118.074 107.938 118.369 108.108C118.665 108.278 119.015 108.364 119.42 108.364C119.689 108.364 119.936 108.326 120.159 108.25C120.383 108.174 120.574 108.061 120.733 107.909C120.892 107.758 121.013 107.572 121.097 107.352L123.335 107.5C123.222 108.038 122.989 108.508 122.636 108.909C122.288 109.307 121.837 109.617 121.284 109.841C120.735 110.061 120.1 110.17 119.381 110.17ZM127.159 107.489L127.165 104.585H127.517L130.312 101.273H133.091L129.335 105.659H128.761L127.159 107.489ZM124.966 110V98.3636H127.386V110H124.966ZM130.42 110L127.852 106.199L129.466 104.489L133.256 110H130.42Z" fill="#13B3F2"/>
<path d="M160 116C165.523 116 170 111.523 170 106C170 100.477 165.523 96 160 96C154.477 96 150 100.477 150 106C150 111.523 154.477 116 160 116Z" fill="#FF8C00"/>
<path d="M45.75 105.75C46.7142 105.75 47.6567 105.464 48.4584 104.928C49.2601 104.393 49.8849 103.631 50.2539 102.741C50.6229 101.85 50.7194 100.87 50.5313 99.9239C50.3432 98.9783 49.8789 98.1096 49.1971 97.4279C48.5154 96.7461 47.6467 96.2818 46.7011 96.0937C45.7554 95.9056 44.7752 96.0021 43.8844 96.3711C42.9936 96.7401 42.2323 97.3649 41.6966 98.1666C41.1609 98.9683 40.875 99.9108 40.875 100.875C40.8787 102.167 41.3935 103.405 42.3069 104.318C43.2204 105.232 44.4582 105.746 45.75 105.75V105.75ZM45.75 108.188C42.52 108.188 36 109.833 36 113.063V115.5H55.5V113.063C55.5 109.833 48.98 108.188 45.75 108.188Z" fill="#13B3F2"/>
<path d="M400 85H256C250.477 85 246 89.4772 246 95V115C246 120.523 250.477 125 256 125H400C405.523 125 410 120.523 410 115V95C410 89.4772 405.523 85 400 85Z" fill="#010D26"/>
<path d="M400 85.5H256C250.753 85.5 246.5 89.7533 246.5 95V115C246.5 120.247 250.753 124.5 256 124.5H400C405.247 124.5 409.5 120.247 409.5 115V95C409.5 89.7533 405.247 85.5 400 85.5Z" stroke="#13B3F2"/>
<path d="M301.011 111V99.3636H308.852V101.392H303.472V104.165H308.449V106.193H303.472V108.972H308.875V111H301.011ZM310.808 99.3636H313.842L317.047 107.182H317.183L320.388 99.3636H323.422V111H321.036V103.426H320.939L317.928 110.943H316.303L313.291 103.398H313.195V111H310.808V99.3636ZM325.449 111V99.3636H330.04C330.922 99.3636 331.674 99.5322 332.295 99.8693C332.917 100.203 333.39 100.667 333.716 101.261C334.045 101.852 334.21 102.534 334.21 103.307C334.21 104.08 334.044 104.761 333.71 105.352C333.377 105.943 332.894 106.403 332.261 106.733C331.633 107.062 330.871 107.227 329.977 107.227H327.051V105.256H329.58C330.053 105.256 330.443 105.174 330.75 105.011C331.061 104.845 331.292 104.616 331.443 104.324C331.598 104.028 331.676 103.689 331.676 103.307C331.676 102.92 331.598 102.583 331.443 102.295C331.292 102.004 331.061 101.778 330.75 101.619C330.439 101.456 330.045 101.375 329.568 101.375H327.909V111H325.449ZM335.365 101.392V99.3636H344.922V101.392H341.359V111H338.928V101.392H335.365ZM345.814 99.3636H348.57L351.223 104.375H351.337L353.99 99.3636H356.746L352.501 106.886V111H350.058V106.886L345.814 99.3636Z" fill="#13B3F2"/>
<path d="M267 157H131C125.477 157 121 161.477 121 167V188C121 193.523 125.477 198 131 198H267C272.523 198 277 193.523 277 188V167C277 161.477 272.523 157 267 157Z" fill="#010D26"/>
<path d="M267 158H131C126.029 158 122 162.029 122 167V188C122 192.971 126.029 197 131 197H267C271.971 197 276 192.971 276 188V167C276 162.029 271.971 158 267 158Z" stroke="#FFD21E" stroke-width="2"/>
<path d="M157.06 185.2C156.167 185.2 155.34 185.027 154.58 184.68C153.833 184.333 153.22 183.833 152.74 183.18L154.22 181.4C154.607 181.933 155.027 182.333 155.48 182.6C155.947 182.867 156.453 183 157 183C158.453 183 159.18 182.14 159.18 180.42V173.18H154.2V171H161.78V180.28C161.78 181.933 161.373 183.167 160.56 183.98C159.76 184.793 158.593 185.2 157.06 185.2ZM169.987 185.14C168.894 185.14 167.92 184.907 167.067 184.44C166.214 183.96 165.54 183.307 165.047 182.48C164.554 181.653 164.307 180.713 164.307 179.66C164.307 178.593 164.554 177.653 165.047 176.84C165.54 176.013 166.214 175.367 167.067 174.9C167.92 174.433 168.894 174.2 169.987 174.2C171.094 174.2 172.074 174.433 172.927 174.9C173.794 175.367 174.467 176.007 174.947 176.82C175.44 177.633 175.687 178.58 175.687 179.66C175.687 180.713 175.44 181.653 174.947 182.48C174.467 183.307 173.794 183.96 172.927 184.44C172.074 184.907 171.094 185.14 169.987 185.14ZM169.987 183C170.6 183 171.147 182.867 171.627 182.6C172.107 182.333 172.48 181.947 172.747 181.44C173.027 180.933 173.167 180.34 173.167 179.66C173.167 178.967 173.027 178.373 172.747 177.88C172.48 177.373 172.107 176.987 171.627 176.72C171.147 176.453 170.607 176.32 170.007 176.32C169.394 176.32 168.847 176.453 168.367 176.72C167.9 176.987 167.527 177.373 167.247 177.88C166.967 178.373 166.827 178.967 166.827 179.66C166.827 180.34 166.967 180.933 167.247 181.44C167.527 181.947 167.9 182.333 168.367 182.6C168.847 182.867 169.387 183 169.987 183ZM178.078 185V174.32H180.578V185H178.078ZM179.338 172.56C178.871 172.56 178.484 172.413 178.178 172.12C177.884 171.827 177.738 171.473 177.738 171.06C177.738 170.633 177.884 170.28 178.178 170C178.484 169.707 178.871 169.56 179.338 169.56C179.804 169.56 180.184 169.7 180.478 169.98C180.784 170.247 180.938 170.587 180.938 171C180.938 171.44 180.791 171.813 180.498 172.12C180.204 172.413 179.818 172.56 179.338 172.56ZM189.919 174.2C190.772 174.2 191.532 174.367 192.199 174.7C192.879 175.033 193.412 175.547 193.799 176.24C194.185 176.92 194.379 177.8 194.379 178.88V185H191.879V179.2C191.879 178.253 191.652 177.547 191.199 177.08C190.759 176.613 190.139 176.38 189.339 176.38C188.752 176.38 188.232 176.5 187.779 176.74C187.325 176.98 186.972 177.34 186.719 177.82C186.479 178.287 186.359 178.88 186.359 179.6V185H183.859V174.32H186.239V177.2L185.819 176.32C186.192 175.64 186.732 175.12 187.439 174.76C188.159 174.387 188.985 174.2 189.919 174.2ZM203.078 185V174.32H205.458V177.26L205.178 176.4C205.498 175.68 205.998 175.133 206.678 174.76C207.371 174.387 208.231 174.2 209.258 174.2V176.58C209.151 176.553 209.051 176.54 208.958 176.54C208.864 176.527 208.771 176.52 208.678 176.52C207.731 176.52 206.978 176.8 206.418 177.36C205.858 177.907 205.578 178.727 205.578 179.82V185H203.078ZM216.081 185.14C214.987 185.14 214.014 184.907 213.161 184.44C212.307 183.96 211.634 183.307 211.141 182.48C210.647 181.653 210.401 180.713 210.401 179.66C210.401 178.593 210.647 177.653 211.141 176.84C211.634 176.013 212.307 175.367 213.161 174.9C214.014 174.433 214.987 174.2 216.081 174.2C217.187 174.2 218.167 174.433 219.021 174.9C219.887 175.367 220.561 176.007 221.041 176.82C221.534 177.633 221.781 178.58 221.781 179.66C221.781 180.713 221.534 181.653 221.041 182.48C220.561 183.307 219.887 183.96 219.021 184.44C218.167 184.907 217.187 185.14 216.081 185.14ZM216.081 183C216.694 183 217.241 182.867 217.721 182.6C218.201 182.333 218.574 181.947 218.841 181.44C219.121 180.933 219.261 180.34 219.261 179.66C219.261 178.967 219.121 178.373 218.841 177.88C218.574 177.373 218.201 176.987 217.721 176.72C217.241 176.453 216.701 176.32 216.101 176.32C215.487 176.32 214.941 176.453 214.461 176.72C213.994 176.987 213.621 177.373 213.341 177.88C213.061 178.373 212.921 178.967 212.921 179.66C212.921 180.34 213.061 180.933 213.341 181.44C213.621 181.947 213.994 182.333 214.461 182.6C214.941 182.867 215.481 183 216.081 183ZM228.971 185.14C227.878 185.14 226.905 184.907 226.051 184.44C225.198 183.96 224.525 183.307 224.031 182.48C223.538 181.653 223.291 180.713 223.291 179.66C223.291 178.593 223.538 177.653 224.031 176.84C224.525 176.013 225.198 175.367 226.051 174.9C226.905 174.433 227.878 174.2 228.971 174.2C230.078 174.2 231.058 174.433 231.911 174.9C232.778 175.367 233.451 176.007 233.931 176.82C234.425 177.633 234.671 178.58 234.671 179.66C234.671 180.713 234.425 181.653 233.931 182.48C233.451 183.307 232.778 183.96 231.911 184.44C231.058 184.907 230.078 185.14 228.971 185.14ZM228.971 183C229.585 183 230.131 182.867 230.611 182.6C231.091 182.333 231.465 181.947 231.731 181.44C232.011 180.933 232.151 180.34 232.151 179.66C232.151 178.967 232.011 178.373 231.731 177.88C231.465 177.373 231.091 176.987 230.611 176.72C230.131 176.453 229.591 176.32 228.991 176.32C228.378 176.32 227.831 176.453 227.351 176.72C226.885 176.987 226.511 177.373 226.231 177.88C225.951 178.373 225.811 178.967 225.811 179.66C225.811 180.34 225.951 180.933 226.231 181.44C226.511 181.947 226.885 182.333 227.351 182.6C227.831 182.867 228.371 183 228.971 183ZM250.542 174.2C251.395 174.2 252.149 174.367 252.802 174.7C253.469 175.033 253.989 175.547 254.362 176.24C254.735 176.92 254.922 177.8 254.922 178.88V185H252.422V179.2C252.422 178.253 252.215 177.547 251.802 177.08C251.389 176.613 250.795 176.38 250.022 176.38C249.475 176.38 248.989 176.5 248.562 176.74C248.149 176.98 247.822 177.333 247.582 177.8C247.355 178.267 247.242 178.86 247.242 179.58V185H244.742V179.2C244.742 178.253 244.535 177.547 244.122 177.08C243.709 176.613 243.115 176.38 242.342 176.38C241.795 176.38 241.309 176.5 240.882 176.74C240.469 176.98 240.142 177.333 239.902 177.8C239.675 178.267 239.562 178.86 239.562 179.58V185H237.062V174.32H239.442V177.16L239.022 176.32C239.382 175.627 239.902 175.1 240.582 174.74C241.275 174.38 242.062 174.2 242.942 174.2C243.942 174.2 244.809 174.447 245.542 174.94C246.289 175.433 246.782 176.18 247.022 177.18L246.042 176.84C246.389 176.04 246.962 175.4 247.762 174.92C248.562 174.44 249.489 174.2 250.542 174.2Z" fill="#FFD21E"/>
<path d="M267 95C264.824 95 262.698 95.6451 260.889 96.8538C259.08 98.0625 257.67 99.7805 256.837 101.79C256.005 103.8 255.787 106.012 256.211 108.146C256.636 110.28 257.683 112.24 259.222 113.778C260.76 115.317 262.72 116.364 264.854 116.789C266.988 117.213 269.2 116.995 271.21 116.163C273.22 115.33 274.937 113.92 276.146 112.111C277.355 110.302 278 108.176 278 106C277.992 103.085 276.83 100.292 274.769 98.2312C272.708 96.1701 269.915 95.0084 267 95V95ZM258.2 106C258.207 103.668 259.136 101.434 260.785 99.785C262.434 98.1362 264.668 97.2069 267 97.2C268.956 97.1973 270.856 97.8564 272.39 99.07L260.07 111.39C258.856 109.856 258.197 107.956 258.2 106V106ZM267 114.8C265.044 114.803 263.144 114.144 261.61 112.93L273.93 100.61C275.144 102.144 275.803 104.044 275.8 106C275.793 108.332 274.864 110.566 273.215 112.215C271.566 113.864 269.332 114.793 267 114.8V114.8Z" fill="#D91424"/>
<path d="M215 106C215 110.382 212.259 114.727 206.905 118.83C201.565 122.921 193.775 126.649 184.059 129.797C164.639 136.091 137.748 140 108 140C78.2519 140 51.3607 136.091 31.9408 129.797C22.2252 126.649 14.4353 122.921 9.09537 118.83C3.7408 114.727 1 110.382 1 106C1 101.618 3.7408 97.2729 9.09537 93.1702C14.4353 89.0788 22.2252 85.3511 31.9408 82.2026C51.3607 75.909 78.2519 72 108 72C137.748 72 164.639 75.909 184.059 82.2026C193.775 85.3511 201.565 89.0788 206.905 93.1702C212.259 97.2729 215 101.618 215 106Z" stroke="#D31424" stroke-width="2"/>
</svg>
