<svg width="442" height="222" viewBox="0 0 442 222" fill="none" xmlns="http://www.w3.org/2000/svg">
<path d="M417 0H26C12.1929 0 1 11.1929 1 25V197C1 210.807 12.1929 222 26 222H417C430.807 222 442 210.807 442 197V25C442 11.1929 430.807 0 417 0Z" fill="#010D26"/>
<path d="M417 1H26C12.7452 1 2 11.7452 2 25V197C2 210.255 12.7452 221 26 221H417C430.255 221 441 210.255 441 197V25C441 11.7452 430.255 1 417 1Z" stroke="#13B3F2" stroke-width="2"/>
<path d="M153.896 54V32.1818H162.504C164.152 32.1818 165.558 32.4766 166.723 33.0661C167.895 33.6484 168.786 34.4759 169.397 35.5483C170.015 36.6136 170.324 37.8672 170.324 39.3089C170.324 40.7578 170.011 42.0043 169.386 43.0483C168.761 44.0852 167.856 44.8807 166.67 45.4347C165.491 45.9886 164.063 46.2656 162.387 46.2656H156.624V42.5582H161.641C162.522 42.5582 163.254 42.4375 163.836 42.196C164.418 41.9545 164.852 41.5923 165.136 41.1094C165.427 40.6264 165.572 40.0263 165.572 39.3089C165.572 38.5845 165.427 37.9737 165.136 37.4766C164.852 36.9794 164.415 36.603 163.825 36.3473C163.243 36.0845 162.508 35.9531 161.62 35.9531H158.509V54H153.896ZM165.679 44.071L171.102 54H166.009L160.704 44.071H165.679ZM180.628 54.3196C178.974 54.3196 177.542 53.968 176.335 53.2649C175.135 52.5547 174.208 51.5675 173.555 50.3033C172.901 49.032 172.574 47.5582 172.574 45.8821C172.574 44.1918 172.901 42.7145 173.555 41.4503C174.208 40.179 175.135 39.1918 176.335 38.4886C177.542 37.7784 178.974 37.4233 180.628 37.4233C182.283 37.4233 183.711 37.7784 184.911 38.4886C186.118 39.1918 187.049 40.179 187.702 41.4503C188.356 42.7145 188.682 44.1918 188.682 45.8821C188.682 47.5582 188.356 49.032 187.702 50.3033C187.049 51.5675 186.118 52.5547 184.911 53.2649C183.711 53.968 182.283 54.3196 180.628 54.3196ZM180.65 50.804C181.403 50.804 182.031 50.5909 182.535 50.1648C183.04 49.7315 183.42 49.142 183.675 48.3963C183.938 47.6506 184.069 46.8018 184.069 45.8501C184.069 44.8984 183.938 44.0497 183.675 43.304C183.42 42.5582 183.04 41.9687 182.535 41.5355C182.031 41.1023 181.403 40.8857 180.65 40.8857C179.89 40.8857 179.251 41.1023 178.732 41.5355C178.221 41.9687 177.834 42.5582 177.571 43.304C177.315 44.0497 177.187 44.8984 177.187 45.8501C177.187 46.8018 177.315 47.6506 177.571 48.3963C177.834 49.142 178.221 49.7315 178.732 50.1648C179.251 50.5909 179.89 50.804 180.65 50.804ZM199.027 54.3196C197.372 54.3196 195.941 53.968 194.733 53.2649C193.533 52.5547 192.606 51.5675 191.953 50.3033C191.3 49.032 190.973 47.5582 190.973 45.8821C190.973 44.1918 191.3 42.7145 191.953 41.4503C192.606 40.179 193.533 39.1918 194.733 38.4886C195.941 37.7784 197.372 37.4233 199.027 37.4233C200.682 37.4233 202.109 37.7784 203.309 38.4886C204.517 39.1918 205.447 40.179 206.101 41.4503C206.754 42.7145 207.081 44.1918 207.081 45.8821C207.081 47.5582 206.754 49.032 206.101 50.3033C205.447 51.5675 204.517 52.5547 203.309 53.2649C202.109 53.968 200.682 54.3196 199.027 54.3196ZM199.048 50.804C199.801 50.804 200.43 50.5909 200.934 50.1648C201.438 49.7315 201.818 49.142 202.074 48.3963C202.336 47.6506 202.468 46.8018 202.468 45.8501C202.468 44.8984 202.336 44.0497 202.074 43.304C201.818 42.5582 201.438 41.9687 200.934 41.5355C200.43 41.1023 199.801 40.8857 199.048 40.8857C198.288 40.8857 197.649 41.1023 197.131 41.5355C196.619 41.9687 196.232 42.5582 195.969 43.304C195.714 44.0497 195.586 44.8984 195.586 45.8501C195.586 46.8018 195.714 47.6506 195.969 48.3963C196.232 49.142 196.619 49.7315 197.131 50.1648C197.649 50.5909 198.288 50.804 199.048 50.804ZM210.032 54V37.6364H214.357V40.5234H214.549C214.89 39.5646 215.458 38.8082 216.253 38.2543C217.049 37.7003 218.001 37.4233 219.108 37.4233C220.231 37.4233 221.186 37.7038 221.974 38.2649C222.763 38.8189 223.288 39.5717 223.551 40.5234H223.721C224.055 39.5859 224.659 38.8366 225.532 38.2756C226.413 37.7074 227.454 37.4233 228.654 37.4233C230.181 37.4233 231.42 37.9098 232.372 38.8828C233.331 39.8487 233.81 41.2195 233.81 42.995V54H229.282V43.8899C229.282 42.9808 229.041 42.299 228.558 41.8445C228.075 41.3899 227.471 41.1626 226.747 41.1626C225.923 41.1626 225.28 41.4254 224.819 41.951C224.357 42.4695 224.126 43.1548 224.126 44.0071V54H219.726V43.794C219.726 42.9915 219.496 42.3523 219.034 41.8764C218.579 41.4006 217.979 41.1626 217.233 41.1626C216.729 41.1626 216.275 41.2905 215.87 41.5462C215.472 41.7947 215.156 42.1463 214.922 42.6009C214.687 43.0483 214.57 43.5739 214.57 44.1776V54H210.032ZM249.892 54V57.4411H235.563V54H249.892ZM259.959 54L263.539 32.1818H266.948L263.368 54H259.959ZM250.19 48.5881L250.754 45.179H267.8L267.235 48.5881H250.19ZM252.289 54L255.868 32.1818H259.277L255.698 54H252.289ZM251.436 41.0028L252.012 37.5938H269.057L268.482 41.0028H251.436ZM275.02 54H270.077L277.609 32.1818H283.554L291.075 54H286.132L280.667 37.1676H280.496L275.02 54ZM274.711 45.424H286.387V49.0249H274.711V45.424ZM298.314 32.1818V54H293.701V32.1818H298.314ZM311.474 32.1818V54H306.861V36.5604H306.733L301.736 39.6925V35.6016L307.138 32.1818H311.474Z" fill="#83B33B"/>
<path d="M180 85H36C30.4772 85 26 89.4772 26 95V115C26 120.523 30.4772 125 36 125H180C185.523 125 190 120.523 190 115V95C190 89.4772 185.523 85 180 85Z" fill="#010D26"/>
<path d="M180 85.5H36C30.7533 85.5 26.5 89.7533 26.5 95V115C26.5 120.247 30.7533 124.5 36 124.5H180C185.247 124.5 189.5 120.247 189.5 115V95C189.5 89.7533 185.247 85.5 180 85.5Z" stroke="#13B3F2"/>
<path d="M84.0114 113V101.364H88.6023C89.4811 101.364 90.2311 101.521 90.8523 101.835C91.4773 102.146 91.9527 102.587 92.2784 103.159C92.608 103.727 92.7727 104.396 92.7727 105.165C92.7727 105.937 92.6061 106.602 92.2727 107.159C91.9394 107.712 91.4564 108.136 90.8239 108.432C90.1951 108.727 89.4337 108.875 88.5398 108.875H85.4659V106.898H88.142C88.6117 106.898 89.0019 106.833 89.3125 106.705C89.6231 106.576 89.8542 106.383 90.0057 106.125C90.161 105.867 90.2386 105.547 90.2386 105.165C90.2386 104.778 90.161 104.453 90.0057 104.188C89.8542 103.922 89.6212 103.722 89.3068 103.585C88.9962 103.445 88.6042 103.375 88.1307 103.375H86.4716V113H84.0114ZM90.2955 107.705L93.1875 113H90.4716L87.642 107.705H90.2955ZM94.4432 113V111.227L98.5852 107.392C98.9375 107.051 99.233 106.744 99.4716 106.472C99.714 106.199 99.8977 105.932 100.023 105.67C100.148 105.405 100.21 105.119 100.21 104.812C100.21 104.472 100.133 104.178 99.9773 103.932C99.822 103.682 99.6098 103.491 99.3409 103.358C99.072 103.222 98.767 103.153 98.4261 103.153C98.0701 103.153 97.7595 103.225 97.4943 103.369C97.2292 103.513 97.0246 103.72 96.8807 103.989C96.7367 104.258 96.6648 104.578 96.6648 104.949H94.3295C94.3295 104.187 94.5019 103.527 94.8466 102.966C95.1913 102.405 95.6742 101.972 96.2955 101.665C96.9167 101.358 97.6326 101.205 98.4432 101.205C99.2765 101.205 100.002 101.352 100.619 101.648C101.241 101.939 101.723 102.345 102.068 102.864C102.413 103.383 102.585 103.977 102.585 104.648C102.585 105.087 102.498 105.521 102.324 105.949C102.153 106.377 101.848 106.852 101.409 107.375C100.97 107.894 100.35 108.517 99.5511 109.244L97.8523 110.909V110.989H102.739V113H94.4432ZM109.982 106.222V108.142H104.675V106.222H109.982ZM116.214 113H112.089V101.364H116.249C117.419 101.364 118.427 101.597 119.271 102.062C120.116 102.525 120.766 103.189 121.22 104.057C121.679 104.924 121.908 105.962 121.908 107.17C121.908 108.383 121.679 109.424 121.22 110.295C120.766 111.167 120.112 111.835 119.26 112.301C118.411 112.767 117.396 113 116.214 113ZM114.55 110.892H116.112C116.839 110.892 117.451 110.763 117.947 110.506C118.447 110.244 118.822 109.841 119.072 109.295C119.326 108.746 119.453 108.038 119.453 107.17C119.453 106.311 119.326 105.608 119.072 105.062C118.822 104.517 118.449 104.116 117.953 103.858C117.457 103.6 116.845 103.472 116.118 103.472H114.55V110.892ZM123.662 113V111.227L127.804 107.392C128.156 107.051 128.452 106.744 128.69 106.472C128.933 106.199 129.116 105.932 129.241 105.67C129.366 105.405 129.429 105.119 129.429 104.812C129.429 104.472 129.351 104.178 129.196 103.932C129.041 103.682 128.829 103.491 128.56 103.358C128.291 103.222 127.986 103.153 127.645 103.153C127.289 103.153 126.978 103.225 126.713 103.369C126.448 103.513 126.243 103.72 126.099 103.989C125.955 104.258 125.884 104.578 125.884 104.949H123.548C123.548 104.187 123.721 103.527 124.065 102.966C124.41 102.405 124.893 101.972 125.514 101.665C126.135 101.358 126.851 101.205 127.662 101.205C128.495 101.205 129.221 101.352 129.838 101.648C130.459 101.939 130.942 102.345 131.287 102.864C131.632 103.383 131.804 103.977 131.804 104.648C131.804 105.087 131.717 105.521 131.543 105.949C131.372 106.377 131.067 106.852 130.628 107.375C130.188 107.894 129.569 108.517 128.77 109.244L127.071 110.909V110.989H131.957V113H123.662Z" fill="#13B3F2"/>
<path d="M161 116C166.523 116 171 111.523 171 106C171 100.477 166.523 96 161 96C155.477 96 151 100.477 151 106C151 111.523 155.477 116 161 116Z" fill="#FF8C00"/>
<path d="M401 85H257C251.477 85 247 89.4772 247 95V115C247 120.523 251.477 125 257 125H401C406.523 125 411 120.523 411 115V95C411 89.4772 406.523 85 401 85Z" fill="#010D26"/>
<path d="M401 85.5H257C251.753 85.5 247.5 89.7533 247.5 95V115C247.5 120.247 251.753 124.5 257 124.5H401C406.247 124.5 410.5 120.247 410.5 115V95C410.5 89.7533 406.247 85.5 401 85.5Z" stroke="#13B3F2"/>
<path d="M308.011 111V99.3636H315.852V101.392H310.472V104.165H315.449V106.193H310.472V108.972H315.875V111H308.011ZM317.808 99.3636H320.842L324.047 107.182H324.183L327.388 99.3636H330.422V111H328.036V103.426H327.939L324.928 110.943H323.303L320.291 103.398H320.195V111H317.808V99.3636ZM332.449 111V99.3636H337.04C337.922 99.3636 338.674 99.5322 339.295 99.8693C339.917 100.203 340.39 100.667 340.716 101.261C341.045 101.852 341.21 102.534 341.21 103.307C341.21 104.08 341.044 104.761 340.71 105.352C340.377 105.943 339.894 106.403 339.261 106.733C338.633 107.062 337.871 107.227 336.977 107.227H334.051V105.256H336.58C337.053 105.256 337.443 105.174 337.75 105.011C338.061 104.845 338.292 104.616 338.443 104.324C338.598 104.028 338.676 103.689 338.676 103.307C338.676 102.92 338.598 102.583 338.443 102.295C338.292 102.004 338.061 101.778 337.75 101.619C337.439 101.456 337.045 101.375 336.568 101.375H334.909V111H332.449ZM342.365 101.392V99.3636H351.922V101.392H348.359V111H345.928V101.392H342.365ZM352.814 99.3636H355.57L358.223 104.375H358.337L360.99 99.3636H363.746L359.501 106.886V111H357.058V106.886L352.814 99.3636Z" fill="#13B3F2"/>
<path d="M290 157H154C148.477 157 144 161.477 144 167V188C144 193.523 148.477 198 154 198H290C295.523 198 300 193.523 300 188V167C300 161.477 295.523 157 290 157Z" fill="#010D26"/>
<path d="M290 158H154C149.029 158 145 162.029 145 167V188C145 192.971 149.029 197 154 197H290C294.971 197 299 192.971 299 188V167C299 162.029 294.971 158 290 158Z" stroke="#FFD21E" stroke-width="2"/>
<path d="M179.9 185.16C179.073 185.16 178.3 184.987 177.58 184.64C176.86 184.293 176.273 183.793 175.82 183.14L176.98 181.78C177.367 182.313 177.8 182.727 178.28 183.02C178.773 183.3 179.313 183.44 179.9 183.44C181.5 183.44 182.3 182.493 182.3 180.6V172.74H177.24V171H184.28V180.5C184.28 182.06 183.907 183.227 183.16 184C182.427 184.773 181.34 185.16 179.9 185.16ZM192.614 185.12C191.547 185.12 190.601 184.887 189.774 184.42C188.947 183.953 188.294 183.313 187.814 182.5C187.334 181.673 187.094 180.74 187.094 179.7C187.094 178.647 187.334 177.713 187.814 176.9C188.294 176.087 188.947 175.453 189.774 175C190.601 174.533 191.547 174.3 192.614 174.3C193.667 174.3 194.607 174.533 195.434 175C196.274 175.453 196.927 176.087 197.394 176.9C197.874 177.7 198.114 178.633 198.114 179.7C198.114 180.753 197.874 181.687 197.394 182.5C196.927 183.313 196.274 183.953 195.434 184.42C194.607 184.887 193.667 185.12 192.614 185.12ZM192.614 183.44C193.294 183.44 193.901 183.287 194.434 182.98C194.981 182.673 195.407 182.24 195.714 181.68C196.021 181.107 196.174 180.447 196.174 179.7C196.174 178.94 196.021 178.287 195.714 177.74C195.407 177.18 194.981 176.747 194.434 176.44C193.901 176.133 193.294 175.98 192.614 175.98C191.934 175.98 191.327 176.133 190.794 176.44C190.261 176.747 189.834 177.18 189.514 177.74C189.194 178.287 189.034 178.94 189.034 179.7C189.034 180.447 189.194 181.107 189.514 181.68C189.834 182.24 190.261 182.673 190.794 182.98C191.327 183.287 191.934 183.44 192.614 183.44ZM200.769 185V174.4H202.689V185H200.769ZM201.729 172.36C201.356 172.36 201.043 172.24 200.789 172C200.549 171.76 200.429 171.467 200.429 171.12C200.429 170.76 200.549 170.46 200.789 170.22C201.043 169.98 201.356 169.86 201.729 169.86C202.103 169.86 202.409 169.98 202.649 170.22C202.903 170.447 203.029 170.733 203.029 171.08C203.029 171.44 202.909 171.747 202.669 172C202.429 172.24 202.116 172.36 201.729 172.36ZM212.015 174.3C212.882 174.3 213.642 174.467 214.295 174.8C214.962 175.133 215.482 175.64 215.855 176.32C216.228 177 216.415 177.86 216.415 178.9V185H214.495V179.12C214.495 178.093 214.242 177.32 213.735 176.8C213.242 176.28 212.542 176.02 211.635 176.02C210.955 176.02 210.362 176.153 209.855 176.42C209.348 176.687 208.955 177.08 208.675 177.6C208.408 178.12 208.275 178.767 208.275 179.54V185H206.355V174.4H208.195V177.26L207.895 176.5C208.242 175.807 208.775 175.267 209.495 174.88C210.215 174.493 211.055 174.3 212.015 174.3ZM225.34 185V174.4H227.18V177.28L227 176.56C227.293 175.827 227.786 175.267 228.48 174.88C229.173 174.493 230.026 174.3 231.04 174.3V176.16C230.96 176.147 230.88 176.14 230.8 176.14C230.733 176.14 230.666 176.14 230.6 176.14C229.573 176.14 228.76 176.447 228.16 177.06C227.56 177.673 227.26 178.56 227.26 179.72V185H225.34ZM237.848 185.12C236.782 185.12 235.835 184.887 235.008 184.42C234.182 183.953 233.528 183.313 233.048 182.5C232.568 181.673 232.328 180.74 232.328 179.7C232.328 178.647 232.568 177.713 233.048 176.9C233.528 176.087 234.182 175.453 235.008 175C235.835 174.533 236.782 174.3 237.848 174.3C238.902 174.3 239.842 174.533 240.668 175C241.508 175.453 242.162 176.087 242.628 176.9C243.108 177.7 243.348 178.633 243.348 179.7C243.348 180.753 243.108 181.687 242.628 182.5C242.162 183.313 241.508 183.953 240.668 184.42C239.842 184.887 238.902 185.12 237.848 185.12ZM237.848 183.44C238.528 183.44 239.135 183.287 239.668 182.98C240.215 182.673 240.642 182.24 240.948 181.68C241.255 181.107 241.408 180.447 241.408 179.7C241.408 178.94 241.255 178.287 240.948 177.74C240.642 177.18 240.215 176.747 239.668 176.44C239.135 176.133 238.528 175.98 237.848 175.98C237.168 175.98 236.562 176.133 236.028 176.44C235.495 176.747 235.068 177.18 234.748 177.74C234.428 178.287 234.268 178.94 234.268 179.7C234.268 180.447 234.428 181.107 234.748 181.68C235.068 182.24 235.495 182.673 236.028 182.98C236.562 183.287 237.168 183.44 237.848 183.44ZM250.544 185.12C249.477 185.12 248.53 184.887 247.704 184.42C246.877 183.953 246.224 183.313 245.744 182.5C245.264 181.673 245.024 180.74 245.024 179.7C245.024 178.647 245.264 177.713 245.744 176.9C246.224 176.087 246.877 175.453 247.704 175C248.53 174.533 249.477 174.3 250.544 174.3C251.597 174.3 252.537 174.533 253.364 175C254.204 175.453 254.857 176.087 255.324 176.9C255.804 177.7 256.044 178.633 256.044 179.7C256.044 180.753 255.804 181.687 255.324 182.5C254.857 183.313 254.204 183.953 253.364 184.42C252.537 184.887 251.597 185.12 250.544 185.12ZM250.544 183.44C251.224 183.44 251.83 183.287 252.364 182.98C252.91 182.673 253.337 182.24 253.644 181.68C253.95 181.107 254.104 180.447 254.104 179.7C254.104 178.94 253.95 178.287 253.644 177.74C253.337 177.18 252.91 176.747 252.364 176.44C251.83 176.133 251.224 175.98 250.544 175.98C249.864 175.98 249.257 176.133 248.724 176.44C248.19 176.747 247.764 177.18 247.444 177.74C247.124 178.287 246.964 178.94 246.964 179.7C246.964 180.447 247.124 181.107 247.444 181.68C247.764 182.24 248.19 182.673 248.724 182.98C249.257 183.287 249.864 183.44 250.544 183.44ZM271.959 174.3C272.812 174.3 273.566 174.467 274.219 174.8C274.872 175.133 275.379 175.64 275.739 176.32C276.112 177 276.299 177.86 276.299 178.9V185H274.379V179.12C274.379 178.093 274.139 177.32 273.659 176.8C273.179 176.28 272.506 176.02 271.639 176.02C270.999 176.02 270.439 176.153 269.959 176.42C269.479 176.687 269.106 177.08 268.839 177.6C268.586 178.12 268.459 178.767 268.459 179.54V185H266.539V179.12C266.539 178.093 266.299 177.32 265.819 176.8C265.352 176.28 264.679 176.02 263.799 176.02C263.172 176.02 262.619 176.153 262.139 176.42C261.659 176.687 261.286 177.08 261.019 177.6C260.752 178.12 260.619 178.767 260.619 179.54V185H258.699V174.4H260.539V177.22L260.239 176.5C260.572 175.807 261.086 175.267 261.779 174.88C262.472 174.493 263.279 174.3 264.199 174.3C265.212 174.3 266.086 174.553 266.819 175.06C267.552 175.553 268.032 176.307 268.259 177.32L267.479 177C267.799 176.187 268.359 175.533 269.159 175.04C269.959 174.547 270.892 174.3 271.959 174.3Z" fill="#FFD21E"/>
<path d="M268 95C265.824 95 263.698 95.6451 261.889 96.8538C260.08 98.0625 258.67 99.7805 257.837 101.79C257.005 103.8 256.787 106.012 257.211 108.146C257.636 110.28 258.683 112.24 260.222 113.778C261.76 115.317 263.72 116.364 265.854 116.789C267.988 117.213 270.2 116.995 272.21 116.163C274.22 115.33 275.937 113.92 277.146 112.111C278.355 110.302 279 108.176 279 106C278.992 103.085 277.83 100.292 275.769 98.2312C273.708 96.1701 270.915 95.0084 268 95V95ZM259.2 106C259.207 103.668 260.136 101.434 261.785 99.785C263.434 98.1362 265.668 97.2069 268 97.2C269.956 97.1973 271.856 97.8564 273.39 99.07L261.07 111.39C259.856 109.856 259.197 107.956 259.2 106V106ZM268 114.8C266.044 114.803 264.144 114.144 262.61 112.93L274.93 100.61C276.144 102.144 276.803 104.044 276.8 106C276.793 108.332 275.864 110.566 274.215 112.215C272.566 113.864 270.332 114.793 268 114.8V114.8Z" fill="#D91424"/>
<path d="M55.1667 111.125C55.6736 111.123 56.1591 110.925 56.5166 110.573C56.8742 110.222 57.0746 109.746 57.074 109.25L57.0833 99.875C57.0818 99.3782 56.8793 98.9022 56.5202 98.5509C56.1611 98.1996 55.6745 98.0015 55.1667 98H39.8333C39.3255 98.0015 38.8389 98.1996 38.4798 98.5509C38.1207 98.9022 37.9182 99.3782 37.9167 99.875V109.25C37.9182 109.747 38.1207 110.223 38.4798 110.574C38.8389 110.925 39.3255 111.123 39.8333 111.125H36V113H59V111.125H55.1667ZM39.8333 99.875H55.1667V109.25H39.8333V99.875Z" fill="#13B3F2"/>
<path d="M215 106C215 110.382 212.259 114.727 206.905 118.83C201.565 122.921 193.775 126.649 184.059 129.797C164.639 136.091 137.748 140 108 140C78.2519 140 51.3607 136.091 31.9408 129.797C22.2252 126.649 14.4353 122.921 9.09537 118.83C3.7408 114.727 1 110.382 1 106C1 101.618 3.7408 97.2729 9.09537 93.1702C14.4353 89.0788 22.2252 85.3511 31.9408 82.2026C51.3607 75.909 78.2519 72 108 72C137.748 72 164.639 75.909 184.059 82.2026C193.775 85.3511 201.565 89.0788 206.905 93.1702C212.259 97.2729 215 101.618 215 106Z" stroke="#D31424" stroke-width="2"/>
</svg>
