<svg xmlns="http://www.w3.org/2000/svg" width="142.001" height="142" viewBox="0 0 142.001 142">
  <path id="Subtraction_3" data-name="Subtraction 3" d="M1955-654a70.55,70.55,0,0,1-27.636-5.58A70.767,70.767,0,0,1,1904.8-674.8a70.746,70.746,0,0,1-15.216-22.568A70.548,70.548,0,0,1,1884-725a70.543,70.543,0,0,1,5.58-27.637,70.776,70.776,0,0,1,15.216-22.568,70.756,70.756,0,0,1,22.568-15.216A70.558,70.558,0,0,1,1955-796a70.553,70.553,0,0,1,27.636,5.579,70.761,70.761,0,0,1,22.569,15.216,70.772,70.772,0,0,1,15.217,22.568A70.555,70.555,0,0,1,2026-725a70.561,70.561,0,0,1-5.579,27.636A70.77,70.77,0,0,1,2005.2-674.8a70.736,70.736,0,0,1-22.569,15.216A70.55,70.55,0,0,1,1955-654Zm-2.347-56.838v11.376h7.437v-1.578h-5.46v-3.5h4.671V-706.1h-4.671v-3.141h5.406v-1.594Zm-9.11-.594-.992,11.333,7.114.622.137-1.572-5.145-.451.853-9.759-1.968-.172Zm20.68,8.338-1.968.172a3.158,3.158,0,0,0,.735,1.817,3.827,3.827,0,0,0,1.713,1.118,5.436,5.436,0,0,0,1.749.281c.176,0,.361-.008.552-.024a4.76,4.76,0,0,0,2.873-1.095,2.718,2.718,0,0,0,.888-2.349,3.022,3.022,0,0,0-.506-1.489,3.4,3.4,0,0,0-1.276-1.049,8.775,8.775,0,0,0-2.2-.709,6.67,6.67,0,0,1-1.969-.644,1.247,1.247,0,0,1-.667-.988,1.384,1.384,0,0,1,.432-1.2,2.416,2.416,0,0,1,1.461-.544c.111-.01.222-.015.332-.015a2.117,2.117,0,0,1,1.3.378,1.786,1.786,0,0,1,.677,1.341l1.961-.172a3.2,3.2,0,0,0-.684-1.739,3.508,3.508,0,0,0-1.564-1.115,4.677,4.677,0,0,0-1.623-.275c-.175,0-.352.008-.525.024a4.551,4.551,0,0,0-2.822,1.141,2.781,2.781,0,0,0-.919,2.354,2.929,2.929,0,0,0,1.77,2.4,9.216,9.216,0,0,0,2.26.728,6.367,6.367,0,0,1,1.966.651,1.383,1.383,0,0,1,.627,1.106,1.353,1.353,0,0,1-.422,1.145,2.44,2.44,0,0,1-1.509.552c-.146.013-.285.019-.413.019a2.528,2.528,0,0,1-1.462-.388A1.849,1.849,0,0,1,1964.223-703.094Zm9.663-8.814-1.969.173.992,11.332,1.969-.173-.44-5.028,5.067-.443.439,5.028,1.961-.171-.991-11.333-1.961.172.412,4.716-5.066.443-.413-4.716Zm-40.819-.441-.138,1.588,3.5.307-.852,9.744,1.954.171.852-9.745,3.533.309.138-1.589-8.989-.786Zm-9.8-.857-.139,1.588,3.5.307-.852,9.744,1.953.171.852-9.744,3.533.309.139-1.588-8.989-.787Zm62.209.283-1.96.172.992,11.333,1.96-.172-.992-11.333Zm7.494-.63c-.186,0-.381.009-.578.026l-4.336.38.992,11.332,1.969-.172-.367-4.2,2.343-.2a4.64,4.64,0,0,0,2.981-1.194,3.248,3.248,0,0,0,.867-2.691,3.351,3.351,0,0,0-1.346-2.52A4.137,4.137,0,0,0,1992.973-713.553Zm-77.384,8.435h0l4.389.383.7,2.72,2.054.18-3.3-11.707-1.766-.155-5.273,10.958,2.047.179,1.149-2.557Zm84.9-1.15-1.969.173a3.162,3.162,0,0,0,.736,1.817,3.812,3.812,0,0,0,1.712,1.117,5.4,5.4,0,0,0,1.749.283c.178,0,.364-.008.552-.025a4.747,4.747,0,0,0,2.872-1.094,2.72,2.72,0,0,0,.889-2.348,3.034,3.034,0,0,0-.506-1.489,3.414,3.414,0,0,0-1.276-1.049,8.775,8.775,0,0,0-2.2-.708,6.742,6.742,0,0,1-1.97-.644,1.255,1.255,0,0,1-.667-.989,1.386,1.386,0,0,1,.433-1.2,2.409,2.409,0,0,1,1.461-.543c.111-.01.223-.015.333-.015a2.113,2.113,0,0,1,1.3.378,1.8,1.8,0,0,1,.678,1.339l1.96-.171a3.2,3.2,0,0,0-.685-1.74,3.488,3.488,0,0,0-1.563-1.113,4.694,4.694,0,0,0-1.627-.276c-.16,0-.335.008-.521.023a4.565,4.565,0,0,0-2.822,1.142,2.788,2.788,0,0,0-.92,2.354,2.933,2.933,0,0,0,1.771,2.4,9.262,9.262,0,0,0,2.259.727,6.382,6.382,0,0,1,1.967.651,1.38,1.38,0,0,1,.626,1.106,1.353,1.353,0,0,1-.421,1.146,2.458,2.458,0,0,1-1.509.552c-.139.012-.278.018-.412.018a2.534,2.534,0,0,1-1.463-.387A1.85,1.85,0,0,1,2000.49-706.268Zm-96.149-8.594-.991,11.332,4.131.361c.232.02.454.03.658.03a4.025,4.025,0,0,0,2.347-.629,3.042,3.042,0,0,0,1.239-2.362,2.764,2.764,0,0,0-.356-1.7,2.528,2.528,0,0,0-1.339-1.062,2.725,2.725,0,0,0,1.314-.857,2.468,2.468,0,0,0,.543-1.364,2.739,2.739,0,0,0-.8-2.384,4.789,4.789,0,0,0-2.86-1.027l-3.883-.339ZM1909-726v1h92v-1Zm-16.432-9.586c-.016,0-.026.014-.03.04a11.4,11.4,0,0,0,.956,2.248,21.527,21.527,0,0,1,1.292,3.345l.337,1.49H2011.11l.478-.928a29.353,29.353,0,0,1,3.176-3.569l2.7-2.67-2.81-.028c-.17,0-.368-.007-.606-.007a8.494,8.494,0,0,0-2.346.175,36.263,36.263,0,0,1-5.339.533c-3,.177-6.161.4-7.195.506l-2,.141.141-.844c.083-.646.3-.9.983-1.124l.9-.309-1.012.14a4.019,4.019,0,0,1-.573.053c-.351,0-.527-.1-.607-.333-.138-.332-.557-.45-1.6-.45-1.354,0-1.406.029-1.406.787a2.928,2.928,0,0,0,.422,1.377,1.17,1.17,0,0,1,.264.677.084.084,0,0,1-.039.054c-.13.078-2.384.216-5.481.337l-5.283.2v-.7c0-.395-.113-.76-.252-.815a.784.784,0,0,1-.42-.606,1.647,1.647,0,0,1,.223-1.389c.33-.314.467-.523.42-.639-.031-.081-.15-.12-.363-.12-.292,0-.573-.363-.629-.688-.033-.2.022-.334.152-.38.07-.023.1-.1.074-.229-.063-.4-.6-1.233-.917-1.233-.139,0-.253.441-.253.984,0,.956-.031.984-1.124.984-.811,0-1.178-.14-1.406-.534a3.117,3.117,0,0,1-.13-2.169.192.192,0,0,1,.158-.108.142.142,0,0,0,.119-.062.647.647,0,0,0-.007-.528c-.168-.476.184-.944,1.883-2.5a11.572,11.572,0,0,0,1.836-1.957.012.012,0,0,0-.01-.01,13.937,13.937,0,0,0-2.22,1.883l-1.939,1.91-.533-.7c-.25-.316-1.126-1.522-2.756-3.794-1.9-2.661-2.61-3.96-2.451-4.484a.353.353,0,0,1,.233-.237c.057-.029.083-.057.077-.085-.013-.052-.15-.084-.359-.084-.349-.031-.677-.208-.731-.4-.031-.076-.065-.117-.094-.117-.046,0-.074.1-.074.258a.542.542,0,0,0,.112.413.265.265,0,0,0,.2.094c.093,0,.148.019.165.056s-.009.108-.083.2a1.352,1.352,0,0,1-.713.125,5.423,5.423,0,0,1-.831-.069c-1.113-.139-1.265-.246-1.349-.956-.041-.314-.046-.518.052-.629s.286-.129.566-.129c.54,0,.731-.147.731-.562,0-.452-.193-.562-.984-.562-.662,0-.984-.138-.984-.421v-.647c0-.109.164-.2.365-.2.175,0,.368-.3.422-.646.043-.255.031-.394-.042-.481s-.253-.137-.6-.137c-.524,0-.818-.184-.9-.562a.684.684,0,0,0-.6-.562.4.4,0,0,0-.386.309c-.006.019-.013.027-.023.027a5.884,5.884,0,0,1-.68-1.938,10.016,10.016,0,0,1-.45-3.849,4.27,4.27,0,0,0,0-1.562.031.031,0,0,0-.024-.012c-.089,0-.168.446-.168.955,0,.638-.048.865-.318.865a1.224,1.224,0,0,1-.3-.05,1.343,1.343,0,0,0-.285-.039c-.083,0-.133.016-.143.045s.011.062.063.107c.309.252,1.177,3.217,1.63,5.565a10.276,10.276,0,0,0,.619,2.107,5.838,5.838,0,0,1,.478,1.686c.083.853.008.982-.618,1.068a2.994,2.994,0,0,0-2.5,1.349,6.383,6.383,0,0,0-.309.788c0,.014.04.021.113.021a9.362,9.362,0,0,0,1.151-.135l1.293-.2-.226,1.294a23.789,23.789,0,0,0,.422,8.543c.33.987.41,1.389.305,1.535a.186.186,0,0,1-.164.067.381.381,0,0,0-.365.394c0,.222-.278.449-.619.506-.452.056-.7.341-.815.926-.039.235-.078.345-.125.345-.107,0-.271-.551-.606-2.031-.443-1.917-.536-2.555-.253-2.81.228-.171.279-.683.14-1.406l-.168-1.123-.056,1.04c-.019.668-.271,1.111-.43,1.111-.046,0-.086-.038-.115-.11a1.055,1.055,0,0,1-.046-.355c0-.335-.341-.422-1.658-.422-1.6,0-1.686.036-1.8.759l-.112.787-.056-.787c-.029-.674-.139-.759-.984-.759s-.982.11-1.153.843c-.114.457-.282.843-.365.843a14.589,14.589,0,0,1-1.742-1.264,7.4,7.4,0,0,0-1.639-1.129.029.029,0,0,0-.018,0c-.056.084.258.425.7.759.471.381,1.113.942,1.462,1.264a2.344,2.344,0,0,0,.9.647.226.226,0,0,1,.192.078c.161.2.084.821-.332,2.648-.255,1.046-.508,2.2-.562,2.529-.143.544-.344.647-1.265.647-.984,0-1.183.118-1.518.9l-.394.927-.028-1.771c-.029-1.384-.121-1.742-.45-1.742s-.421.386-.421,1.967c0,1.526-.088,1.967-.393,1.967-.6,0-.624-.076-1.462-4.074a13.476,13.476,0,0,1-.506-4.047,20.231,20.231,0,0,0,.085-4.245l-.14-3.794-.057,3.71c-.027,2.235-.163,3.737-.337,3.737-.133,0-.281-.288-.281-.7,0-.67-.079-.7-1.686-.7-1.624,0-1.687.027-1.687.73,0,.347-.076.563-.2.563a.146.146,0,0,1-.082-.029.714.714,0,0,1-.225-.646.393.393,0,0,0-.059-.318c-.1-.133-.335-.21-.729-.244a3.328,3.328,0,0,0-.357-.025c-.49,0-.6.213-.878,1.205-.308,1.148-.441,1.292-1.181,1.292-.4,0-.591-.04-.688-.146a.66.66,0,0,1-.071-.5,1.987,1.987,0,0,0-.317-1.553.993.993,0,0,0-.779-.331c-.338,0-.495.031-.525.1-.02.051.021.123.131.235a1.334,1.334,0,0,1,.337.871c0,.219.069.373.167.373a.139.139,0,0,0,.086-.035.374.374,0,0,1,.191-.06.277.277,0,0,1,.259.216.634.634,0,0,1-.227.686,1.894,1.894,0,0,0-.618,1.068,1.358,1.358,0,0,1-1.176,1.02.646.646,0,0,1-.342-.092,3.164,3.164,0,0,1-.393-1.32c-.137-.985-.195-1.3-.489-1.3a1.876,1.876,0,0,0-.579.172c-.243.093-.4.191-.388.246,0,.023.041.036.107.036a.268.268,0,0,1,.2.109.615.615,0,0,1,.027.481.568.568,0,0,0,.033.472.267.267,0,0,0,.221.091.408.408,0,0,1,.393.421.433.433,0,0,1-.422.422c-.222,0-.476.3-.59.7a1.462,1.462,0,0,1-1.124.984,3.175,3.175,0,0,1-1,.213.708.708,0,0,1-.61-.256,1.258,1.258,0,0,1-.189-.773c0-.678-.217-1.045-.422-1.045-.125,0-.245.131-.336.37a1.726,1.726,0,0,1-.479.7c-.1.074-.15.131-.138.17s.077.055.2.055a.407.407,0,0,1,.337.421.409.409,0,0,1-.394.422c-.258,0-.451.524-.589,1.6-.223,1.809-.387,2.332-.731,2.332-.139,0-.253-.567-.253-1.265,0-1.063-.085-1.264-.534-1.264s-.56.21-.647,1.18c-.06.894-.277,1.3-.454,1.3-.091,0-.174-.1-.232-.294a3.207,3.207,0,0,1-.1-.895c0-1.1-.084-1.292-.563-1.292s-.561.188-.561,1.18c-.018.667-.036.96-.133.96-.053,0-.132-.092-.233-.23a.95.95,0,0,0-.795-.34,2.2,2.2,0,0,0-.357.032,1.935,1.935,0,0,1-.367.032,2.457,2.457,0,0,1-1.067-.229,2.809,2.809,0,0,0-1.215-.23,3.713,3.713,0,0,0-.5.034c-2.929.45-3.376.566-3.682.954a.615.615,0,0,1-.476.249.449.449,0,0,1-.316-.124.475.475,0,0,1-.135-.35,1.654,1.654,0,0,0-1.069-1.1c-.163,0-.44.347-.674.843-.342.8-.452.843-1.968.843h-1.63l-.057-2.754-.028-2.725-.2,3.092a20.6,20.6,0,0,1-.423,3.569c-.17.426-.621.506-2.838.506-2.469,0-2.642-.037-2.642-.563s-.247-.561-6.6-.561h-6.6l-.816-1.63C1892.96-735.134,1892.661-735.587,1892.569-735.587Zm15.368,30.861c-.1,0-.2,0-.294-.012l-2.187-.192.31-3.54,2.35.2a1.628,1.628,0,0,1,1.648,1.964,1.621,1.621,0,0,1-.633,1.23A1.967,1.967,0,0,1,1907.937-704.726Zm11.628-1.645h0l-3.284-.286,2.053-4.557,1.231,4.842Zm70.949-1.408h0l-.345-3.953,2.421-.212c.1-.006.169-.009.236-.009a2.076,2.076,0,0,1,1.354.438,1.979,1.979,0,0,1,.689,1.418,1.832,1.832,0,0,1-.427,1.476,2.353,2.353,0,0,1-1.561.634Zm-82.376-1.958c-.1,0-.2,0-.315-.013l-1.931-.169.28-3.184,1.914.168a2.435,2.435,0,0,1,1.458.5,1.454,1.454,0,0,1,.372,1.255,1.439,1.439,0,0,1-.62,1.134A2.049,2.049,0,0,1,1908.138-709.737Zm68.095-31.938h0a1.806,1.806,0,0,1-1.264-1.011c-.524-.8-.7-1.2-.6-1.383.051-.092.169-.135.372-.135a.384.384,0,0,0,.359-.151c.108-.183.018-.529-.274-1.058-.152-.29-.236-.45-.3-.45s-.127.146-.229.389a5.332,5.332,0,0,0-.227,1.466c-.028.842-.109.928-.871.928-.714,0-.875-.154-1.153-1.1-.282-.988-.253-1.182.281-1.883.295-.378.433-.665.4-.83a.182.182,0,0,0-.09-.126.532.532,0,0,1-.113-.647c.067-.172.074-.281.025-.355s-.2-.123-.475-.123-.416.028-.447.1.014.145.138.3c.149.182.2.3.187.393-.013.072-.071.132-.187.2a.3.3,0,0,1-.172.05.5.5,0,0,1-.39-.218,1.169,1.169,0,0,1-.2-.992.181.181,0,0,1,.168-.1,3.84,3.84,0,0,0,1.041-.731l.809-.7a1.8,1.8,0,0,1,.4.224,54.776,54.776,0,0,1,5.2,7.307c0,.192.134.366.281.366.1,0,.162.019.175.054s0,.053-.035.087a.367.367,0,0,1-.264.112.609.609,0,0,1-.454-.26.758.758,0,0,1-.154-.64c.052-.254.075-.408.046-.445a.024.024,0,0,0-.018-.008c-.046,0-.144.11-.309.312a1.231,1.231,0,0,1-.73.505.29.29,0,0,0-.309.281C1976.851-741.808,1976.556-741.675,1976.233-741.675Zm-5.305-7.08c-.2,0-.242-.21-.315-.648-.064-.3-.08-.453,0-.55.112-.139.418-.154,1.042-.154a3.636,3.636,0,0,1,1.363.251l-.969.565A3.387,3.387,0,0,1,1970.927-748.755Z" transform="translate(-1884 796)" fill="#6a8fd4"/>
</svg>
