<svg xmlns="http://www.w3.org/2000/svg" width="250" height="146.001" viewBox="0 0 250 146.001">
  <g id="Group_177" data-name="Group 177" transform="translate(-3 -53)">
    <g id="Group_176" data-name="Group 176" transform="translate(-13 19)">
      <path id="Subtraction_6" data-name="Subtraction 6" d="M1685-656a69.078,69.078,0,0,1-69-69,69.078,69.078,0,0,1,69-69,69.078,69.078,0,0,1,69,69A69.078,69.078,0,0,1,1685-656Zm-2.347-54.838h0v11.376h7.437v-1.578h-5.46v-3.5h4.671V-706.1h-4.671v-3.142h5.406v-1.594Zm-9.11-.594h0l-.992,11.333,7.114.621.138-1.571-5.145-.451.853-9.76-1.967-.172Zm20.679,8.339-1.968.172a3.168,3.168,0,0,0,.735,1.817,3.838,3.838,0,0,0,1.714,1.118,5.446,5.446,0,0,0,1.749.281c.173,0,.359-.008.552-.023a4.762,4.762,0,0,0,2.874-1.094,2.718,2.718,0,0,0,.888-2.349,3.022,3.022,0,0,0-.506-1.489,3.4,3.4,0,0,0-1.276-1.049,8.785,8.785,0,0,0-2.2-.709,6.662,6.662,0,0,1-1.968-.643,1.248,1.248,0,0,1-.667-.988,1.383,1.383,0,0,1,.432-1.2,2.419,2.419,0,0,1,1.462-.544c.114-.01.226-.015.331-.015a2.119,2.119,0,0,1,1.3.378,1.784,1.784,0,0,1,.678,1.341l1.961-.172a3.2,3.2,0,0,0-.684-1.739,3.5,3.5,0,0,0-1.564-1.115,4.69,4.69,0,0,0-1.624-.274c-.175,0-.351.008-.524.024a4.548,4.548,0,0,0-2.821,1.14,2.779,2.779,0,0,0-.919,2.354,2.927,2.927,0,0,0,1.77,2.4,9.175,9.175,0,0,0,2.26.728,6.363,6.363,0,0,1,1.966.652,1.384,1.384,0,0,1,.627,1.106,1.355,1.355,0,0,1-.422,1.146,2.44,2.44,0,0,1-1.509.552c-.145.013-.284.019-.413.019a2.532,2.532,0,0,1-1.462-.388,1.851,1.851,0,0,1-.77-1.437Zm9.663-8.815-1.969.174.992,11.331,1.969-.173-.44-5.027,5.067-.444.439,5.028,1.961-.171-.99-11.333-1.962.172.412,4.717-5.066.443-.413-4.717Zm-40.819-.441h0l-.138,1.588,3.5.307-.852,9.744,1.954.171.852-9.745,3.533.31.139-1.588-8.989-.787Zm-9.8-.857h0l-.14,1.587,3.5.306-.852,9.744,1.952.171.852-9.744,3.533.31.139-1.588-8.988-.787Zm62.209.284-1.96.172.992,11.333,1.96-.172-.992-11.333Zm7.494-.631c-.183,0-.378.009-.578.026l-4.336.38.992,11.332,1.969-.172-.367-4.2,2.343-.2a4.641,4.641,0,0,0,2.981-1.194,3.249,3.249,0,0,0,.867-2.691,3.353,3.353,0,0,0-1.346-2.52A4.141,4.141,0,0,0,1722.973-713.553Zm-77.383,8.436h0l4.388.383.7,2.721,2.055.179-3.3-11.707-1.766-.155-5.273,10.958,2.047.178,1.149-2.557Zm84.9-1.15-1.969.173a3.169,3.169,0,0,0,.736,1.817,3.809,3.809,0,0,0,1.713,1.117,5.406,5.406,0,0,0,1.749.283c.173,0,.359-.008.553-.025a4.751,4.751,0,0,0,2.873-1.094,2.718,2.718,0,0,0,.888-2.348,3.035,3.035,0,0,0-.506-1.489,3.412,3.412,0,0,0-1.276-1.049,8.727,8.727,0,0,0-2.2-.708,6.754,6.754,0,0,1-1.97-.644,1.252,1.252,0,0,1-.666-.988,1.384,1.384,0,0,1,.433-1.2,2.411,2.411,0,0,1,1.462-.543c.1-.01.215-.015.332-.015a2.115,2.115,0,0,1,1.3.377,1.8,1.8,0,0,1,.679,1.34l1.96-.171a3.2,3.2,0,0,0-.685-1.741,3.486,3.486,0,0,0-1.563-1.112,4.681,4.681,0,0,0-1.627-.276c-.157,0-.332.008-.52.023a4.559,4.559,0,0,0-2.822,1.141,2.785,2.785,0,0,0-.92,2.354,2.933,2.933,0,0,0,1.771,2.4,9.314,9.314,0,0,0,2.259.727,6.36,6.36,0,0,1,1.966.652,1.377,1.377,0,0,1,.626,1.106,1.354,1.354,0,0,1-.421,1.146,2.451,2.451,0,0,1-1.508.552c-.14.013-.279.019-.412.019a2.535,2.535,0,0,1-1.463-.388,1.849,1.849,0,0,1-.77-1.439Zm-96.149-8.594h0l-.991,11.332,4.131.361c.23.02.452.03.659.03a4.026,4.026,0,0,0,2.346-.629,3.037,3.037,0,0,0,1.238-2.362,2.759,2.759,0,0,0-.356-1.7,2.525,2.525,0,0,0-1.338-1.062,2.732,2.732,0,0,0,1.314-.857,2.48,2.48,0,0,0,.543-1.364,2.742,2.742,0,0,0-.8-2.385,4.79,4.79,0,0,0-2.859-1.027l-3.884-.339ZM1639-726v1h92v-1Zm-16.432-9.586c-.016,0-.026.014-.03.04a11.46,11.46,0,0,0,.956,2.248,21.558,21.558,0,0,1,1.293,3.345l.337,1.49H1741.11l.477-.929a29.38,29.38,0,0,1,3.176-3.569l2.7-2.67-2.81-.027c-.181,0-.38-.007-.607-.007a8.506,8.506,0,0,0-2.345.175,36.155,36.155,0,0,1-5.339.534c-3.007.178-6.167.4-7.195.507l-2,.141.141-.844c.084-.646.3-.9.983-1.124l.9-.31-1.012.141a4.077,4.077,0,0,1-.573.053c-.351,0-.527-.1-.608-.334-.137-.332-.557-.449-1.6-.449-1.353,0-1.406.029-1.406.787a2.933,2.933,0,0,0,.422,1.377,1.177,1.177,0,0,1,.265.678.081.081,0,0,1-.039.053c-.129.078-2.383.217-5.481.337l-5.284.2v-.7c0-.395-.113-.76-.252-.815a.783.783,0,0,1-.42-.607,1.644,1.644,0,0,1,.223-1.388c.329-.315.466-.524.419-.639-.031-.081-.15-.121-.363-.121-.292,0-.573-.363-.63-.688-.032-.2.023-.335.152-.381.07-.024.1-.1.074-.229-.063-.4-.6-1.233-.917-1.233-.139,0-.253.441-.253.984,0,.957-.031.985-1.125.985-.81,0-1.178-.14-1.406-.535a3.121,3.121,0,0,1-.13-2.169.2.2,0,0,1,.158-.108.142.142,0,0,0,.12-.062.649.649,0,0,0-.007-.527c-.167-.477.185-.944,1.883-2.5a11.555,11.555,0,0,0,1.836-1.957.011.011,0,0,0-.009-.01,13.932,13.932,0,0,0-2.22,1.884l-1.939,1.91-.534-.7c-.255-.323-1.13-1.528-2.756-3.794-1.9-2.66-2.61-3.959-2.452-4.484a.353.353,0,0,1,.233-.237c.056-.029.082-.057.077-.085-.012-.052-.15-.084-.359-.084-.348-.031-.676-.208-.731-.4-.031-.075-.065-.117-.094-.117-.046,0-.074.1-.074.257a.543.543,0,0,0,.112.413.267.267,0,0,0,.2.095c.094,0,.149.018.166.056s-.009.108-.083.2a1.348,1.348,0,0,1-.713.125,5.357,5.357,0,0,1-.832-.069c-1.113-.139-1.264-.246-1.349-.956-.041-.314-.046-.517.052-.629s.286-.13.566-.13c.54,0,.731-.147.731-.562,0-.452-.193-.562-.984-.562-.663,0-.985-.137-.985-.42v-.647c0-.109.164-.2.365-.2.175,0,.368-.3.422-.645.043-.255.031-.395-.042-.481s-.253-.138-.6-.138c-.524,0-.817-.184-.9-.562a.684.684,0,0,0-.6-.562.4.4,0,0,0-.386.31c-.006.018-.013.026-.023.026a5.872,5.872,0,0,1-.68-1.938,10.03,10.03,0,0,1-.45-3.849,4.265,4.265,0,0,0,0-1.562.03.03,0,0,0-.024-.012c-.089,0-.167.446-.167.955,0,.638-.048.865-.319.865a1.2,1.2,0,0,1-.3-.05,1.371,1.371,0,0,0-.285-.039c-.084,0-.133.016-.143.045s.01.062.062.106c.309.253,1.177,3.218,1.63,5.566a10.244,10.244,0,0,0,.619,2.107,5.856,5.856,0,0,1,.477,1.687c.083.852.008.982-.617,1.067a3,3,0,0,0-2.5,1.349,6.34,6.34,0,0,0-.309.788c0,.009.02.021.113.021a9.493,9.493,0,0,0,1.151-.134l1.293-.2-.226,1.293a23.8,23.8,0,0,0,.422,8.543c.329.987.409,1.389.305,1.535a.185.185,0,0,1-.164.068.381.381,0,0,0-.365.394c0,.221-.278.448-.619.506-.452.056-.7.342-.814.927-.039.235-.079.345-.125.345-.106,0-.271-.551-.607-2.031-.443-1.917-.535-2.555-.252-2.81.227-.171.278-.684.139-1.406l-.167-1.123-.056,1.039c-.02.668-.272,1.111-.43,1.111-.046,0-.086-.038-.115-.11a1.047,1.047,0,0,1-.046-.355c0-.335-.341-.421-1.659-.421-1.6,0-1.686.035-1.8.759l-.112.788-.057-.788c-.029-.674-.139-.759-.984-.759s-.982.11-1.153.842c-.114.457-.281.843-.365.843a14.692,14.692,0,0,1-1.741-1.264,7.392,7.392,0,0,0-1.64-1.129.029.029,0,0,0-.018,0c-.056.084.258.425.7.76.467.377,1.11.939,1.462,1.264a2.341,2.341,0,0,0,.9.646.226.226,0,0,1,.193.078c.161.2.084.821-.332,2.649-.255,1.042-.507,2.194-.562,2.529-.143.544-.344.646-1.265.646-.985,0-1.183.118-1.518.9l-.394.927-.028-1.771c-.029-1.383-.121-1.742-.45-1.742s-.42.386-.42,1.966c0,1.526-.088,1.967-.393,1.967-.6,0-.624-.076-1.463-4.074a13.519,13.519,0,0,1-.506-4.047,20.154,20.154,0,0,0,.085-4.244l-.141-3.793-.056,3.71c-.028,2.236-.163,3.738-.338,3.738-.133,0-.281-.289-.281-.7,0-.669-.079-.7-1.686-.7-1.624,0-1.687.027-1.687.73,0,.348-.076.563-.2.563a.15.15,0,0,1-.082-.029.717.717,0,0,1-.224-.646.393.393,0,0,0-.058-.318c-.1-.133-.335-.211-.729-.244a3.234,3.234,0,0,0-.357-.025c-.49,0-.6.213-.878,1.205-.309,1.148-.441,1.292-1.181,1.292-.4,0-.591-.039-.689-.146a.665.665,0,0,1-.071-.5,1.988,1.988,0,0,0-.317-1.553.993.993,0,0,0-.779-.33c-.338,0-.495.03-.525.1-.02.05.021.123.13.236a1.331,1.331,0,0,1,.338.87c0,.219.069.373.167.373a.141.141,0,0,0,.086-.034.372.372,0,0,1,.192-.059.278.278,0,0,1,.259.216.634.634,0,0,1-.227.686,1.892,1.892,0,0,0-.618,1.067,1.357,1.357,0,0,1-1.176,1.02.648.648,0,0,1-.342-.092,3.156,3.156,0,0,1-.392-1.32c-.138-.985-.2-1.3-.49-1.3a1.88,1.88,0,0,0-.579.172c-.243.093-.4.192-.389.247,0,.023.04.035.107.035a.268.268,0,0,1,.2.109.615.615,0,0,1,.027.481.567.567,0,0,0,.032.472.268.268,0,0,0,.221.092.408.408,0,0,1,.393.42.433.433,0,0,1-.422.422c-.223,0-.476.3-.589.7a1.463,1.463,0,0,1-1.125.985,3.181,3.181,0,0,1-1,.213.708.708,0,0,1-.61-.256,1.259,1.259,0,0,1-.19-.773c0-.678-.217-1.044-.421-1.044-.125,0-.245.131-.337.37a1.722,1.722,0,0,1-.479.7c-.1.074-.15.131-.138.17s.076.055.194.055a.408.408,0,0,1,.338.421.409.409,0,0,1-.394.422c-.257,0-.45.524-.589,1.6-.223,1.81-.387,2.333-.732,2.333-.14,0-.253-.567-.253-1.265,0-1.063-.085-1.264-.534-1.264s-.561.21-.647,1.18c-.059.894-.277,1.3-.454,1.3-.092,0-.174-.1-.231-.293a3.215,3.215,0,0,1-.1-.895c0-1.1-.084-1.292-.563-1.292s-.561.188-.561,1.18c-.019.667-.037.959-.133.959-.053,0-.131-.092-.232-.229a.951.951,0,0,0-.795-.34,2.269,2.269,0,0,0-.357.031,1.888,1.888,0,0,1-.367.032,2.456,2.456,0,0,1-1.067-.229,2.808,2.808,0,0,0-1.215-.23,3.681,3.681,0,0,0-.5.034c-2.929.449-3.377.565-3.683.954a.614.614,0,0,1-.475.249.451.451,0,0,1-.317-.124.479.479,0,0,1-.134-.35,1.654,1.654,0,0,0-1.068-1.1c-.163,0-.44.346-.674.842-.342.8-.452.843-1.967.843h-1.63l-.057-2.754-.028-2.725-.2,3.091a20.654,20.654,0,0,1-.423,3.568c-.17.426-.621.507-2.838.507-2.469,0-2.641-.037-2.641-.563s-.247-.562-6.605-.562h-6.6l-.815-1.629C1622.96-735.133,1622.661-735.586,1622.569-735.586Zm15.368,30.861c-.094,0-.193,0-.293-.013l-2.188-.193.31-3.54,2.351.2a1.628,1.628,0,0,1,1.648,1.964,1.617,1.617,0,0,1-.634,1.23A1.964,1.964,0,0,1,1637.937-704.725Zm11.631-1.645h0l-3.284-.287,2.054-4.557,1.231,4.842Zm70.945-1.409h0l-.345-3.953,2.42-.212c.1-.006.168-.009.237-.009a2.074,2.074,0,0,1,1.354.438,1.979,1.979,0,0,1,.689,1.418,1.833,1.833,0,0,1-.427,1.476,2.358,2.358,0,0,1-1.561.635Zm-82.376-1.958c-.094,0-.2,0-.315-.013l-1.931-.169.28-3.184,1.914.168a2.432,2.432,0,0,1,1.457.5,1.454,1.454,0,0,1,.373,1.255,1.44,1.44,0,0,1-.62,1.134A2.046,2.046,0,0,1,1638.138-709.736Zm68.1-31.937h0a1.806,1.806,0,0,1-1.265-1.012c-.524-.8-.7-1.2-.6-1.382.052-.092.17-.135.373-.135a.385.385,0,0,0,.358-.15c.108-.183.018-.529-.274-1.058l0-.006c-.15-.286-.233-.444-.3-.444s-.126.146-.227.387a5.332,5.332,0,0,0-.228,1.468c-.028.842-.109.929-.87.929-.714,0-.876-.154-1.153-1.1-.283-.988-.254-1.182.28-1.882.3-.379.434-.666.4-.831a.179.179,0,0,0-.09-.126.532.532,0,0,1-.114-.646c.067-.172.075-.282.025-.355s-.2-.123-.475-.123-.416.028-.446.1.013.145.138.3c.149.182.2.3.186.393-.014.072-.071.132-.186.2a.3.3,0,0,1-.172.05.5.5,0,0,1-.391-.218,1.169,1.169,0,0,1-.2-.992.182.182,0,0,1,.168-.105,3.84,3.84,0,0,0,1.04-.731l.809-.7a1.788,1.788,0,0,1,.4.224,54.787,54.787,0,0,1,5.2,7.307c0,.192.134.366.282.366.1,0,.162.019.175.054s0,.051-.034.086a.366.366,0,0,1-.265.112.609.609,0,0,1-.454-.26.756.756,0,0,1-.154-.64c.052-.26.076-.408.047-.445a.026.026,0,0,0-.019-.008c-.046,0-.144.11-.31.312a1.226,1.226,0,0,1-.73.506.29.29,0,0,0-.31.281C1706.851-741.808,1706.557-741.674,1706.234-741.674Zm-5.306-7.081c-.2,0-.242-.21-.316-.647-.064-.3-.079-.454,0-.55.113-.139.419-.154,1.042-.154a3.63,3.63,0,0,1,1.363.251l-.969.565A3.4,3.4,0,0,1,1700.928-748.755Z" transform="translate(-1544.001 832)" fill="#010d26"/>
    </g>
    <path id="Subtraction_7" data-name="Subtraction 7" d="M1816-297H1566V-443h250v146ZM1691-441a71.081,71.081,0,0,0-71,71,71.081,71.081,0,0,0,71,71,71.081,71.081,0,0,0,71-71A71.081,71.081,0,0,0,1691-441Z" transform="translate(-1563 496)" fill="#010d26"/>
  </g>
</svg>
