<svg width="42" height="42" viewBox="0 0 42 42" fill="none" xmlns="http://www.w3.org/2000/svg">
<circle cx="21" cy="21" r="20" stroke="#13B3F2" stroke-width="2"/>
<path d="M18.774 31.028C18.774 31.5743 18.991 32.0983 19.3773 32.4846C19.7637 32.871 20.2876 33.088 20.834 33.088C21.3803 33.088 21.9043 32.871 22.2906 32.4846C22.6769 32.0983 22.894 31.5743 22.894 31.028C22.894 30.7575 22.8407 30.4896 22.7372 30.2397C22.6337 29.9897 22.4819 29.7626 22.2906 29.5714C22.0993 29.3801 21.8722 29.2283 21.6223 29.1248C21.3724 29.0213 21.1045 28.968 20.834 28.968C20.5635 28.968 20.2956 29.0213 20.0457 29.1248C19.7957 29.2283 19.5686 29.3801 19.3773 29.5714C19.1861 29.7626 19.0343 29.9897 18.9308 30.2397C18.8273 30.4896 18.774 30.7575 18.774 31.028V31.028ZM24.464 23.252C27.362 21.656 28.834 19.342 28.834 16.376C28.834 11.282 24.816 9 20.834 9C16.956 9 12.834 11.818 12.834 17.042C12.834 17.5724 13.0447 18.0811 13.4198 18.4562C13.7948 18.8313 14.3036 19.042 14.834 19.042C15.3644 19.042 15.8731 18.8313 16.2482 18.4562C16.6233 18.0811 16.834 17.5724 16.834 17.042C16.834 14.264 18.908 13 20.834 13C22.328 13 24.834 13.438 24.834 16.376C24.834 17.418 24.56 18.634 22.536 19.75C21.16 20.504 18.834 22.462 18.834 25C18.834 25.5304 19.0447 26.0391 19.4198 26.4142C19.7948 26.7893 20.3036 27 20.834 27C21.3644 27 21.8731 26.7893 22.2482 26.4142C22.6233 26.0391 22.834 25.5304 22.834 25C22.834 24.628 23.624 23.714 24.464 23.252V23.252Z" fill="#13B3F2"/>
</svg>
