<svg width="49" height="49" viewBox="0 0 49 49" fill="none" xmlns="http://www.w3.org/2000/svg">
<path d="M24.5 49C38.031 49 49 38.031 49 24.5C49 10.969 38.031 0 24.5 0C10.969 0 0 10.969 0 24.5C0 38.031 10.969 49 24.5 49Z" fill="#010D26"/>
<path d="M24.5 48C37.4787 48 48 37.4787 48 24.5C48 11.5213 37.4787 1 24.5 1C11.5213 1 1 11.5213 1 24.5C1 37.4787 11.5213 48 24.5 48Z" stroke="#13B3F2" stroke-width="2"/>
<path d="M8.90767 25.6989V25.1875L13.0241 23.0909V23.9091L9.86648 25.4304L9.89205 25.3793V25.5071L9.86648 25.456L13.0241 26.9773V27.7955L8.90767 25.6989ZM34.9017 21.1477L32.7923 28.9844H32.102L34.2114 21.1477H34.9017ZM40.1296 25.6989L36.0131 27.7955V26.9773L39.1708 25.456L39.1452 25.5071V25.3793L39.1708 25.4304L36.0131 23.9091V23.0909L40.1296 25.1875V25.6989Z" fill="#FBAC39"/>
<path d="M14.7252 28V21.4545H15.5178V24.7017H15.5945L18.5349 21.4545H19.5704L16.8218 24.4077L19.5704 28H18.6116L16.336 24.9574L15.5178 25.8778V28H14.7252ZM22.6162 28H20.5963V21.4545H22.7057C23.3406 21.4545 23.884 21.5856 24.3357 21.8477C24.7874 22.1076 25.1336 22.4815 25.3744 22.9695C25.6151 23.4553 25.7355 24.0369 25.7355 24.7145C25.7355 25.3963 25.6141 25.9833 25.3712 26.4755C25.1283 26.9656 24.7746 27.3427 24.3101 27.6069C23.8456 27.869 23.281 28 22.6162 28ZM21.3889 27.2969H22.5651C23.1063 27.2969 23.5548 27.1925 23.9106 26.9837C24.2664 26.7749 24.5317 26.4776 24.7064 26.092C24.8811 25.7063 24.9685 25.2472 24.9685 24.7145C24.9685 24.1861 24.8822 23.7312 24.7096 23.3498C24.537 22.9663 24.2792 22.6722 23.9362 22.4677C23.5931 22.261 23.1659 22.1577 22.6546 22.1577H21.3889V27.2969ZM26.8477 28V27.4247L30.3762 22.1577H26.8094V21.4545H31.3222V22.0298L27.7938 27.2969H31.3605V28H26.8477Z" fill="#13B3F2"/>
</svg>
