<svg xmlns="http://www.w3.org/2000/svg" width="49" height="49" viewBox="0 0 49 49"><path d="M45.5,2.25H3.489A3.515,3.515,0,0,0,0,5.783V47.717A3.515,3.515,0,0,0,3.489,51.25H45.5A3.524,3.524,0,0,0,49,47.717V5.783A3.524,3.524,0,0,0,45.5,2.25Zm-30.691,42H7.547V20.866H14.82V44.25ZM11.178,17.672a4.211,4.211,0,1,1,4.211-4.211A4.213,4.213,0,0,1,11.178,17.672ZM42.033,44.25H34.77V32.875c0-2.712-.055-6.2-3.773-6.2-3.784,0-4.364,2.953-4.364,6V44.25H19.37V20.866h6.967v3.194h.1a7.649,7.649,0,0,1,6.88-3.773c7.35,0,8.717,4.845,8.717,11.145Z" transform="translate(0 -2.25)" fill="#13b3f2"/></svg>