<svg xmlns="http://www.w3.org/2000/svg" width="50.256" height="49" viewBox="0 0 50.256 49"><path d="M16.809,40.017c0,.2-.233.365-.527.365-.334.03-.567-.132-.567-.365,0-.2.233-.365.527-.365C16.546,39.622,16.809,39.784,16.809,40.017Zm-3.151-.456c-.071.2.132.436.436.5a.475.475,0,0,0,.628-.2c.061-.2-.132-.436-.436-.527A.52.52,0,0,0,13.658,39.561Zm4.478-.172c-.294.071-.5.263-.466.5.03.2.294.334.6.263s.5-.263.466-.466S18.43,39.359,18.137,39.389ZM24.8.562A24.3,24.3,0,0,0,0,25.285,25.4,25.4,0,0,0,17.174,49.521c1.3.233,1.753-.567,1.753-1.226,0-.628-.03-4.093-.03-6.221,0,0-7.093,1.52-8.582-3.019,0,0-1.155-2.948-2.817-3.708,0,0-2.32-1.591.162-1.56A5.348,5.348,0,0,1,11.571,36.4c2.219,3.911,5.937,2.786,7.386,2.118A5.631,5.631,0,0,1,20.578,35.1C14.915,34.475,9.2,33.654,9.2,23.907a7.679,7.679,0,0,1,2.391-5.968,9.573,9.573,0,0,1,.263-6.88c2.118-.659,6.991,2.736,6.991,2.736a23.936,23.936,0,0,1,12.726,0s4.874-3.4,6.991-2.736a9.569,9.569,0,0,1,.263,6.88c1.621,1.793,2.614,3.192,2.614,5.968,0,9.778-5.968,10.558-11.632,11.2a5.992,5.992,0,0,1,1.722,4.7c0,3.415-.03,7.64-.03,8.471,0,.659.466,1.459,1.753,1.226a25.168,25.168,0,0,0,17-24.216C50.256,11.232,38.857.562,24.8.562ZM9.848,35.508c-.132.1-.1.334.071.527.162.162.4.233.527.1.132-.1.1-.334-.071-.527C10.213,35.448,9.98,35.377,9.848,35.508Zm-1.094-.821c-.071.132.03.294.233.4a.3.3,0,0,0,.436-.071c.071-.132-.03-.294-.233-.4C8.987,34.556,8.825,34.586,8.754,34.688Zm3.283,3.607c-.162.132-.1.436.132.628.233.233.527.263.659.1.132-.132.071-.436-.132-.628C12.473,38.163,12.169,38.133,12.037,38.295Zm-1.155-1.489c-.162.1-.162.365,0,.6s.436.334.567.233a.462.462,0,0,0,0-.628C11.308,36.775,11.044,36.674,10.882,36.805Z" transform="translate(0 -0.563)" fill="#13b3f2"/></svg>