<svg width="760" height="760" viewBox="0 0 760 760" fill="none" xmlns="http://www.w3.org/2000/svg">
<path d="M380 755C587.107 755 755 587.107 755 380C755 172.893 587.107 5 380 5C172.893 5 5 172.893 5 380C5 587.107 172.893 755 380 755Z" fill="#010D26"/>
<path d="M380 755C587.107 755 755 587.107 755 380C755 172.893 587.107 5 380 5C172.893 5 5 172.893 5 380C5 587.107 172.893 755 380 755Z" stroke="#6A8FD4" stroke-width="10"/>
<path d="M103.503 491.042L108.882 429.458L130.413 431.338C134.703 431.713 138.176 432.764 140.833 434.491C143.492 436.198 145.394 438.354 146.54 440.958C147.688 443.543 148.131 446.339 147.868 449.346C147.637 451.992 146.975 454.136 145.882 455.778C144.809 457.421 143.467 458.678 141.856 459.547C140.265 460.418 138.566 461.017 136.76 461.344L136.708 461.946C138.582 462.23 140.418 463.057 142.218 464.427C144.017 465.796 145.46 467.659 146.547 470.016C147.634 472.374 148.036 475.176 147.752 478.424C147.482 481.511 146.538 484.226 144.919 486.569C143.301 488.912 140.915 490.673 137.762 491.852C134.609 493.031 130.606 493.409 125.755 492.985L103.503 491.042ZM111.538 485.077L126.333 486.37C131.204 486.795 134.745 486.155 136.954 484.449C139.185 482.725 140.419 480.51 140.655 477.804C140.837 475.719 140.474 473.748 139.566 471.891C138.659 470.014 137.27 468.459 135.398 467.225C133.528 465.97 131.25 465.226 128.564 464.991L113.409 463.668L111.538 485.077ZM113.976 457.172L127.808 458.381C130.053 458.577 132.117 458.313 133.998 457.588C135.899 456.865 137.451 455.749 138.654 454.238C139.876 452.728 140.582 450.891 140.771 448.726C141.008 446.02 140.266 443.642 138.546 441.593C136.828 439.524 133.924 438.311 129.835 437.954L115.762 436.725L113.976 457.172ZM161.103 496.073L153.284 495.39L181.276 435.781L188.974 436.454L206.208 500.013L198.39 499.33L184.515 445.881L184.034 445.839L161.103 496.073ZM166.091 472.269L197.604 475.022L197.026 481.637L165.513 478.884L166.091 472.269ZM210.039 444.96L210.617 438.344L256.805 442.379L256.227 448.994L236.862 447.303L232.061 502.271L224.603 501.62L229.405 446.651L210.039 444.96ZM264.369 449.705L264.947 443.09L311.134 447.124L310.556 453.74L291.191 452.048L286.39 507.017L278.932 506.365L283.734 451.397L264.369 449.705ZM317.264 509.713L322.644 448.13L330.101 448.781L325.3 503.749L353.926 506.25L353.349 512.865L317.264 509.713Z" fill="#779FE8"/>
<path d="M448.459 462.703C447.832 459.688 446.162 457.45 443.449 455.99C440.736 454.53 437.515 453.963 433.786 454.289C431.06 454.527 428.713 455.176 426.745 456.237C424.797 457.296 423.319 458.647 422.312 460.291C421.324 461.932 420.916 463.735 421.087 465.7C421.231 467.344 421.745 468.723 422.63 469.837C423.534 470.93 424.641 471.813 425.952 472.486C427.262 473.14 428.62 473.657 430.027 474.039C431.432 474.401 432.719 474.683 433.888 474.884L440.29 476.021C441.93 476.302 443.765 476.728 445.795 477.298C447.844 477.866 449.827 478.713 451.743 479.839C453.678 480.942 455.323 482.435 456.679 484.316C458.035 486.197 458.84 488.581 459.092 491.468C459.382 494.796 458.773 497.879 457.264 500.718C455.774 503.554 453.435 505.91 450.245 507.784C447.076 509.657 443.126 510.8 438.395 511.213C433.984 511.598 430.103 511.22 426.751 510.079C423.42 508.936 420.72 507.172 418.654 504.787C416.607 502.4 415.316 499.534 414.782 496.187L422.48 495.514C422.883 497.822 423.833 499.679 425.329 501.083C426.844 502.466 428.686 503.436 430.856 503.994C433.044 504.53 435.361 504.691 437.806 504.477C440.653 504.229 443.169 503.544 445.353 502.424C447.536 501.284 449.217 499.825 450.395 498.045C451.571 496.246 452.06 494.223 451.864 491.978C451.686 489.933 450.969 488.319 449.714 487.136C448.46 485.953 446.865 485.042 444.931 484.403C442.996 483.764 440.92 483.238 438.703 482.826L430.936 481.323C426.004 480.36 422.022 478.718 418.992 476.397C415.961 474.076 414.264 470.841 413.902 466.691C413.601 463.243 414.27 460.155 415.911 457.426C417.569 454.675 419.92 452.45 422.963 450.75C426.024 449.028 429.52 447.996 433.449 447.652C437.418 447.306 441.008 447.709 444.22 448.863C447.43 449.997 450.043 451.707 452.061 453.995C454.099 456.282 455.304 458.974 455.676 462.073L448.459 462.703ZM472.813 507.116L467.434 445.532L474.891 444.881L477.287 472.305L510.123 469.437L507.728 442.013L515.185 441.361L520.565 502.945L513.107 503.596L510.701 476.052L477.865 478.92L480.271 506.465L472.813 507.116ZM537.573 439.406L542.952 500.989L535.494 501.641L530.115 440.057L537.573 439.406ZM557.904 499.683L552.525 438.1L573.333 436.282C578.165 435.86 582.19 436.387 585.41 437.863C588.647 439.318 591.137 441.453 592.878 444.271C594.618 447.088 595.647 450.311 595.964 453.939C596.281 457.568 595.828 460.93 594.603 464.027C593.399 467.122 591.34 469.685 588.427 471.717C585.513 473.729 581.66 474.944 576.868 475.363L561.954 476.666L561.376 470.05L576.05 468.768C579.358 468.479 581.964 467.676 583.869 466.358C585.774 465.04 587.092 463.37 587.824 461.347C588.575 459.301 588.843 457.046 588.627 454.58C588.412 452.115 587.758 449.95 586.666 448.086C585.594 446.22 583.998 444.824 581.877 443.898C579.754 442.953 577.019 442.626 573.671 442.918L560.56 444.064L565.362 499.032L557.904 499.683ZM641.299 445.859C640.672 442.843 639.002 440.605 636.289 439.146C633.576 437.686 630.355 437.119 626.626 437.444C623.9 437.683 621.553 438.332 619.585 439.393C617.637 440.452 616.159 441.803 615.152 443.446C614.164 445.088 613.756 446.891 613.927 448.856C614.071 450.499 614.585 451.879 615.47 452.993C616.374 454.086 617.481 454.969 618.792 455.642C620.102 456.295 621.46 456.813 622.867 457.195C624.272 457.557 625.559 457.838 626.728 458.039L633.13 459.177C634.77 459.458 636.605 459.883 638.635 460.453C640.684 461.022 642.667 461.869 644.583 462.994C646.518 464.098 648.163 465.59 649.519 467.471C650.875 469.353 651.679 471.737 651.932 474.624C652.222 477.951 651.613 481.034 650.103 483.873C648.614 486.71 646.275 489.066 643.085 490.94C639.916 492.813 635.966 493.955 631.235 494.369C626.824 494.754 622.943 494.376 619.591 493.235C616.26 492.091 613.56 490.327 611.494 487.943C609.447 485.556 608.156 482.689 607.622 479.342L615.32 478.67C615.723 480.978 616.673 482.834 618.169 484.239C619.684 485.621 621.526 486.592 623.696 487.149C625.884 487.685 628.201 487.847 630.646 487.633C633.493 487.384 636.009 486.7 638.193 485.58C640.376 484.44 642.057 482.98 643.234 481.201C644.41 479.401 644.9 477.379 644.704 475.134C644.526 473.089 643.809 471.475 642.554 470.292C641.3 469.109 639.705 468.197 637.771 467.558C635.836 466.919 633.76 466.394 631.543 465.981L623.776 464.478C618.844 463.515 614.862 461.873 611.832 459.553C608.801 457.232 607.104 453.996 606.742 449.847C606.441 446.399 607.11 443.31 608.751 440.581C610.409 437.831 612.76 435.606 615.803 433.906C618.864 432.184 622.359 431.151 626.289 430.808C630.258 430.461 633.848 430.865 637.06 432.018C640.27 433.152 642.883 434.863 644.901 437.151C646.939 439.437 648.144 442.13 648.516 445.228L641.299 445.859Z" fill="#779FE8"/>
<path d="M363.697 512.377V450.559H401.005V457.2H371.183V478.087H399.073V484.728H371.183V505.737H401.488V512.377H363.697Z" fill="#779FE8"/>
<path d="M134.401 377.359H620.317" stroke="#779FE8"/>
<path d="M433.725 173.58C433.725 178.033 433.282 178.63 430.461 177.885C428.533 177.441 427.641 177.737 428.534 178.477C430.166 179.813 434.766 195.547 437.143 207.869C437.825 211.688 438.919 215.421 440.407 219.003C441.685 221.83 442.536 224.831 442.931 227.908C443.375 232.508 442.931 233.105 439.667 233.549C437.049 233.553 434.473 234.206 432.168 235.449C429.864 236.693 427.904 238.488 426.463 240.674C425.827 242.021 425.281 243.41 424.831 244.831C427.075 244.973 429.328 244.774 431.512 244.239L438.342 243.183L437.153 250.012C435.15 265.065 435.905 280.356 439.382 295.139C441.611 301.82 441.759 303.589 440.127 303.589C439.864 303.599 439.605 303.66 439.366 303.77C439.127 303.879 438.912 304.035 438.733 304.227C438.554 304.42 438.414 304.646 438.323 304.893C438.231 305.14 438.189 305.402 438.199 305.665C438.199 306.853 436.715 308.042 434.935 308.338C432.558 308.633 431.238 310.117 430.63 313.234C430.039 316.931 429.294 315.463 426.769 304.329C424.393 294.088 423.949 290.823 425.433 289.487C426.621 288.595 426.917 285.927 426.178 282.066L425.285 276.13L424.989 281.623C424.842 286.82 421.873 289.936 421.873 285.035C421.873 283.255 419.945 282.806 413.116 282.806C404.665 282.806 404.211 282.954 403.609 286.815L403.018 290.971L402.722 286.815C402.574 283.255 401.977 282.806 397.525 282.806C393.072 282.806 392.327 283.397 391.44 287.258C390.849 289.635 389.956 291.711 389.512 291.711C386.285 289.713 383.21 287.48 380.312 285.029C377.723 282.602 374.768 280.599 371.555 279.093C371.259 279.537 372.891 281.322 375.252 283.102C377.629 285.029 381.062 287.998 382.968 289.783C384.255 291.286 385.886 292.456 387.722 293.195C389.798 293.195 389.65 295.867 386.977 307.593C385.641 313.086 384.305 319.17 384.009 320.95C383.264 323.771 382.229 324.362 377.327 324.362C372.13 324.362 371.095 324.954 369.31 329.116L367.234 334.012L367.086 324.658C366.938 317.533 366.495 315.457 364.71 315.457C362.924 315.457 362.481 317.533 362.481 325.846C362.481 333.864 362.037 336.235 360.405 336.235C357.289 336.235 357.141 335.94 352.688 314.713C350.69 307.77 349.789 300.558 350.016 293.338C350.932 285.901 351.081 278.389 350.46 270.922L349.715 250.883L349.419 270.478C349.271 282.499 348.526 290.221 347.639 290.221C346.894 290.221 346.155 288.589 346.155 286.524C346.155 282.964 345.711 282.827 337.25 282.827C328.641 282.827 328.345 282.975 328.345 286.688C328.345 288.917 327.754 290.1 326.861 289.508C326.393 289.085 326.039 288.55 325.831 287.954C325.623 287.358 325.569 286.719 325.673 286.096C325.968 284.316 324.928 283.424 321.516 283.128C317.211 282.684 316.762 283.128 314.982 289.36C313.35 295.445 312.606 296.19 308.75 296.19C305.053 296.19 304.445 295.598 304.741 292.778C305.486 286.693 303.257 282.832 298.931 282.832C295.963 282.832 295.519 283.276 296.856 284.612C297.981 285.883 298.613 287.515 298.636 289.213C298.636 290.697 299.227 291.589 299.972 290.992C302.496 289.508 303.532 293.665 301.16 295.445C299.475 296.91 298.326 298.895 297.896 301.086C296.84 304.947 292.551 307.619 289.879 305.982C288.678 303.839 287.969 301.456 287.803 299.005C286.746 291.584 286.614 291.288 282.162 293.068C280.234 293.813 279.489 294.552 280.678 294.552C281.866 294.7 282.31 295.741 281.866 297.669C281.423 299.596 281.866 300.637 283.202 300.637C283.773 300.657 284.312 300.904 284.702 301.322C285.091 301.74 285.298 302.295 285.278 302.866C285.265 303.453 285.026 304.012 284.61 304.427C284.195 304.842 283.636 305.081 283.049 305.094C281.861 305.094 280.525 306.727 279.933 308.792C279.505 310.113 278.727 311.294 277.682 312.209C276.636 313.124 275.363 313.739 273.996 313.989C267.167 316.366 264.489 315.045 264.489 309.684C264.489 304.487 261.965 302.264 260.481 306.119C259.962 307.543 259.094 308.815 257.956 309.816C256.9 310.561 256.9 311.005 258.252 311.005C258.77 311.093 259.238 311.369 259.566 311.78C259.894 312.191 260.06 312.709 260.032 313.234C260.052 313.804 259.844 314.36 259.455 314.778C259.066 315.196 258.527 315.442 257.956 315.463C256.62 315.463 255.579 318.135 254.84 323.913C253.651 333.563 252.764 336.235 250.979 336.235C250.234 336.235 249.643 333.267 249.643 329.554C249.643 323.913 249.199 322.873 246.822 322.873C244.445 322.873 243.854 324.061 243.41 329.105C242.819 337.862 239.254 338.459 239.254 329.697C239.254 323.887 238.81 322.867 236.285 322.867C233.761 322.867 233.317 323.924 233.317 329.1C233.169 334.593 233.021 335.184 231.389 332.961C230.631 332.144 229.658 331.558 228.582 331.269C227.505 330.981 226.37 331.001 225.305 331.329C222.733 331.733 220.099 331.365 217.736 330.272C214.869 329.111 211.741 328.746 208.683 329.216C193.245 331.593 190.873 332.184 189.236 334.265C187.456 336.494 184.34 335.749 184.34 333.077C183.934 331.727 183.21 330.495 182.228 329.484C181.246 328.473 180.036 327.713 178.699 327.267C177.806 327.267 176.322 329.195 175.134 331.72C173.354 335.876 172.757 336.172 164.745 336.172H156.136L155.85 321.7L155.702 307.302L154.646 323.628C154.468 329.965 153.722 336.274 152.417 342.478C151.525 344.707 149.301 345.151 137.423 345.151C124.509 345.151 123.468 345.003 123.468 342.183C123.468 339.362 122.412 339.214 88.6092 339.214H53.75L49.4454 330.605C46.9208 326.005 44.993 323.036 44.8451 324.072C46.0909 328.201 47.7841 332.183 49.8944 335.945C52.655 341.633 54.9392 347.541 56.7236 353.607L58.5035 361.477H671.074L673.599 356.58C678.659 349.844 684.27 343.539 690.373 337.73L704.634 323.628L689.792 323.48C684.58 323.094 679.34 323.394 674.206 324.373C664.885 325.995 655.459 326.937 646.002 327.193C630.859 328.086 613.783 329.269 608 329.866L597.437 330.61L598.181 326.158C598.625 322.746 599.813 321.404 603.378 320.221L608.132 318.589L602.787 319.334C598.778 319.926 597.146 319.63 596.555 317.85C595.81 316.07 593.586 315.473 588.104 315.473C580.979 315.473 580.683 315.621 580.683 319.63C580.809 322.202 581.575 324.701 582.912 326.903C584.1 328.683 584.692 330.463 584.1 330.764C583.356 331.207 570.442 331.952 555.157 332.544L527.248 333.6V329.903C527.248 327.827 526.657 325.894 525.912 325.598C523.092 324.706 522.5 317.433 524.856 315.035C527.824 312.214 527.824 311.026 525.151 311.026C522.627 311.026 520.551 306.13 522.627 305.385C524.407 304.794 520.25 297.669 518.174 297.669C517.43 297.669 516.838 300.045 516.838 302.866C516.838 307.915 516.69 308.063 510.901 308.063C506.597 308.063 504.669 307.318 503.481 305.242C501.553 301.382 501.553 293.221 503.629 293.221C504.521 293.221 504.817 291.885 504.22 290.105C503.328 287.58 505.276 285.056 514.166 276.901C517.847 273.901 521.094 270.404 523.815 266.512C519.574 269.413 515.644 272.746 512.09 276.457L501.849 286.551L499.028 282.853C497.396 280.778 490.863 271.72 484.482 262.815C472.609 246.188 469.192 239.211 472.757 237.88C473.65 237.436 473.053 236.987 471.273 236.987C469.493 236.839 467.713 235.931 467.412 234.911C466.968 233.855 466.519 234.167 466.519 235.656C466.372 237.14 467.111 238.329 468.151 238.329C469.192 238.329 469.34 238.772 468.595 239.665C465.955 240.528 463.125 240.631 460.43 239.961C454.493 239.216 453.748 238.624 453.305 234.911C452.861 231.499 453.305 230.903 456.569 230.903C459.389 230.903 460.43 230.158 460.43 227.934C460.43 225.558 459.373 224.966 455.232 224.966C451.673 224.966 450.035 224.221 450.035 222.737V219.325C450.035 218.734 450.928 218.269 451.963 218.269C452.856 218.269 453.891 216.785 454.192 214.857C454.636 212.184 454.044 211.593 450.78 211.593C448.107 211.593 446.475 210.7 446.026 208.624C445.134 205.36 441.722 204.616 440.829 207.288C440.533 208.345 438.754 203.728 437.132 197.195C435.014 190.638 434.207 183.729 434.755 176.86C435.199 172.26 435.199 168.547 434.607 168.547C434.169 168.531 433.725 170.76 433.725 173.58ZM472.023 249.727C482.21 261.824 491.395 274.732 499.488 288.32C499.455 288.767 499.589 289.211 499.862 289.567C500.136 289.922 500.531 290.165 500.972 290.248C501.864 290.248 502.16 290.544 501.717 290.992C499.789 292.92 496.372 289.804 497.116 286.836C497.708 283.867 497.56 283.72 495.632 286.091C494.721 287.43 493.345 288.382 491.771 288.764C491.565 288.749 491.359 288.777 491.164 288.844C490.97 288.912 490.791 289.018 490.638 289.157C490.486 289.296 490.363 289.464 490.277 289.651C490.191 289.839 490.144 290.042 490.139 290.248C490.139 290.993 488.655 291.732 486.875 291.732C485.421 291.425 484.059 290.782 482.899 289.854C481.739 288.925 480.812 287.738 480.194 286.387C476.185 280.302 475.889 278.369 479.005 278.369C481.678 278.369 481.826 276.294 479.449 271.989C477.817 268.873 477.817 268.873 476.629 271.693C475.875 274.198 475.476 276.795 475.44 279.41C475.292 283.862 474.849 284.306 470.84 284.306C467.143 284.306 466.24 283.561 464.755 278.496C463.271 273.299 463.419 272.264 466.239 268.551C468.315 265.878 468.912 264.098 467.872 263.501C467.404 263.082 467.091 262.517 466.983 261.898C466.876 261.279 466.981 260.642 467.28 260.089C468.025 258.161 467.428 257.565 464.903 257.565C462.231 257.565 461.935 258.008 463.271 259.64C464.607 261.272 464.607 262.017 463.271 262.757C462.755 263.008 462.163 263.055 461.613 262.89C461.063 262.724 460.595 262.358 460.303 261.864C458.671 259.339 458.523 256.054 460.155 256.054C462.187 255.079 464.043 253.775 465.648 252.193L470.1 248.332L464.755 251.448C458.074 255.309 457.926 255.309 457.187 250.857C456.442 247.445 456.743 247.16 462.68 247.16C465.98 247.05 469.237 247.945 472.018 249.727H472.023Z" fill="#6A8FD4"/>
</svg>
